<svg width="80" height="80" viewBox="0 0 80 80" fill="none" xmlns="http://www.w3.org/2000/svg">
<path d="M39.3906 2.10156C32.7578 7.35156 24.5938 10.7812 15.1562 12.3047C12.4922 12.7344 9.76562 12.9688 7.53125 12.9688H6.01562V14.7031C6.01562 18.3828 6.28125 22.8984 6.72656 26.875C8.20312 40.125 12.0234 51.4531 18.0312 60.4297C22.7891 67.5312 28.8984 73.1172 35.625 76.5234C37.1406 77.2812 38.3359 77.8047 39.3984 78.1641L40.1719 78.4219L41.0781 77.9766C52.2812 72.5312 61.1484 63.125 66.7656 50.7266C70.6797 42.0781 73.0938 32.0703 73.8281 21.3672C73.9609 19.4375 74.0469 15.9141 74.0078 14.4375L73.9609 13.0469L73.7188 13.0078C73.5859 12.9844 72.8125 12.8984 71.9922 12.8125C59.1953 11.4219 48.7109 8.25 43.0078 4.0625C41.9609 3.28906 41.2109 2.625 40.7188 2.02344C40.4766 1.72656 40.2578 1.48438 40.2266 1.48438C40.1953 1.48438 39.8203 1.76562 39.3906 2.10156ZM40.5469 3.09375C41.125 3.6875 42.3359 4.64844 43.3047 5.29688C47.7344 8.26562 54.3438 10.6484 62.6172 12.2656C65.1953 12.7656 69.4609 13.4062 72.0312 13.6719C72.4844 13.7188 72.9375 13.7734 73.0391 13.7969L73.2266 13.8359L73.1797 16.8203C73.0859 22.5859 72.5547 27.6016 71.4375 33.2031C69.2031 44.4219 65.1172 54.0469 59.2891 61.7891C54.5078 68.1484 48.5938 73.1641 41.6562 76.7422L40.1484 77.5156L39.7422 77.3828C36.9922 76.4844 33.2109 74.4062 30.1094 72.0859C22.3047 66.2656 16.3203 57.9531 12.2969 47.3672C8.92969 38.5078 6.97656 27.2422 6.85938 15.9766L6.83594 13.8672L8.35938 13.8203C15.3828 13.5859 22.8438 11.9141 29.2188 9.14062C32.9453 7.51562 36.8047 5.24219 39.5703 3.03125C39.8281 2.82812 40.0547 2.65625 40.0781 2.65625C40.1016 2.65625 40.3125 2.85156 40.5469 3.09375Z" fill="black"/>
<path d="M44.0625 16.9844V26.7266L44.2812 26.6094C44.3984 26.5469 46.6406 25.2109 49.2578 23.6484L54.0234 20.8047L54.0391 16.1641L54.0625 11.5234L52.8672 11.1484C49.625 10.1172 46.5547 8.77344 44.3203 7.40625L44.0625 7.25V16.9844Z" fill="black"/>
<path d="M34.2188 8.09375C32.0469 9.38281 28.2422 11.0781 25.4922 11.9844L24.8438 12.2031V25.1719V38.1406L25.1016 37.9844C25.3984 37.7969 32.1328 33.7812 33.7344 32.8281L34.8438 32.1719V19.9531C34.8438 13.2344 34.8359 7.73438 34.8281 7.74219C34.8125 7.74219 34.5391 7.90625 34.2188 8.09375Z" fill="black"/>
<path d="M62.9688 14.5703V15.5625L63.1484 15.4531C63.2422 15.3906 63.8047 15.0625 64.3984 14.7344C64.9844 14.3984 65.4688 14.1016 65.4688 14.0703C65.4688 14.0469 65 13.9375 64.4375 13.8438C63.8672 13.7422 63.3047 13.6406 63.1875 13.6172L62.9688 13.5781V14.5703Z" fill="black"/>
<path d="M15 14.3828C13.5859 14.5859 10.2031 14.8437 8.83594 14.8437H8.17969L8.22656 17.6328C8.35938 25.0547 9.16406 32.0312 10.6328 38.5781C11.2656 41.3984 12.5469 45.8437 12.7109 45.8047C12.7422 45.7891 13.3984 45.4062 14.1562 44.9531L15.5469 44.1172L15.5625 31.9453C15.5938 14.0234 15.5938 14.3516 15.5078 14.3359C15.4688 14.3281 15.2344 14.3437 15 14.3828Z" fill="black"/>
<path d="M53.6327 22.7187C45.9374 27.3046 33.7421 34.5703 26.5234 38.8593C19.3046 43.1562 13.3671 46.6953 13.3281 46.7265C13.2499 46.7968 14.0468 48.8515 14.8671 50.7031C16.3046 53.9375 18.1796 57.2578 20.1328 60.0546C20.7499 60.9296 20.8203 61 20.9687 60.9218C21.3828 60.7031 38.1718 50.8281 44.7656 46.9296C61.2656 37.164 70.1406 31.789 70.5312 31.3125C70.6718 31.1406 71.1093 28.8984 71.3984 26.914C71.8515 23.7812 71.914 22.7968 71.914 18.9453C71.9062 16.8984 71.8749 15.3046 71.8281 15.125L71.7499 14.8125L70.1952 14.6328C69.3359 14.539 68.4062 14.4375 68.1249 14.414L67.6171 14.375L53.6327 22.7187ZM63.8515 23.1015C65.2343 24.4296 67.164 26.2656 68.1327 27.1875C69.1093 28.1093 69.9062 28.8906 69.914 28.9218C69.9218 28.9453 69.5468 29.2031 69.0859 29.4843L68.2421 30L67.3046 29.0625C66.789 28.5468 66.3437 28.125 66.3124 28.125C66.2499 28.125 63.6406 29.6875 63.3984 29.8671C63.2499 29.9843 63.2499 30 63.5468 31.25C63.7109 31.9375 63.8281 32.5546 63.8046 32.6093C63.7499 32.7578 62.2577 33.6171 62.1874 33.5468C62.0937 33.4375 59.5859 21.7109 59.6484 21.6562C59.7656 21.5312 61.1406 20.7109 61.2343 20.7109C61.289 20.7031 62.4687 21.7812 63.8515 23.1015ZM57.7734 23.9453C58.0156 24.3984 58.1952 24.7968 58.1718 24.8359C58.1484 24.875 57.6718 25.1718 57.1093 25.5078C56.5468 25.8437 56.0702 26.1406 56.0468 26.1796C56.0156 26.2343 60.039 33.6562 60.5156 34.4296C60.6171 34.5859 60.5859 34.6171 59.8359 35.0781C59.3984 35.3437 59.0234 35.5312 58.9843 35.5C58.9531 35.4609 57.9296 33.6171 56.7187 31.4062C55.4999 29.1953 54.4687 27.3359 54.4218 27.289C54.3515 27.2109 54.0859 27.3359 53.2187 27.8671C52.6093 28.2343 52.0937 28.5234 52.0859 28.5078C52.0156 28.4218 51.1718 26.8437 51.1718 26.8046C51.1718 26.7812 52.2499 26.1093 53.5624 25.3125C54.8827 24.5156 56.2265 23.7031 56.5546 23.5C56.8827 23.2968 57.1874 23.1328 57.2421 23.1328C57.289 23.125 57.5312 23.4921 57.7734 23.9453ZM50.3984 27.7968C54.3437 34.9218 55.7109 37.4609 55.6562 37.5546C55.539 37.7343 54.1874 38.5078 54.1015 38.4453C54.039 38.3906 48.5937 34.5781 47.7109 33.9609L47.4843 33.8046L47.6249 34.0703C47.7968 34.4062 50.6562 39.6171 50.9062 40.0468L51.0937 40.375L50.3749 40.8125C49.8046 41.1562 49.6327 41.2265 49.5624 41.1484C49.4452 41.0234 44.1327 31.3515 44.0859 31.1875C44.0624 31.0859 44.2577 30.9375 44.7968 30.6093L45.539 30.1718L48.914 32.5468C50.7656 33.8515 52.3046 34.9218 52.3202 34.9218C52.3437 34.9218 52.2577 34.7343 52.1249 34.5078C50.6562 31.8906 48.7421 28.3437 48.7656 28.2812C48.789 28.1953 49.9921 27.4375 50.1171 27.4296C50.164 27.4218 50.289 27.5859 50.3984 27.7968ZM41.0468 34.2031C41.4843 34.6171 43.3984 36.4531 45.3124 38.2812C47.2265 40.1093 48.7968 41.6328 48.8046 41.6796C48.8202 41.7187 48.4531 41.9843 47.9999 42.2578L47.1718 42.75L46.2109 41.7968L45.2499 40.8437L43.8202 41.7031C43.0312 42.1875 42.3359 42.6093 42.2734 42.6484C42.1874 42.7031 42.2031 42.8593 42.3749 43.5625C42.4843 44.0312 42.6249 44.6328 42.6874 44.8984L42.7968 45.3828L41.9687 45.8906C41.5156 46.1718 41.1327 46.3906 41.1171 46.3828C41.0859 46.3515 38.5156 34.4296 38.5312 34.414C38.6327 34.3203 40.1327 33.4453 40.1874 33.4375C40.2265 33.4375 40.6171 33.7812 41.0468 34.2031ZM33.7343 42.8437C34.9453 45.0468 35.9843 46.9062 36.039 46.9765C36.1171 47.0781 36.3828 46.9453 38.0468 45.9375L39.9531 44.7734L40.0781 44.9843C40.1484 45.1015 40.3671 45.4921 40.5624 45.8593L40.9296 46.5312L38.2499 48.1484C36.7734 49.039 35.5312 49.7656 35.4921 49.7656C35.414 49.7656 30.0312 40.0625 29.9843 39.8437C29.9687 39.7578 31.3359 38.8281 31.4843 38.8281C31.5078 38.8281 32.5234 40.6328 33.7343 42.8437ZM29.3749 41.0234C29.6093 41.4609 29.8124 41.8593 29.8281 41.914C29.8437 41.9609 29.3593 42.3046 28.7578 42.664C28.1562 43.0234 27.664 43.3437 27.6562 43.375C27.6562 43.3984 28.6796 45.2734 29.9218 47.539C31.1718 49.7968 32.1874 51.6953 32.1874 51.7421C32.1874 51.7968 31.9687 51.9609 31.6953 52.1171C31.4296 52.2734 31.0859 52.4765 30.9296 52.5703L30.6484 52.7343L28.3515 48.5546C27.0859 46.2578 26.0312 44.375 25.9921 44.375C25.9609 44.375 25.4453 44.6718 24.8515 45.0312C23.5937 45.7968 23.8046 45.8437 23.1718 44.664C22.9609 44.289 22.8203 43.9531 22.8437 43.9296C22.9062 43.8671 28.8593 40.25 28.9062 40.2421C28.9296 40.2421 29.1406 40.5937 29.3749 41.0234ZM21.3437 46.3828C27.8359 52.5859 28.9843 53.7031 28.914 53.7734C28.8749 53.8125 28.4921 54.0546 28.0703 54.3046L27.3046 54.7656L26.3671 53.8281C25.8515 53.3125 25.4062 52.8906 25.3749 52.8906C25.2343 52.8906 22.3437 54.7187 22.3437 54.8046C22.3437 54.8593 22.4687 55.4218 22.6171 56.0468C22.7656 56.6796 22.8906 57.25 22.8906 57.3281C22.8906 57.414 22.5937 57.6328 22.0703 57.9453C21.3906 58.3437 21.2499 58.4062 21.2187 58.2968C21.1093 57.9375 18.6718 46.5234 18.6874 46.4687C18.7109 46.3984 20.2343 45.4687 20.3281 45.4687C20.3593 45.4687 20.8203 45.8828 21.3437 46.3828Z" fill="black"/>
<path d="M61.7969 23.6954C61.7969 23.7422 62.7109 27.6954 62.7578 27.836C62.7734 27.8985 64.7656 26.711 64.7656 26.6407C64.7656 26.6172 64.1016 25.9297 63.2812 25.1172C62.4688 24.3047 61.7969 23.6641 61.7969 23.6954Z" fill="black"/>
<path d="M40.7267 36.5235C40.7501 36.6094 40.9689 37.5391 41.2189 38.5938C41.461 39.6485 41.6798 40.5313 41.711 40.5625C41.7345 40.5938 42.2032 40.3438 42.7501 40.0079L43.7423 39.4063L42.211 37.8829C41.3751 37.0469 40.7032 36.4376 40.7267 36.5235Z" fill="black"/>
<path d="M20.8594 48.4608C20.8594 48.5311 21.8125 52.6093 21.8359 52.6405C21.8594 52.6718 23.7891 51.4843 23.8125 51.4218C23.8203 51.3905 23.1641 50.6952 22.3438 49.8827C21.5313 49.0702 20.8594 48.4296 20.8594 48.4608Z" fill="black"/>
<path d="M66.6562 35.4766L63.125 37.5781V45.8047L63.1328 54.0234L63.2891 53.7187C63.5703 53.1875 64.7266 50.5469 65.3125 49.1016C66.8203 45.3516 68.3203 40.9141 69.2969 37.2812C69.6953 35.7891 70.25 33.4297 70.2109 33.3828C70.1953 33.375 68.6016 34.3125 66.6562 35.4766Z" fill="black"/>
<path d="M49.0469 45.9531L44.0625 48.9219V61.4219V73.9219L44.2422 73.8125C44.3359 73.7422 44.6563 73.5469 44.9609 73.3594C47.8516 71.5938 50.7969 69.3125 53.1797 66.9922L54.0703 66.1328L54.0469 54.5547L54.0235 42.9766L49.0469 45.9531Z" fill="black"/>
<path d="M33.5156 55.6954C32.8047 56.1172 30.5625 57.4375 28.5391 58.625L24.8438 60.7969V63.3125V65.836L26 66.961C27.8125 68.7344 29.7734 70.3438 31.9141 71.8125C32.8984 72.4922 34.7656 73.625 34.8125 73.5704C34.8281 73.5547 34.8359 69.3516 34.8281 64.2422L34.8047 54.9375L33.5156 55.6954Z" fill="black"/>
</svg>
