<svg width="178" height="148" viewBox="0 0 178 148" fill="none" xmlns="http://www.w3.org/2000/svg">
<g clip-path="url(#clip0)">
<path d="M20.5864 89.9456L34.7578 147.79L99.6713 131.887L164.585 115.984L150.413 58.1392L136.242 0.294377L71.3285 16.1976L6.41494 32.1008L20.5864 89.9456ZM122.176 9.41209C122.503 9.86854 122.922 9.996 123.292 9.752C124.177 9.15192 126.476 9.58499 126.662 10.3442C126.76 10.7419 126.709 11.0609 126.587 11.0907C126.182 11.1901 124.96 10.4164 124.854 9.98256C124.8 9.76564 124.58 9.74303 124.372 9.94728C124.083 10.1714 124.127 10.3522 124.522 10.5619C125.56 11.1124 125.404 11.8788 124.287 11.8841C123.693 11.9148 123.134 12.0901 123.065 12.3369C122.801 13.0147 122.157 13.0192 121.939 12.3061C121.757 11.7376 121.716 11.7475 121.705 12.4019C121.698 12.9017 121.441 13.0797 120.747 13.058C119.5 13.057 118.449 12.2797 118.466 11.4708C118.499 11.0794 118.226 10.8399 117.802 10.867C116.654 10.9184 118.849 9.34592 120.359 9.01431C121.301 8.82186 121.841 8.91949 122.176 9.41209ZM130.025 20.5575C130.069 20.7382 129.722 20.9 129.249 20.9009C128.776 20.9017 128.375 20.8466 128.358 20.7743C128.34 20.702 128.687 20.5402 129.134 20.4309C129.58 20.3215 129.98 20.3767 130.025 20.5575ZM129.982 22.1391C130.088 22.573 128.983 23.1504 128.651 22.8486C128.153 22.3957 128.547 21.7242 129.258 21.8182C129.61 21.8472 129.947 21.9945 129.982 22.1391ZM30.1664 51.46C31.5859 52.3386 31.9999 53.5019 34.0119 61.3633C35.7176 68.1502 37.7419 74.1308 38.9187 75.9503C39.1873 76.3443 39.7273 76.442 40.5793 76.2333C42.1615 75.8456 42.8061 74.6147 42.0269 73.5409L41.467 72.835L41.0304 73.8617C40.6624 74.6416 40.5178 74.7537 40.3938 74.2476C40.1901 73.416 42.0666 67.2079 44.0186 62.3609C44.8969 60.1529 46.3488 56.4248 47.2411 54.0984C48.174 51.7621 49.0825 49.8533 49.3348 49.8298C49.5871 49.8063 49.8954 49.3093 50.0059 48.7073C50.3642 47.01 51.3445 46.2716 53.1636 46.3242C56.1261 46.4798 56.597 48.0506 55.0382 52.5714C53.3702 57.3489 51.628 63.7541 51.1791 66.6616C50.9528 68.02 50.3608 70.6944 49.8351 72.586C49.1214 75.2902 49.0412 76.1913 49.4897 76.6179C50.046 77.1331 50.0777 77.087 50.2391 76.166C50.4286 75.0083 51.1986 73.9382 51.802 73.9437C52.0225 73.9663 52.6377 73.3174 53.2174 72.5239C54.4859 70.6802 55.3659 70.2346 57.2153 70.5863C59.3259 70.9507 60.603 72.4773 61.3736 75.6226C61.967 78.0449 62.1013 78.2419 62.8722 78.0531C64.0487 77.7648 66.4744 79.24 67.171 80.6789C67.7244 81.8846 67.5853 83.9498 66.8573 84.6647C65.1756 86.2264 63.6265 91.6645 63.5585 96.1266C63.5162 99.816 62.7077 104.766 61.7342 107.112C60.7697 109.495 55.6643 115.689 54.0489 116.468C53.2729 116.812 52.2461 116.833 50.4373 116.472C48.1873 116.065 47.783 115.819 46.5199 114.174C45.7584 113.172 44.3862 111.784 43.4522 111.131C41.8136 109.885 41.2448 109.143 42.1219 109.388C42.3919 109.437 42.5365 109.325 42.4922 109.144C42.439 108.927 42.2325 108.786 41.989 108.846C41.0965 109.064 41.4962 108.238 42.6248 107.578C44.083 106.685 44.685 107.035 44.7767 108.814C44.8522 110.175 45.553 110.578 46.3179 109.663C47.481 108.267 47.233 107.254 45.4741 105.692C43.8813 104.281 43.7876 104.074 43.487 101.619C43.1459 99.1731 43.0699 99.0384 42.0799 98.8594C40.8605 98.6216 38.8376 97.7375 38.7491 97.376C38.7225 97.2676 39.1016 97.0597 39.539 96.9142C40.3327 96.6431 41.3299 95.0959 41.2567 94.2707C41.2442 94.0438 41.2722 93.807 41.2862 93.6886C41.3459 93.4057 41.2336 92.2452 41.0127 90.1149C40.8953 89.109 40.9667 88.1717 41.1519 88.0497C41.3776 87.9178 41.3967 87.6448 41.2041 87.3854C41.0204 87.1622 41.0219 86.8169 41.1981 86.6588C41.6953 86.2304 40.2484 84.3621 39.5993 84.5211C39.3153 84.5907 39.0187 84.4334 38.9479 84.1442C38.8859 83.8911 38.441 83.6552 37.9682 83.6561C37.3647 83.6506 36.9982 84.0854 36.5425 85.385L35.9231 87.0697L37.6473 89.3682C39.1702 91.3711 39.8122 92.9384 39.8847 94.99C39.9453 95.5883 37.883 92.2613 36.8522 89.9845C36.3165 88.8511 35.6731 87.6291 35.4133 87.2712C33.8816 85.2321 33.4914 84.8678 32.9639 84.9971C31.6251 85.3251 30.3168 82.6181 30.9008 80.7888C31.0379 80.2953 31.0511 79.2957 30.9234 78.5989C30.3114 75.2231 29.9974 71.6593 30.2171 70.8007C30.3911 70.1066 30.2936 69.7089 29.8539 69.3184C29.4231 68.9641 29.2142 68.2872 29.2679 67.2776C29.2354 66.4425 29.1016 65.019 28.8802 64.1151C28.6499 63.1752 28.6151 61.8041 28.7625 61.0015C29.1399 59.0312 28.2748 54.7977 27.4471 54.5789C26.4305 54.2915 26.7305 52.5318 27.8908 51.826C29.3085 50.9421 29.3085 50.9421 30.1664 51.46ZM130.888 26.3627C130.793 26.501 130.436 26.6266 130.126 26.5877C129.775 26.5588 129.87 26.4205 130.316 26.3112C130.754 26.1657 131.024 26.2145 130.888 26.3627ZM122.156 30.5712C122.201 30.752 122.083 30.9725 121.839 31.0322C121.636 31.0819 121.389 30.9508 121.345 30.77C121.292 30.5531 121.459 30.3588 121.662 30.3091C121.906 30.2495 122.103 30.3543 122.156 30.5712ZM127.836 29.1797C127.881 29.3605 127.763 29.581 127.519 29.6406C127.316 29.6903 127.069 29.5593 127.025 29.3785C126.972 29.1616 127.139 28.9673 127.342 28.9176C127.586 28.8579 127.783 28.9628 127.836 29.1797ZM128.402 30.6123C128.999 31.1175 128.548 31.3814 127.829 30.906C127.425 30.6601 127.372 30.4432 127.615 30.3836C127.859 30.3239 128.228 30.4252 128.402 30.6123ZM26.9879 57.7956C26.7659 58.1182 26.5719 58.2041 26.5188 57.9872C26.3948 57.481 26.7754 56.9279 27.1214 57.1114C27.2291 57.2 27.1782 57.519 26.9879 57.7956ZM132.871 36.9139C133.525 36.6003 133.948 36.5733 134.01 36.8263C134.064 37.0432 134.595 37.1047 135.244 36.9457C135.852 36.7966 137.027 36.8536 137.855 37.0724C139.65 37.5524 139.772 37.5226 139.595 36.7995C139.515 36.4742 139.714 36.2338 140.016 36.2365C140.628 36.2781 142.186 38.4257 141.843 38.7781C141.707 38.9263 141.511 39.3574 141.478 39.7488C141.413 40.1862 141.015 40.667 140.595 40.8848C140.176 41.1026 139.899 41.5536 139.938 41.8889C140.027 42.2505 139.955 42.3065 139.721 42.057C139.587 41.86 139.236 41.831 139.028 42.0353C138.508 42.5459 137.286 42.9986 134.342 43.7965C132.282 44.3396 131.89 44.3206 130.735 43.6454C129.927 43.1537 129.402 42.5924 129.426 42.1649C129.451 41.7374 129.258 41.478 129.015 41.5376C128.731 41.6072 128.831 41.3143 129.166 40.9257C129.605 40.435 129.642 40.2343 129.276 40.3238C128.992 40.3934 129.329 39.6595 129.986 38.6554C130.652 37.6875 131.389 37.0087 131.555 37.1597C131.721 37.3106 132.338 37.1977 132.871 36.9139ZM129.373 50.724C129.583 51.0557 129.746 51.0159 130.144 50.5351C130.542 50.0543 130.745 50.0046 131.248 50.3029C131.562 50.5325 131.714 50.8018 131.628 50.9763C131.533 51.1145 131.861 51.2257 132.343 51.261C132.856 51.2502 133.284 51.4138 133.328 51.5946C133.425 51.9923 132.601 53.1907 131.702 53.9091C130.45 54.9439 125.603 55.1732 125.373 54.2332C125.338 54.0886 125.045 54.122 124.747 54.31C124.458 54.5341 124.147 54.4953 124.094 54.2783C124.041 54.0614 124.281 53.8111 124.646 53.7216C125.092 53.6123 125.161 53.3656 124.775 52.8467C124.364 52.2195 124.387 52.1372 125.003 52.3695C125.537 52.6217 125.853 52.5061 126.477 51.8933C126.884 51.4487 127.498 51.145 127.849 51.174C128.2 51.2029 128.466 51.061 128.422 50.8803C128.298 50.3741 129.046 50.2675 129.373 50.724ZM123.775 52.9768C123.846 53.2661 123.746 53.5589 123.502 53.6185C123.299 53.6682 123.035 53.4648 122.964 53.1756C122.893 52.8864 123.034 52.5836 123.237 52.5339C123.48 52.4743 123.704 52.6876 123.775 52.9768ZM115.918 56.0132C116.513 56.8637 116.624 58.3694 116.056 58.5086C115.366 58.6776 116.01 59.8996 116.972 60.3154C118.082 60.8098 118.03 61.4741 116.894 61.7524C116.001 61.9711 115.95 62.2901 116.334 66.4884C116.507 68.2472 116.618 70.6342 116.56 71.7983C116.541 72.9524 116.605 74.968 116.744 76.2369C116.954 77.7951 116.822 79.0152 116.368 79.9696C115.991 80.7134 115.722 81.5458 115.784 81.7989C116.13 83.2089 114.871 90.1853 113.641 93.5908C112.844 95.7789 111.97 98.1776 111.715 98.8916C111.391 99.8523 111.445 100.95 111.932 102.939C112.729 106.193 112.359 109.771 111.13 110.723C110.696 111.06 109.986 111.847 109.533 112.456C107.477 115.297 106.423 116.437 105.661 116.662C105.183 116.817 103.447 117.281 101.792 117.725C98.515 118.566 97.725 119.028 98.2939 119.77C98.4953 120.065 98.3862 120.322 98.021 120.411C97.4125 120.561 96.333 119.139 96.5653 118.507C96.6427 118.296 97.2122 117.812 97.8399 117.39C98.9824 116.612 99.197 115.908 98.2639 116.136C97.493 116.325 94.9508 114.725 95.3756 114.353C95.9679 113.786 95.6005 113.34 94.3988 113.174C93.2376 112.999 93.3099 112.943 96.1719 111.284C99.3407 109.473 99.9115 108.643 97.9884 108.693C97.3444 108.697 96.4039 108.544 95.9679 108.344C95.4913 108.155 95.1402 108.126 95.1844 108.306C95.2287 108.487 94.9587 108.438 94.595 108.183C94.2313 107.927 93.7953 107.727 93.5342 107.714C92.1968 107.697 91.0814 107.357 90.9751 106.923C90.9131 106.67 90.6976 106.493 90.4948 106.543C90.0485 106.652 88.5611 104.794 88.0445 103.388C87.9508 103.181 87.5325 103.053 87.1268 103.152C86.7211 103.252 86.1 103.174 85.754 102.991C85.2191 102.738 85.1468 102.794 85.4825 103.287C85.9931 103.967 84.8431 104.363 84.3237 103.648C84.0906 103.398 83.6634 103.235 83.3389 103.314C83.0143 103.394 82.8483 103.243 82.9574 102.986C83.0806 102.611 84.4511 102.237 87.5699 101.626C91.3962 100.918 91.9465 100.707 91.6779 100.313C91.2345 99.7318 92.3527 99.3812 94.0679 99.5358C95.2519 99.629 95.4878 99.1879 94.4853 98.7821C94.1481 98.6347 92.7842 98.509 91.4873 98.4818C89.9205 98.4058 88.5439 98.0532 87.4476 97.4404C86.5402 96.8962 85.8939 96.3648 85.9574 96.2726C86.0119 96.1442 88.3916 95.6762 91.2036 95.2172C96.2013 94.3761 98.7218 93.6053 100.1 92.3861C100.67 91.9017 100.206 91.9387 97.7398 92.5812C93.5699 93.6411 93.1287 93.5959 92.0736 91.7467C91.1882 90.239 91.1793 90.2029 92.1484 88.8924C93.0224 87.7202 93.0504 87.4834 92.4144 86.6428C92.0381 86.1602 91.0776 85.3991 90.2373 84.9535C88.9522 84.2719 88.7596 84.0125 88.6613 82.7336C88.6287 81.8985 88.737 80.7606 88.9287 80.1388C89.1713 79.198 88.955 78.1396 87.527 73.8907C85.699 68.3601 85.3404 67.9498 83.1496 68.4865C81.6891 68.8443 80.1922 68.1763 80.9202 67.4615C81.2005 67.2012 82.0576 66.8379 82.8285 66.649C83.5993 66.4602 84.9116 66.0237 85.6964 65.7165L87.1444 65.1318L87.7798 67.1989L88.4241 69.3021L90.601 68.8837C92.2415 68.5585 92.7106 68.3669 92.6044 67.9331C92.5335 67.6438 92.2598 67.4043 92.0392 67.3817C91.3864 67.35 89.699 64.8509 90.0072 64.3538C90.1658 64.1233 90.9735 63.7338 91.8078 63.4528C92.6509 63.2079 94.5858 62.504 96.0743 61.9094C97.6123 61.3409 101.175 60.0849 103.994 59.1261C106.862 58.1935 110.23 57.0233 111.534 56.5507C115.241 55.1825 115.282 55.1726 115.918 56.0132ZM133.568 53.4519C133.49 53.6625 133.251 53.9128 133.007 53.9725C132.804 54.0222 132.598 53.8812 132.554 53.7004C132.5 53.4835 132.749 53.2693 133.114 53.1798C133.439 53.1003 133.636 53.2052 133.568 53.4519ZM79.0622 74.6232C79.2105 74.7018 79.2837 75.527 79.2617 76.4904C79.2397 77.4539 79.2605 78.9434 79.392 79.8309C79.5294 81.4452 79.278 82.3499 78.244 84.0978C77.6592 85.0458 76.122 86.4955 75.8572 86.2921C74.2718 85.2625 72.4369 83.566 72.5461 83.3093C72.6235 83.0987 72.5069 82.974 72.2635 83.0336C72.0606 83.0833 71.6615 82.6829 71.3575 82.1442C71.0941 81.5956 70.5201 81.0081 70.1335 80.8345C69.7558 80.6971 69.4061 80.3229 69.3441 80.0698C69.1935 79.4552 69.0807 79.5212 70.9315 79.5277C73.8269 79.5848 74.5572 79.4059 75.3943 78.4343L76.2314 77.4628L75.22 77.0207C74.6534 76.8146 74.0249 76.3555 73.8146 76.0238C73.4206 75.4688 73.6146 75.3829 76.0931 74.9673C77.5714 74.6818 78.914 74.5445 79.0622 74.6232ZM121.61 66.9587C121.681 67.2479 120.604 68.4698 120.207 68.6053C120.004 68.655 119.803 68.3595 119.705 67.9618C119.572 67.4195 119.812 67.1692 120.542 66.9902C121.11 66.8511 121.583 66.8502 121.61 66.9587ZM128.367 75.229C128.721 75.4486 129.23 75.5923 129.514 75.5228C130.406 75.3041 130.942 76.4375 130.295 77.1325C129.232 78.236 127.881 78.3371 127.128 77.3718C126.676 76.7545 126.587 76.393 126.854 76.2511C127.079 76.1191 127.211 75.7802 127.141 75.491C126.981 74.8402 127.549 74.7011 128.367 75.229ZM89.9359 92.5003C90.5327 93.0056 90.5187 93.124 89.829 93.2929C88.9365 93.5116 88.2762 93.0985 88.5085 92.4668C88.7408 91.835 89.173 91.8441 89.9359 92.5003ZM76.4092 98.7268L77.6206 99.8096L77.0786 101.284C76.5506 102.639 76.4784 102.695 75.6558 102.322C74.4872 101.765 73.3892 99.39 73.8701 98.544C74.4372 97.5237 75.0584 97.6014 76.4092 98.7268ZM114.297 112.592C114.341 112.772 114.223 112.993 113.98 113.053C113.777 113.102 113.53 112.971 113.485 112.79C113.432 112.574 113.6 112.379 113.803 112.33C114.046 112.27 114.244 112.375 114.297 112.592ZM107.385 117.734C107.43 117.915 107.312 118.135 107.109 118.185C106.865 118.245 106.537 118.133 106.371 117.982C106.196 117.795 106.323 117.611 106.648 117.531C107.013 117.442 107.332 117.517 107.385 117.734ZM109.547 117.779C109.618 118.069 109.517 118.361 109.274 118.421C109.071 118.471 108.806 118.267 108.735 117.978C108.665 117.689 108.805 117.386 109.008 117.336C109.252 117.277 109.476 117.49 109.547 117.779ZM114.054 116.867C114.098 117.047 113.98 117.268 113.737 117.328C113.534 117.377 113.287 117.246 113.243 117.066C113.189 116.849 113.357 116.654 113.56 116.605C113.803 116.545 114.001 116.65 114.054 116.867ZM102.861 120.682C103.004 120.915 102.846 121.146 102.48 121.235C102.115 121.325 101.769 121.141 101.69 120.816C101.539 120.201 102.458 120.091 102.861 120.682ZM108.36 121.711C108.404 121.892 108.286 122.112 108.043 122.172C107.84 122.221 107.593 122.09 107.548 121.91C107.495 121.693 107.663 121.498 107.865 121.449C108.109 121.389 108.307 121.494 108.36 121.711ZM109.474 124.504C109.518 124.684 109.4 124.905 109.157 124.965C108.954 125.014 108.707 124.883 108.663 124.702C108.609 124.486 108.777 124.291 108.98 124.242C109.223 124.182 109.421 124.287 109.474 124.504Z" fill="#141414"/>
<path d="M34.4819 72.9366C34.5528 73.2259 34.4525 73.5187 34.209 73.5783C33.5599 73.7374 34.1916 75.6137 35.1433 76.3386C35.9962 77.0111 36.9736 76.9633 37.7739 76.1924C38.1582 75.83 38.0924 75.3862 37.2793 73.8226C36.4396 72.1504 36.2153 71.9371 35.3227 72.1558C34.7142 72.3049 34.4022 72.6113 34.4819 72.9366Z" fill="#141414"/>
<path d="M33.199 78.2329C33.323 78.739 33.5827 79.097 33.8261 79.0373C34.029 78.9876 34.0938 78.5502 33.9293 78.054C33.7647 77.5578 33.4644 77.2098 33.3021 77.2496C33.1398 77.2893 33.075 77.7268 33.199 78.2329Z" fill="#141414"/>
<path d="M58.0497 81.1891C57.2894 83.1765 57.4731 83.3997 58.654 82.0757C59.7802 80.8801 59.8031 80.7978 59.0897 80.1678C58.7083 79.8397 58.4597 80.0539 58.0497 81.1891Z" fill="#141414"/>
<path d="M42.0852 89.9289C42.1252 91.1454 42.1498 92.8256 42.1418 93.6707C42.1604 94.6242 42.3021 95.2027 42.5632 95.2153C42.7838 95.2379 42.8775 95.4449 42.809 95.6917C42.6224 96.1589 44.7021 97.4506 45.4324 97.2717C46.1626 97.0928 46.8466 98.3048 46.5546 99.2195C46.2169 100.299 46.6304 102.688 47.1261 102.605C47.3783 102.582 47.5103 102.243 47.5029 101.861C47.4955 101.48 47.6252 100.605 47.7903 99.8748C48.2209 98.1214 47.6703 96.2252 46.3512 95.0538C45.5123 94.2629 45.2135 93.5696 44.9366 91.9129C44.7432 90.7723 44.4318 89.8522 44.2289 89.9019C44.0261 89.9516 43.8829 89.7184 43.9338 89.3994C44.0252 89.0704 43.8415 88.8471 43.5981 88.9068C43.3546 88.9664 43.0721 88.6907 42.9746 88.2931C42.6026 86.7746 42.0444 87.8312 42.0852 89.9289Z" fill="#141414"/>
<path d="M49.261 91.6583C48.5175 92.8368 48.7013 93.06 49.7627 92.3018C50.2775 91.9457 50.6264 91.4387 50.5555 91.1495C50.3961 90.4987 49.8458 90.7102 49.261 91.6583Z" fill="#141414"/>
<path d="M51.9263 92.8831C51.3828 94.7024 51.3888 95.4291 51.9163 95.2999C52.3537 95.1544 53.0105 92.0426 52.6748 91.55C52.5405 91.353 52.1688 91.9422 51.9263 92.8831Z" fill="#141414"/>
<path d="M96.8433 65.3999C96.6442 65.6403 96.0822 66.5061 95.6013 67.3521C95.1611 68.1881 94.4914 68.9653 94.1668 69.0448C93.8422 69.1243 93.4211 69.6874 93.2205 70.273C92.9057 71.2699 92.9677 71.523 93.9357 72.6655C95.0785 73.995 97.9482 74.8249 99.7739 74.3776C100.545 74.1888 100.608 74.0966 99.9973 73.7097C99.6424 73.4901 98.7476 73.1728 98.0682 73.0327C96.4393 72.7036 96.4739 71.967 98.1196 71.4871C98.8005 71.282 99.6576 70.9187 99.9962 70.7208C100.326 70.4868 100.97 70.4823 101.397 70.6459C101.833 70.8457 103.333 70.8231 104.779 70.5837C107.055 70.2178 107.362 70.066 107.116 69.5897C106.701 68.7717 103.362 68.1334 100.168 68.2643C97.4885 68.3843 96.747 67.9911 97.6476 66.9274C97.8379 66.6508 98.5962 66.2351 99.2276 66.0038C100.968 65.3857 100.567 64.4493 98.7059 64.752C97.9262 64.9047 97.0919 65.1857 96.8433 65.3999Z" fill="#141414"/>
<path d="M98.2173 82.7685C98.8956 85.3615 99.0653 85.7032 100.444 86.5917C101.27 87.1557 102.241 87.6077 102.633 87.6267C102.993 87.6918 103.83 87.9467 104.414 88.2251C105.385 88.6771 105.47 88.8479 105.066 89.4833C104.554 90.3753 105.057 94.889 105.762 95.4828C106.134 95.7748 106.32 95.6528 106.688 94.8728C106.938 94.3134 107.08 93.6653 107.027 93.4484C106.876 92.8338 107.705 89.3732 108.09 89.0108C108.546 88.5923 108.165 87.0378 107.358 86.2008C106.968 85.8365 105.204 84.4292 103.368 83.0779C100.207 80.7097 98.4101 79.6937 97.761 79.8527C97.5987 79.8925 97.7959 81.2238 98.2173 82.7685Z" fill="#141414"/>
<path d="M95.092 85.9868C94.7572 86.3755 94.6657 86.7044 94.8952 86.7632C95.5429 86.9494 97.0697 85.8089 96.6883 85.4808C96.2486 85.0903 95.8429 85.1897 95.092 85.9868Z" fill="#141414"/>
<path d="M101.934 91.0938C101.857 91.3044 102.063 91.4454 102.388 91.3659C102.753 91.2764 102.993 91.0261 102.948 90.8453C102.895 90.6284 102.697 90.5235 102.495 90.5732C102.251 90.6329 102.003 90.847 101.934 91.0938Z" fill="#141414"/>
<path d="M108.639 106.351C108.426 106.71 107.984 107.892 107.606 108.981C107.013 110.774 107.049 110.918 107.659 110.424C108.59 109.659 109.582 107.04 109.234 106.321C109.02 105.798 108.898 105.828 108.639 106.351Z" fill="#141414"/>
</g>
<path d="M164 118C152.906 124.737 139.877 127.246 137.956 124.082C115.978 127.46 125.385 111.696 136.478 104.96C147.572 98.2232 149.079 73.3367 151 76.5C157.522 66.5402 175.093 111.263 164 118Z" fill="#F6F4F1"/>
<path d="M19.6532 63.0001C12.4779 62.7517 5.76299 57.832 5.89285 54.0804C-5.16295 45.0495 4.52206 26.8254 11.6974 27.0738C18.8727 27.3222 27.0302 16.6484 26.9003 20.4001C33.0202 15.4072 26.8285 63.2484 19.6532 63.0001Z" fill="#F6F4F1"/>
<defs>
<clipPath id="clip0">
<rect width="133.666" height="119.111" fill="white" transform="translate(6.41504 32.1008) rotate(-13.7658)"/>
</clipPath>
</defs>
</svg>
