<svg width="160" height="137" viewBox="0 0 160 137" fill="none" xmlns="http://www.w3.org/2000/svg">
<g clip-path="url(#clip0)">
<path d="M52.9103 30.0819C53.122 30.5919 53.3665 31.4023 53.4622 31.9282C53.6056 32.717 53.5492 32.8027 53.0593 32.6572C52.5582 32.4848 52.6322 32.7371 53.7704 35.0348C54.466 36.4145 55.5309 38.24 56.146 39.0563C56.9138 40.0928 57.1741 40.6457 57.0127 40.7742C56.5659 41.176 56.63 42.2168 57.1041 42.6199C57.3468 42.8348 57.5291 43.1998 57.487 43.468C57.4299 43.7737 57.6089 43.9832 57.9493 44.0642C58.4019 44.1935 58.4314 44.3384 58.1701 45.2608C57.769 46.5853 57.6391 49.745 57.9512 50.4965C58.0849 50.8186 58.0231 51.4086 57.8197 51.8053C57.5296 52.3629 57.5401 52.6096 57.8392 52.7388C58.1382 52.868 58.2845 52.777 58.4132 52.348C58.6364 51.6294 58.9886 51.5173 59.2338 52.1077C59.3341 52.3493 59.2166 52.8051 58.9574 53.0676C58.6832 53.3677 58.5211 53.7162 58.5991 53.904C58.666 54.0651 58.6876 54.3387 58.6272 54.4888C58.5406 54.6497 58.5956 55.0038 58.7182 55.299C58.8965 55.7285 58.9864 55.7232 59.1898 55.3265C59.5402 54.6189 59.6549 55.0428 59.389 56.2495C59.1651 57.1881 59.2097 57.2954 59.7442 57.5483C60.2938 57.7637 60.3352 57.7154 60.319 56.9375C60.283 56.4815 60.2247 55.9717 60.1578 55.8107C60.1021 55.6765 60.0701 55.1561 60.124 54.6948C60.2062 53.5629 60.021 51.7869 59.7758 51.1965C59.6644 50.9281 59.6028 50.2628 59.5971 49.7316C59.6928 46.7114 59.239 43.4758 58.3384 40.642C57.8527 39.1767 57.9468 37.8518 58.6483 36.2165C58.9614 35.4927 59.1339 35.391 60.7449 34.9855C62.4721 34.5641 63.6842 34.8233 64.0559 35.6446C64.1228 35.8057 64.4291 36.0261 64.717 36.1284C65.2181 36.3008 65.2515 36.3813 65.0514 36.9336C64.9267 37.2982 64.5625 37.6035 64.1729 37.6995C63.656 37.7846 63.4342 38.0633 63.3311 38.7015C63.2359 39.2111 63.2607 39.6403 63.3729 39.6887C63.485 39.7372 63.6471 39.3887 63.7273 38.9167C63.8796 38.1015 64.5068 37.4693 64.6963 37.9256C64.8635 38.3282 64.6045 40.8814 64.3945 40.967C64.2633 41.0204 64.3557 41.3907 64.6128 41.7881C64.9741 42.3626 64.9425 42.8776 64.458 44.5185C64.0983 45.7948 63.7367 46.4757 63.5124 46.3788C63.1012 46.2012 63.1407 45.5574 63.6392 45.3543C63.8229 45.2794 63.9253 44.8611 63.848 44.4533C63.7236 43.5626 63.3465 43.2455 63.3627 44.0234C63.3692 44.3346 63.1618 44.7957 62.8502 45.0796C62.5648 45.3528 62.3273 45.8889 62.3298 46.2645C62.3435 46.6668 62.2831 46.817 62.2051 46.6291C61.9782 46.1567 61.6095 46.7463 61.8101 47.2294C61.8992 47.4441 62.075 47.498 62.1728 47.364C62.2968 47.2193 62.424 47.2303 62.4909 47.3913C62.5689 47.5792 62.4108 47.8633 62.1556 48.0614C61.9004 48.2596 61.7422 48.5437 61.7979 48.6779C61.8648 48.8389 62.097 48.807 62.326 48.6196C63.4144 47.7681 63.4144 47.7681 63.6811 48.6322C63.8699 49.3084 63.967 49.3944 64.1068 48.9922C64.3745 48.381 64.7005 48.2796 64.9011 48.7627C64.9903 48.9774 65.1995 49.1118 65.3307 49.0583C65.4882 48.9942 65.5151 48.7635 65.4259 48.5488C65.3368 48.3341 65.4424 48.0714 65.6524 47.9858C65.8885 47.8896 65.9457 47.5839 65.7896 47.2081C65.4553 46.403 66.2474 44.5425 67.1363 44.0233C68.9777 42.9905 69.3562 42.8677 69.5234 43.2703C69.6126 43.485 69.4544 43.7691 69.192 43.876C68.9034 43.9936 68.7079 44.2616 68.7072 44.4815C68.7215 44.664 68.6572 44.8785 68.526 44.9319C68.3948 44.9854 68.0458 45.2531 67.7191 45.5746L67.1483 46.121L68.2468 46.7717C69.6031 47.5997 69.7053 48.4368 68.5565 49.4384C68.0159 49.9097 67.8125 50.3064 67.9272 50.7304C68.053 51.1812 67.9211 51.4546 67.5013 51.6257C66.924 51.861 66.4837 52.5739 66.6509 52.9765C66.74 53.1912 68.9007 53.0011 69.3921 52.7067C70.1085 52.2892 70.3964 52.3916 70.6973 53.1162C70.8868 53.5725 71.2002 53.8841 71.5072 53.8845C71.7506 53.8795 71.9447 54.0514 71.9328 54.2446C71.8947 54.4484 71.6809 54.5983 71.4375 54.6033C71.1942 54.6083 71.0026 54.8119 71.013 55.0587C71.0123 55.2787 70.8207 55.4823 70.5774 55.4873C70.334 55.4923 70.21 55.637 70.2769 55.798C70.3438 55.9591 70.5307 56.0398 70.6619 55.9863C70.8193 55.9222 70.8035 56.1797 70.6788 56.5443C70.5279 56.9196 70.2385 57.2572 70.0477 57.2408C69.8417 57.262 69.7511 57.4872 69.8514 57.7287C69.974 58.024 69.8874 58.1848 69.5804 58.1844C69.2846 58.2108 69.198 58.3716 69.3429 58.7205C69.4543 58.9889 69.3814 59.5521 69.1517 59.9595C68.922 60.3669 68.7593 60.9353 68.7657 61.2465C68.7978 61.7669 68.7453 61.7883 68.1845 61.5461C67.8481 61.4008 67.4775 61.3949 67.3574 61.4752C67.0458 61.7591 67.4825 62.146 67.865 61.9588C68.4351 61.6323 68.4204 62.7052 67.8241 63.0424C67.4528 63.2565 67.3583 63.546 67.5366 63.9755C67.6815 64.3244 67.6761 64.8286 67.5442 65.1021C67.386 65.3862 67.426 65.7779 67.5939 65.9605C67.7729 66.17 67.8318 66.4598 67.6816 66.6151C67.5687 66.7866 67.6263 67.5163 67.8636 68.2355C68.0635 68.9386 68.1401 69.5664 68.0089 69.6198C67.7465 69.7268 66.7478 68.2823 66.4365 67.3108C66.3106 66.86 66.0274 66.4733 65.8254 66.4301C65.5709 66.4083 65.2045 65.0827 64.5519 61.9595C64.088 59.5125 63.5854 57.4893 63.4995 57.4302C63.2004 57.301 61.9359 59.3539 62.0808 59.7028C62.1588 59.8907 62.1207 60.0945 61.9896 60.148C61.596 60.3084 62.0173 61.9881 63.1279 64.7365C63.8706 66.5991 64.0817 67.329 63.8121 67.3447C63.2618 67.3493 61.4168 63.645 60.9332 61.5199C60.7006 60.5164 60.4338 59.6523 60.3479 59.5931C60.0599 59.4908 59.6635 60.531 59.8196 60.9068C59.9087 61.1215 59.7538 61.5612 59.4533 61.8719C59.1529 62.1826 58.998 62.6223 59.076 62.8102C59.1651 63.0249 59.3298 63.052 59.4275 62.918C59.5515 62.7733 59.6676 62.7574 59.7345 62.9184C59.7902 63.0526 59.5422 63.342 59.1709 63.556C58.7734 63.7808 58.5516 64.0595 58.6559 64.2366C58.7863 64.4031 58.7745 64.5963 58.6433 64.6497C58.5121 64.7032 58.4438 64.9821 58.5028 65.2718C58.5722 65.8084 58.3695 65.9852 57.1847 66.5307C56.105 67.0335 54.7226 68.5069 54.7769 69.081C54.7945 69.419 54.7263 69.6978 54.5951 69.7513C54.4639 69.8048 54.3334 69.6383 54.338 69.354C54.3132 68.9247 54.2607 68.9461 53.9261 69.3963C53.7155 69.7018 53.575 70.3239 53.5958 70.8175C53.6239 71.4023 53.3792 71.8472 52.9626 72.1739C52.5762 72.4255 52.1891 72.8971 52.1319 73.2028C51.9731 73.7068 51.9468 73.7175 51.7797 73.3149C51.6794 73.0734 51.4328 72.9228 51.2753 72.987C50.6981 73.2222 50.389 73.8817 50.7326 74.1182C50.953 74.2794 50.8178 74.3973 50.2898 74.4556C49.7729 74.5407 49.2212 74.9852 48.4168 76.0034C47.7666 76.8018 47.1092 77.509 46.9255 77.5839C46.7418 77.6587 46.5916 77.8141 46.5837 77.9428C46.6131 78.0877 46.207 78.6612 45.6998 79.213C44.8731 80.1775 44.8541 80.2795 45.4149 80.5217C45.7513 80.667 45.99 80.9463 45.967 81.1125C45.8869 81.5845 45.0853 81.7229 44.4911 81.4002C44.0091 81.1259 43.6673 81.4849 43.9013 82.0485C43.9793 82.2364 43.709 82.472 43.2407 82.6001C42.6673 82.771 42.502 82.9639 42.5642 83.4093C42.6192 83.7634 42.465 83.9832 42.2217 83.9882C41.9783 83.9932 41.588 84.3092 41.3209 84.7004C41.0539 85.0917 40.6898 85.397 40.5251 85.3699C40.3343 85.3536 40.2739 85.5037 40.3742 85.7452C40.4745 85.9868 40.4141 86.1369 40.2232 86.1206C39.793 86.0449 38.0177 87.4587 38.1514 87.7808C38.2183 87.9418 38.1245 88.0114 37.9336 87.995C37.5033 87.9193 36.6752 89.3237 36.8385 89.7907C36.9499 90.0591 36.7623 90.1983 36.1555 90.2887C35.676 90.3899 35.2936 90.5772 35.2555 90.781C35.2436 90.9741 35.0107 91.2259 34.7483 91.3328C34.2235 91.5467 33.7897 92.5708 34.1524 92.7054C34.2646 92.7538 34.546 92.545 34.794 92.2556C35.042 91.9663 35.3497 91.7468 35.473 91.822C35.8469 91.9835 35.2269 92.7069 34.3872 93.0491C33.5475 93.3912 31.929 94.9608 32.0739 95.3097C32.1184 95.4171 32.0581 95.5672 31.9269 95.6207C31.7694 95.6849 31.2846 96.2904 30.8443 97.0033C30.3666 97.7 29.8142 98.3645 29.6042 98.45C29.3681 98.5463 29.1161 98.9 29.0439 99.2432C28.9717 99.5865 28.6069 100.112 28.2578 100.379C27.8977 100.62 27.6004 101.087 27.6332 101.387C27.6285 101.672 27.5523 102.079 27.387 102.272C27.2479 102.454 27.2131 102.814 27.2911 103.001C27.3802 103.216 27.3533 103.447 27.1958 103.511C27.0646 103.564 27.0226 103.833 27.1341 104.101C27.2455 104.369 27.2743 104.734 27.225 104.911C27.0662 105.415 27.3805 107.798 27.6383 107.975C27.7727 108.077 27.9647 108.909 28.1003 109.827C28.2359 110.744 28.4279 111.576 28.4987 111.673C28.5695 111.769 28.6835 112.413 28.7712 113.068C28.859 113.722 28.9356 114.35 28.9802 114.458C28.9985 114.576 29.0417 115.123 29.0324 115.692C29.0604 116.276 29.2636 117.135 29.5016 117.634C29.7658 118.123 29.9625 118.67 29.9506 118.863C29.8816 119.362 30.1969 120.269 32.0121 125.084C34.5104 131.692 34.9961 133.157 34.9265 133.876C34.8877 134.299 34.9991 134.568 35.1749 134.622C35.3395 134.649 35.6411 135.153 35.8338 135.765L36.1747 136.882L60.2253 127.049C82.2404 118.078 84.1972 117.249 83.1379 117.21C82.4977 117.22 82.0077 117.075 82.0196 116.882C82.0688 116.705 82.2262 116.64 82.4657 116.7C82.7051 116.759 83.3603 116.712 83.956 116.595C84.5253 116.488 85.0494 116.494 85.1051 116.628C85.172 116.789 85.5315 116.768 85.8988 116.619C86.7385 116.277 86.3352 115.97 84.9466 115.877C84.3477 115.839 83.783 115.661 83.6938 115.446C83.5267 115.044 84.1072 114.964 85.3718 115.202C85.7758 115.288 86.0605 115.235 85.9936 115.074C85.8487 114.725 84.1053 114.368 83.7452 114.609C83.3699 114.888 82.909 113.852 83.2731 113.546C83.4083 113.429 82.9748 113.197 82.29 113.1C81.3921 112.932 81.0064 112.964 80.8856 113.264C80.7649 113.564 80.9367 113.683 81.487 113.678C82.3443 113.674 82.9648 113.986 82.8027 114.334C82.7423 114.484 82.4989 114.489 82.2746 114.393C82.0129 114.28 81.6161 114.284 81.3799 114.381C80.7502 114.637 80.3134 114.25 80.4913 113.644C80.639 113.114 80.1616 112.555 79.8946 112.946C79.7968 113.08 79.6171 113.091 79.4826 112.989C79.322 112.897 79.2964 112.688 79.3942 112.554C79.4808 112.393 79.6868 112.372 79.8586 112.49C80.0304 112.608 80.2102 112.598 80.3079 112.464C80.4057 112.33 80.9226 112.245 81.469 112.305C82.9061 112.441 83.162 112.023 81.864 111.704C81.2468 111.548 80.7115 111.515 80.6774 111.654C80.6321 111.767 80.1716 111.766 79.6555 111.631C79.113 111.507 78.5666 111.448 78.4092 111.512C78.2518 111.576 78.0649 111.495 77.998 111.334C77.9311 111.173 78.0925 111.045 78.3621 111.029C78.6317 111.013 79.1971 110.971 79.609 110.929C80.0361 110.849 80.6874 110.866 81.0541 110.936C81.7723 111.114 82.709 110.858 82.5641 110.509C82.4749 110.294 80.742 110.185 80.4757 110.356C80.2355 110.516 79.5896 109.995 79.6467 109.689C79.6697 109.523 79.8796 109.438 80.0816 109.481C80.9048 109.616 81.1862 109.407 80.7121 109.004C80.4432 108.8 80.2275 108.354 80.1948 108.054C80.1365 107.544 80.1365 107.544 80.0262 108.091C79.9191 108.794 79.2854 109.115 78.4439 108.862C77.4378 108.581 77.3835 108.007 78.3824 108.196C79.3925 108.412 79.5237 108.359 79.3231 107.876C79.1782 107.527 75.4323 107.076 74.7763 107.344C74.6451 107.397 74.5218 107.322 74.5448 107.155C74.5908 106.823 75.9808 106.476 76.5829 106.67C76.8223 106.729 77.0958 106.649 77.2349 106.467C77.4002 106.274 77.0526 106.102 76.2891 106.037C75.1328 105.912 74.6061 105.53 75.2884 105.252C75.472 105.177 76.0447 105.226 76.5346 105.372C77.5519 105.679 77.7841 105.647 77.5835 105.164C77.5055 104.976 76.6489 104.76 75.6945 104.679C74.7402 104.597 73.9058 104.435 73.839 104.274C73.7833 104.139 73.9446 104.011 74.2254 104.022C74.6485 104.007 74.9687 103.374 74.8055 102.907C74.772 102.826 74.3188 102.917 73.8091 103.093C72.1376 103.649 71.7742 103.734 71.6851 103.52C71.6405 103.412 71.4122 103.38 71.2023 103.465C70.9924 103.551 70.753 103.491 70.6861 103.33C70.6081 103.143 70.8745 102.971 71.4176 102.875C72.0394 102.748 72.2271 102.608 72.1045 102.313C71.993 102.045 71.6749 102.017 71.1764 102.221C70.7303 102.402 70.2547 102.439 70.1091 102.31C69.631 101.972 69.9315 101.661 70.5336 101.855C71.0983 102.033 71.7924 101.562 71.603 101.105C71.5472 100.971 71.1504 100.976 70.7306 101.147C70.2845 101.329 69.8089 101.366 69.6745 101.264C69.5027 101.145 69.1917 101.209 68.9628 101.397C68.3959 101.879 67.9218 101.476 68.3542 100.892C68.6888 100.441 68.6665 100.388 68.0382 100.204C67.3836 100.032 67.3724 100.005 68.0547 99.7269C68.5795 99.5131 68.8189 99.5724 68.986 99.975C69.1086 100.27 69.3139 100.469 69.4451 100.416C69.5763 100.362 69.5587 100.024 69.4026 99.6484C69.2355 99.2458 68.9666 99.0415 68.7567 99.1271C68.5467 99.2126 68.3336 99.1426 68.2778 99.0084C68.211 98.8473 67.9302 98.8362 67.6678 98.9432C67.353 99.0715 67.1175 98.9477 67.0323 98.6687C66.9137 98.3091 66.648 98.2604 66.0485 98.442C64.1973 99.008 62.615 99.7784 62.569 100.111C62.5421 100.342 62.3886 100.341 62.1984 100.105C61.982 99.8794 61.9939 99.6863 62.2563 99.5794C62.5711 99.451 62.5456 99.2418 62.1469 98.6511C61.722 98.0711 61.7076 97.8887 62.0035 97.8623C62.2468 97.8573 62.4783 98.0453 62.5261 98.3083C62.648 98.8235 63.2127 99.0013 63.506 98.5994C63.6602 98.3796 63.5671 98.2293 63.2458 98.0464C62.8759 97.8206 62.9585 97.7241 63.7195 97.414C64.5329 97.0826 64.6156 96.9861 64.2615 96.5028C63.9185 96.0463 63.9487 95.9712 64.3488 96.122C64.6105 96.235 64.9613 96.5628 65.1364 96.8366C65.3672 97.2447 65.2806 97.4055 64.6508 97.6621C64.2048 97.8439 63.9082 98.0903 63.9751 98.2513C64.0308 98.3855 64.349 98.4128 64.6901 98.2738C65.0049 98.1454 65.5894 98.0014 65.9751 97.9698C66.5556 97.8901 66.5858 97.815 66.2166 97.3692C65.9071 96.9933 65.9301 96.827 66.2975 96.6773C66.7324 96.4687 66.7324 96.4687 66.1677 96.2909C65.3747 96.0805 65.2744 95.839 65.9041 95.5823C66.1928 95.4647 66.4106 95.2504 66.4073 95.0949C66.3721 94.4188 67.3685 94.2325 68.0105 94.8181C68.3614 95.1459 68.7575 95.361 68.8887 95.3075C69.0199 95.2541 69.2546 95.5978 69.433 96.0272C69.7411 96.8431 70.3234 97.3589 70.3216 96.7634C70.2438 95.3202 71.113 95.1229 72.5282 96.2407C73.331 96.9178 73.6103 97.3689 74.1517 98.9683C74.5228 100.01 74.7291 101.024 74.6163 101.195C74.5034 101.367 74.8431 101.668 75.4898 101.969C76.1365 102.27 76.9726 103.028 77.528 103.774C78.389 104.961 80.1235 106.922 81.2731 107.991C81.5269 108.233 81.881 108.716 82.0633 109.081C82.2456 109.446 82.7754 109.983 83.2798 110.311C83.7467 110.623 84.2838 111.252 84.447 111.719C84.6253 112.148 85.0876 112.744 85.4949 112.986C86.2721 113.454 87.0536 114.893 86.6076 115.075C86.4764 115.128 86.3897 115.289 86.4566 115.45C86.5123 115.584 86.7517 115.644 86.9617 115.558C87.1716 115.472 87.3998 115.505 87.4667 115.666C87.5336 115.827 88.9426 115.378 91.1205 114.491C93.4034 113.561 94.6183 112.94 94.5514 112.779C94.4845 112.618 94.5647 112.146 94.7196 111.706C95.1048 110.639 94.7756 110.585 94.1994 111.636C93.9547 112.081 93.5866 112.45 93.3846 112.407C93.119 112.358 93.1118 112.267 93.2882 112.101C93.4496 111.973 93.514 111.758 93.4471 111.597C93.3802 111.436 93.4675 111.055 93.6408 110.734C93.8895 110.224 93.8521 110.208 93.0944 110.674C92.4154 111.107 92.2993 111.123 92.4431 110.657C92.6511 109.976 92.076 109.551 91.7708 110.146C91.6389 110.42 91.4553 110.495 91.2834 110.376C91.1228 110.285 91.0972 110.076 91.2101 109.904C91.5447 109.454 91.2424 109.169 90.6205 109.297C90.0623 109.43 90.0702 109.302 90.6104 107.795C91.3166 105.875 91.4768 104.931 91.0832 105.092C90.9258 105.156 90.79 105.494 90.7551 105.853C90.6308 107.253 89.3696 109.462 88.8915 109.123C88.7197 109.005 88.7729 108.763 88.9494 108.597C89.3699 108.206 89.1215 107.46 88.6492 107.653C88.4655 107.728 88.2326 107.979 88.1269 108.242C87.9911 108.58 87.9123 108.612 87.812 108.37C87.734 108.182 87.8095 107.995 87.9407 107.941C88.0981 107.877 88.1251 107.647 88.0359 107.432C87.9133 107.137 87.6962 107.131 87.2796 107.458C86.6229 107.945 86.2498 107.563 86.8468 107.006C87.106 106.744 87.0765 106.599 86.7774 106.47C86.4783 106.341 86.2946 106.415 86.0912 106.812C85.8878 107.209 85.8091 107.241 85.653 106.865C85.5527 106.624 85.6059 106.382 85.7371 106.329C85.8946 106.265 85.9215 106.034 85.8212 105.792C85.6875 105.47 85.4966 105.454 85.0538 105.791C84.4233 106.268 84.0462 105.951 84.617 105.405C85.1051 104.955 84.4512 104.562 83.8884 104.98C83.5242 105.285 83.4757 105.242 83.5932 104.786C83.7219 104.357 83.6773 104.25 83.2844 104.19C82.8804 104.104 82.8247 103.97 82.9238 103.396C83.0539 102.527 82.5201 102.054 82.3415 102.88C82.1859 103.54 81.5194 103.56 81.252 102.916C81.1628 102.701 80.6664 102.245 80.1732 101.943C79.3363 101.406 79.2917 101.298 79.5627 100.843C79.8902 100.301 79.7762 99.6575 79.3826 99.8179C79.2252 99.882 79.0861 100.064 79.0742 100.257C79.0013 100.821 78.5408 100.82 78.3068 100.256C78.1842 99.9611 78.1888 99.6767 78.2938 99.634C78.425 99.5805 78.6101 99.0657 78.7466 98.508C78.9515 97.6714 78.9371 97.489 78.596 97.628C78.386 97.7135 78.2804 97.9762 78.3695 98.1909C78.4587 98.4057 78.3006 98.6898 78.0119 98.8074C77.7233 98.925 77.4648 98.9676 77.4314 98.8871C77.3422 98.6723 78.1749 94.6929 78.3592 94.398C78.6788 93.9854 78.343 93.6201 77.9041 93.8931C77.5853 94.0858 77.3984 94.0051 77.2352 93.5381C77.0162 92.937 76.376 92.9468 76.288 93.5475C76.2151 94.1107 75.7021 94.1315 75.6478 93.5574C75.619 93.1925 75.335 93.0258 74.6837 93.0088C74.1485 92.9759 73.6736 92.7928 73.5956 92.6049C73.5176 92.417 73.1923 92.2986 72.8702 92.3357C72.5219 92.3835 72.2268 92.1899 72.1304 91.884C71.741 90.7247 71.3719 90.2789 70.7913 90.3585C70.443 90.4063 70.1813 90.2933 70.2306 90.1163C70.2464 89.8588 69.4156 88.597 68.5165 87.614C68.3486 87.4313 68.1585 87.195 68.1139 87.0877C67.8942 86.7064 67.4712 86.722 67.6383 87.1245C67.8724 87.6882 67.4637 87.8861 67.0197 87.408C66.3705 86.7311 66.4165 86.3986 67.1735 86.1529C67.5782 86.0193 67.9679 85.9233 68.0577 85.9181C68.1588 85.9397 68.3647 85.9185 68.4959 85.865C69.1178 85.7371 70.2512 86.0284 70.7627 86.4476C71.2257 86.8238 71.2217 86.8881 70.7987 86.9036C70.005 86.9133 70.4044 87.284 71.2577 87.3442C72.0737 87.3882 72.1341 87.2381 71.639 86.3415C71.4863 86.1213 71.6771 86.1377 72.0844 86.3797C73.0072 86.9765 73.2735 86.8052 72.7745 85.9729C72.4244 85.4252 72.4434 85.3233 72.7871 85.5599C73.0337 85.7104 73.3321 86.0595 73.4324 86.3011C73.5438 86.5695 73.8166 86.7094 74.0528 86.6131C74.3414 86.4955 74.3644 86.3292 74.1369 86.0768C73.8719 85.8082 73.9809 85.701 74.6814 85.5411C75.7716 85.2851 75.809 85.3012 76.2588 86.3104C76.4968 86.8097 76.7617 87.0783 76.9716 86.9927C77.1815 86.9072 77.1934 86.7141 77.0144 86.5046C76.8091 86.3058 76.8472 86.102 77.1096 85.9951C77.3457 85.8988 77.6186 86.0387 77.7412 86.3339C77.8526 86.6023 78.1923 86.9032 78.4803 87.0056C78.7944 87.0972 79.0594 87.3658 79.0698 87.6126C79.0691 87.8326 79.1885 87.9722 79.3197 87.9188C79.4771 87.8546 79.6824 88.0534 79.7938 88.3218C79.9164 88.617 80.1813 88.8856 80.346 88.9127C80.5368 88.929 80.7755 89.2083 80.8981 89.5036C81.0096 89.772 81.2411 89.9601 81.3723 89.9066C81.5297 89.8424 81.735 90.0412 81.8576 90.3364C82.0582 90.8196 82.148 90.8143 82.4938 90.391C82.9222 89.8712 82.7827 89.018 82.3104 89.2105C82.1792 89.2639 81.97 89.1295 81.8808 88.9148C81.7917 88.7001 81.8973 88.4374 82.1073 88.3518C82.737 88.0952 82.379 87.6763 80.8692 86.848C80.1032 86.407 79.349 85.7729 79.193 85.3971C79.0481 85.0482 78.4966 84.2374 77.9707 83.6358C76.7884 82.2661 76.8947 81.7834 78.1374 83.003C78.6299 83.5241 79.2576 83.9273 79.5009 83.9223C80.5045 83.8271 83.9516 82.8931 85.631 82.2087C87.3628 81.503 88.0738 81.5898 87.1015 82.4254C86.7939 82.6449 86.0891 84.1246 85.4702 85.6634C84.4056 88.4194 84.4128 88.5106 85.1087 88.635C85.4865 88.7321 85.8938 88.9741 85.9718 89.1619C86.217 89.7524 86.6225 89.3989 86.5649 88.6692C86.5106 88.0951 86.5368 88.0844 86.929 88.3639C87.1605 88.552 87.5664 89.2339 87.8227 89.8512C88.0902 90.4954 88.9706 92.6157 89.758 94.5856C90.8167 97.1354 91.5124 98.5151 92.2842 99.4872C92.8658 100.223 93.8559 102.016 94.5325 103.498C95.4654 105.597 95.931 106.348 96.674 106.956C97.1967 107.402 98.1029 108.476 98.6878 109.367C99.2727 110.259 99.8583 110.93 99.9895 110.877C100.304 110.748 99.2992 108.993 96.959 105.647C94.8646 102.672 93.1619 98.9412 89.9256 90.1868C88.389 86.043 88.1596 85.1951 88.1829 83.7735C88.2119 82.8829 88.3984 81.9283 88.6202 81.6496C89.1051 81.0441 89.4978 78.8129 89.1613 78.6676C89.0118 78.603 88.7631 79.1123 88.555 79.7933L88.1467 81.0266L87.3243 80.6714L86.513 80.343L87.0301 79.0026C87.3058 78.2626 87.6785 77.6086 87.8622 77.5338C88.0721 77.4482 87.8708 77.1851 87.3291 76.841L86.4548 76.2872L87.0054 75.0272C87.2922 74.3141 87.4892 73.6063 87.4112 73.4184C87.3332 73.2305 87.345 73.0374 87.4762 72.9839C87.7648 72.8663 86.7514 70.204 86.3585 70.1444C85.7262 70.0255 85.8175 69.5804 86.5784 69.2703C87.0245 69.0885 87.5579 68.5259 87.8479 67.9684C88.138 67.4109 88.4614 66.9339 88.5926 66.8804C89.1699 66.6451 90.2775 67.9825 90.6996 69.4423C90.7291 69.5872 90.5321 70.2951 90.2453 71.0082C89.6868 72.3969 89.7181 73.1373 90.3303 72.5426C90.6157 72.2694 90.7016 72.3286 90.7153 72.7309C90.7217 73.0421 90.7545 73.3426 90.7768 73.3963C90.7991 73.4499 90.6377 73.5785 90.4277 73.664C90.2178 73.7496 90.0787 73.9318 90.1456 74.0928C90.3239 74.5222 90.5417 74.3079 91.152 73.1178C92.2105 71.0861 92.7636 70.2016 93.026 70.0947C93.3147 69.9771 94.4132 70.6278 98.8663 73.5202C100.503 74.5794 102.416 75.714 103.1 76.0315C104.543 76.6987 104.755 76.9887 104.379 77.7071C103.957 78.538 104.356 78.9088 105.752 79.0931C106.5 79.1961 107.466 79.3047 107.948 79.3591C108.405 79.4241 109.273 79.6667 109.849 79.8714C111.023 80.3344 111.227 80.7531 112.851 85.5515C113.27 86.8557 113.834 88.5088 114.094 89.2817C114.342 90.0278 115.14 92.2445 115.837 94.2197C116.561 96.1843 117.325 98.5404 117.561 99.4796C117.824 100.408 118.183 101.642 118.406 102.179C118.803 103.21 118.803 103.21 119.853 102.782C120.43 102.547 120.847 102.22 120.791 102.086C120.724 101.925 120.575 101.86 120.47 101.903C120.155 102.031 119.117 101.011 119.212 100.721C119.378 100.308 119.749 100.314 119.916 100.717C120.005 100.932 120.214 101.066 120.345 101.012C120.765 100.841 120.504 100.508 119.659 100.099C118.676 99.6528 118.613 99.4274 119.144 98.4893C119.675 97.5513 119.587 97.1166 118.904 97.6146C118.487 97.9412 118.465 97.8875 118.597 97.3942C118.734 96.8364 119.115 96.0537 119.622 95.2819C119.735 95.1104 119.695 94.9386 119.545 94.8741C119.422 94.7988 119.193 94.9862 119.035 95.2703C118.831 95.667 118.753 95.6991 118.608 95.3502C118.507 95.1087 118.527 94.7868 118.625 94.6528C118.99 94.1276 118.597 93.8481 118.098 94.2712C117.667 94.6354 117.648 94.5173 118.056 93.504C118.312 92.8659 118.655 92.287 118.812 92.2228C119.18 92.0731 118.99 91.6169 118.523 91.525C118.332 91.5087 118.129 91.6854 118.076 91.9267C118.049 92.1574 117.962 92.3182 117.887 92.2859C116.7 91.4205 116.547 91.2004 116.863 90.6321C117.048 90.3373 117.311 90.0105 117.468 89.9463C117.809 89.8073 118.407 87.9948 118.145 87.8818C118.059 87.8227 117.672 88.2942 117.314 88.9107C116.478 90.4438 116.086 90.1643 116.814 88.5184C117.127 87.7946 117.23 87.1563 117.039 87.1399C116.875 87.1129 116.754 87.1932 116.81 87.3274C116.866 87.4616 116.708 87.7457 116.453 87.9438C115.848 88.4097 115.67 87.9803 116.174 87.2728C116.385 86.9673 116.498 86.5759 116.42 86.388C116.231 85.9317 115.522 86.2204 115.543 86.714C115.569 86.9233 115.433 87.0411 115.258 86.9872C115.071 86.9065 115.11 86.4827 115.358 85.9734C115.856 84.9548 115.423 83.2482 114.741 83.5262C114.4 83.6652 114.378 83.6116 114.563 83.0968C114.815 82.5231 114.775 82.1314 114.429 81.5194C114.336 81.369 114.374 81.1652 114.532 81.1011C114.663 81.0476 114.894 81.2357 115.017 81.5309C115.251 82.0946 115.711 82.0952 115.784 81.532C115.822 81.3282 115.61 81.0382 115.337 80.8983C114.978 80.6993 114.9 80.5115 115.021 80.2112C115.353 79.3855 115.013 79.3045 114.404 80.0548C114.073 80.4406 113.731 80.7995 113.626 80.8423C113.285 80.9813 113.927 79.4962 114.358 79.132C114.805 78.7302 114.677 77.9039 114.204 78.0963C114.073 78.1498 113.864 78.0154 113.764 77.7738C113.608 77.3981 113.529 77.4302 113.325 77.8269C113.167 78.111 112.965 78.2877 112.826 78.25C112.703 78.1747 112.489 78.3246 112.346 78.5712C112.184 78.9197 112.094 78.9249 111.96 78.6029C111.871 78.3881 112.074 77.9914 112.424 77.7237C112.757 77.4935 113.253 76.9148 113.472 76.4805C114.131 75.3334 113.22 75.7989 112.321 77.1066C111.452 78.3393 110.626 79.0838 110.481 78.7349C110.414 78.5739 110.505 78.3487 110.655 78.1933C110.847 77.9897 110.813 77.9092 110.428 77.7209C110.006 77.5165 109.927 77.5485 109.836 77.9937C109.733 78.412 109.707 78.4227 109.671 77.9666C109.638 77.6662 109.561 77.2583 109.494 77.0973C109.442 76.8987 109.783 76.9797 110.265 77.2539L111.143 77.7434L111.576 76.9393C111.994 76.1727 111.983 76.1458 111.499 76.5314C111.109 76.8474 110.727 76.8147 110.054 76.524C109.557 76.2873 108.977 76.147 108.741 76.2432C108.19 76.4678 107.775 76.1346 108.073 75.6683C108.174 75.4699 108.693 74.9449 109.192 74.5218C110.205 73.638 112.741 70.8787 112.663 70.6908C112.641 70.6371 112.158 70.5828 111.623 70.5499C110.204 70.5318 108.126 69.5901 106.868 68.4081C105.681 67.3227 105.357 66.7643 105.65 66.3624C105.774 66.2177 105.902 66.2286 105.957 66.3628C106.024 66.5239 106.264 66.5832 106.5 66.487C106.788 66.3693 106.908 66.509 106.948 66.9007C107.118 68.7142 111.496 70.539 112.249 69.1023C112.468 68.668 112.531 68.6735 112.612 69.2369C112.652 69.6286 112.816 69.8756 112.973 69.8114C113.104 69.758 113.188 69.4416 113.144 69.1143C113.089 68.7601 113.262 68.4385 113.509 68.3691C114.356 68.1181 114.416 67.968 113.724 67.7792C113.373 67.6715 112.849 67.6654 112.613 67.7616C112.324 67.8792 112.051 67.7393 111.917 67.4173C111.472 66.3437 108.956 65.0151 107.1 64.8301C105.966 64.7588 104.934 65.5245 104.402 66.9025C103.983 67.889 102.701 69.6039 102.203 69.8071C101.861 69.9461 99.4196 69.0897 99.2859 68.7676C99.2302 68.6334 99.3693 68.4512 99.6054 68.355C99.8153 68.2695 99.8646 68.0925 99.7301 67.9904C99.5098 67.8291 99.3523 67.8933 99.2053 68.2042C99.0583 68.5152 98.5644 68.434 97.2934 67.885C94.0632 66.534 92.749 65.4377 93.8582 65.0798C94.0944 64.9836 94.0904 65.048 93.8988 65.2516C93.7637 65.3694 93.7367 65.6 93.8974 65.6915C94.2634 65.9817 94.5272 65.4348 94.2931 64.8712C94.1705 64.576 94.2618 64.1308 94.4836 63.8522C94.7054 63.5735 94.8189 63.182 94.7298 62.9673C94.6406 62.7526 94.7128 62.4094 94.8933 62.1789C95.367 61.5466 94.6405 60.4619 93.9766 60.8579C93.4852 61.1523 93.4255 61.0825 92.3491 58.1947C91.4511 55.7364 91.1757 55.221 90.712 55.0648C90.3867 54.9463 90.0581 54.6722 89.9466 54.4038C89.8463 54.1623 89.3873 53.7217 88.9426 53.4636C88.498 53.2055 88.0946 52.8991 88.05 52.7918C87.8049 52.2013 85.9921 51.3082 85.4673 51.5221C84.8638 51.768 84.8591 52.0523 85.3506 54.0487C85.5203 54.8268 85.5215 55.6423 85.2727 56.1516C84.8882 56.9987 84.9346 57.7015 85.3544 57.5305C85.4594 57.4877 85.6549 57.2197 85.7606 56.957C85.9115 56.5817 86.065 56.5819 86.5471 56.8562C86.8796 57.0658 87.2376 57.4848 87.3602 57.78C87.4939 58.1021 87.7844 58.58 87.9969 58.87C88.351 59.3533 88.3057 59.4659 87.7547 59.6904C87.1511 59.9364 87.1019 60.1133 87.3903 61.2511C87.6308 62.1259 87.6031 62.5765 87.3145 62.6941C86.7897 62.9079 83.556 62.6566 83.4446 62.3883C83.322 62.093 83.9039 61.5735 84.6911 61.2527C85.0322 61.1137 85.2651 60.8618 85.2094 60.7276C85.1425 60.5666 84.993 60.502 84.8356 60.5662C84.4157 60.7373 83.6625 58.6279 84.0417 58.285C84.4774 57.8565 84.6275 55.4104 84.2044 55.4259C83.9984 55.447 83.5591 54.6846 83.0759 53.5949C82.6413 52.5482 82.3325 51.9522 82.3914 52.242C82.413 52.5157 82.1039 53.1751 81.6493 53.7056C81.2208 54.2253 80.9045 54.7936 80.9603 54.9278C81.0271 55.0888 80.8356 55.2924 80.5469 55.41C80.2583 55.5276 80.0778 55.7581 80.1447 55.9191C80.2116 56.0801 79.736 56.117 79.1037 55.9981C78.4452 55.8899 77.7899 55.9373 77.6134 56.1033C77.1253 56.5533 76.842 56.1666 77.0206 55.3407C77.1119 54.8956 77.4577 54.4722 77.825 54.3225C78.3761 54.098 78.3951 53.9961 78.018 53.679C77.6895 53.405 77.5892 53.1634 77.7099 52.8632C77.8307 52.5629 77.6405 52.3266 76.9978 51.9609C75.9366 51.3264 75.498 50.344 76.0649 49.862C76.2938 49.6745 76.4487 49.2348 76.416 48.9343C76.3649 48.5158 76.5604 48.2479 77.1115 48.0233C77.6888 47.7881 77.9669 47.4236 78.0852 46.7479C78.355 45.4768 78.333 44.1677 78.0767 43.5504C77.8092 42.9063 78.2481 42.6333 78.7032 43.1382C78.9196 43.3639 79.1892 43.3481 79.4706 43.1393C79.7672 42.8929 79.958 42.9093 80.0695 43.1777C80.1587 43.3924 80.0339 43.757 79.7525 43.9659C79.3884 44.2712 79.3916 44.4267 79.717 44.5452C80.0534 44.6905 80.2037 44.5352 80.3966 43.8917C80.5253 43.4627 80.553 43.0121 80.4559 42.9261C80.37 42.867 80.6252 42.6688 81.0713 42.487C81.7535 42.209 81.8545 42.2306 81.9534 42.9121C82.0045 43.3306 82.186 43.9156 82.3198 44.2377C82.7249 45.1395 83.2081 46.2293 83.4271 46.8304C83.5234 47.1363 83.8408 47.3836 84.1065 47.4322C84.361 47.454 84.8423 47.9483 85.1925 48.496C86.1347 50.0262 89.2455 51.2377 90.6887 50.6496C90.8986 50.564 91.0869 50.2048 91.1218 49.8454C91.1796 49.3198 90.937 49.1048 89.7335 48.4969C88.5785 47.932 88.3732 47.7333 88.599 47.3902C88.8247 47.0472 88.8024 46.9935 88.361 46.891C87.9195 46.7884 87.8973 46.7347 88.1381 46.3542C88.5029 45.8289 89.5676 45.3637 89.7013 45.6858C89.757 45.82 90.1125 45.8634 90.5022 45.7674C90.903 45.6982 91.1693 45.5269 91.1024 45.3658C90.9241 44.9364 89.2058 43.7538 88.525 43.5919C88.1846 43.5109 87.7662 43.2421 87.5911 42.9683C87.3603 42.5602 87.4318 42.4369 87.9789 42.2767C88.9793 42.026 89.824 42.4349 90.6778 43.5305C91.1735 44.2072 91.4464 44.347 91.552 44.0843C91.9596 43.0709 89.2772 41.3397 87.7377 41.6219C86.288 41.8988 85.5206 41.8978 85.4728 41.6348C85.4321 41.4631 85.6388 41.222 85.9051 41.0507C86.5841 40.6171 91.4892 40.3128 91.8139 40.6512C92.2578 41.1293 93.499 40.498 94.0036 39.5706C94.7379 38.2358 94.7379 38.2358 95.3053 41.0799L95.4822 41.9492L95.7212 40.9732C95.8689 40.4423 96.1025 39.9705 96.2337 39.917C96.3911 39.8529 97.3188 38.91 98.322 37.7794C99.3252 36.6489 100.516 35.3791 100.978 34.9398C102.491 33.413 102.141 31.8299 99.8593 30.0295C99.2244 29.5351 97.899 28.412 96.9022 27.5629C91.7613 23.162 86.3186 19.5117 82.6732 18.0474L81.2375 17.4714L66.8844 23.3204L52.5314 29.1694L52.9103 30.0819ZM64.2882 47.2865C64.3439 47.4207 64.3471 47.5763 64.2947 47.5977C64.2159 47.6297 64.029 47.549 63.8946 47.4469C63.749 47.3179 63.7569 47.1892 63.8881 47.1357C64.0455 47.0716 64.2213 47.1255 64.2882 47.2865ZM69.2526 51.8535C69.3083 51.9877 69.2591 52.1647 69.1016 52.2288C68.9704 52.2823 68.7835 52.2015 68.7278 52.0673C68.6609 51.9063 68.7475 51.7455 68.8787 51.692C69.0362 51.6279 69.1857 51.6925 69.2526 51.8535ZM72.0007 52.9303C72.1351 53.0324 72.0859 53.2094 71.876 53.2949C71.6398 53.3911 71.4004 53.3318 71.3447 53.1976C71.2778 53.0366 71.3382 52.8864 71.4694 52.833C71.6268 52.7688 71.8551 52.8013 72.0007 52.9303ZM57.5604 67.2877C57.6161 67.4219 57.9605 67.4384 58.3279 67.2887C58.6952 67.139 59.0284 67.1288 59.0842 67.263C59.229 67.6119 58.2949 68.2436 57.9774 67.9964C57.4134 67.5986 57.4591 68.5214 58.0247 70.77C58.3425 72.0527 58.5227 73.0776 58.3843 73.0398C58.2571 73.0289 58.1082 72.7444 58.0643 72.4171C57.9766 71.7625 57.5909 71.7941 57.3343 72.4322C56.9871 73.2954 56.6718 72.3883 56.9967 71.4714C57.3859 70.34 57.3237 69.8946 56.7464 70.1298C56.1429 70.3758 56.1181 69.9466 56.5907 68.4987C57.0291 67.1904 57.3487 66.7777 57.5604 67.2877ZM76.5842 59.5353C76.7186 59.6375 76.7219 59.793 76.5907 59.8465C76.4332 59.9107 76.2463 59.8299 76.1906 59.6957C76.1237 59.5347 76.1316 59.406 76.1841 59.3846C76.2628 59.3525 76.4386 59.4064 76.5842 59.5353ZM61.1352 67.4C61.1122 67.5662 60.8984 67.7161 60.6439 67.6943C60.0148 67.731 60.0004 67.5486 60.6564 67.2813C60.9451 67.1636 61.1733 67.1961 61.1352 67.4ZM59.1005 70.3316C59.1563 70.4658 59.185 70.8307 59.1764 71.1794C59.1671 71.748 59.1297 71.7319 58.8511 71.0609C58.6577 70.669 58.6552 70.2935 58.7864 70.24C58.9438 70.1758 59.0822 70.2136 59.1005 70.3316ZM54.7804 73.8181C55.3031 74.2641 55.3143 74.2909 54.7758 74.1024C54.4354 74.0214 54.1403 73.8279 54.0845 73.6937C53.9174 73.2911 54.2092 73.3291 54.7804 73.8181ZM56.3174 73.1603C56.3732 73.2945 56.2341 73.4767 56.0241 73.5623C55.6306 73.7227 55.3656 73.4541 55.5317 73.0412C55.6524 72.741 56.1726 72.8114 56.3174 73.1603ZM81.9575 62.6491C82.1254 62.8317 82.065 62.9818 81.8217 62.9868C81.6157 63.008 81.3166 62.8788 81.1861 62.7124C81.0183 62.5297 81.0786 62.3796 81.322 62.3746C81.528 62.3534 81.827 62.4826 81.9575 62.6491ZM50.5329 75.7059C50.3859 76.0168 48.635 76.8245 48.5458 76.6098C48.4901 76.4756 48.828 76.181 49.278 75.9348C50.0993 75.4746 50.6425 75.3788 50.5329 75.7059ZM88.3187 60.0882C88.3744 60.2224 88.3776 60.378 88.3252 60.3994C88.2464 60.4315 88.0595 60.3507 87.9251 60.2486C87.7795 60.1197 87.7874 59.9909 87.9186 59.9374C88.076 59.8733 88.2518 59.9272 88.3187 60.0882ZM58.7845 75.4814C58.8888 75.6585 58.8507 75.8624 58.6933 75.9265C58.5621 75.98 58.2637 75.6309 58.0893 75.137C57.7884 74.4124 57.8186 74.3373 58.1917 74.7187C58.4455 74.9605 58.7177 75.3203 58.7845 75.4814ZM59.5706 74.3451C59.6263 74.4793 59.5659 74.6295 59.4085 74.6936C59.2773 74.7471 59.0681 74.6127 58.9678 74.3711C58.8786 74.1564 58.9652 73.9956 59.1299 74.0226C59.3208 74.039 59.5037 74.1841 59.5706 74.3451ZM47.6118 79.5322C47.6675 79.6664 47.476 79.87 47.1873 79.9877C46.8987 80.1053 46.5838 80.2336 46.49 80.3032C46.385 80.346 46.2093 80.2921 46.1011 80.1793C46.0191 80.0558 46.2894 79.8201 46.7243 79.6115C47.1441 79.4404 47.5561 79.398 47.6118 79.5322ZM85.8682 65.4174C86.3449 66.1959 85.782 66.6136 84.4761 66.424C83.8661 66.3588 83.0279 66.261 82.6087 66.2122C81.3776 66.0549 82.1019 65.5087 83.9149 65.1464C85.2596 64.9122 85.6151 64.9556 85.8682 65.4174ZM93.9651 62.0864C93.8293 62.4242 93.6226 62.6654 93.4842 62.6276C93.1104 62.4661 93.3296 61.8119 93.8019 61.6195C94.1955 61.4591 94.2067 61.4859 93.9651 62.0864ZM57.1908 77.4802C57.2466 77.6144 57.2498 77.77 57.1973 77.7914C57.1186 77.8234 56.9317 77.7427 56.7972 77.6406C56.6517 77.5116 56.6596 77.3829 56.7907 77.3294C56.9482 77.2653 57.124 77.3192 57.1908 77.4802ZM45.9909 83.0171C46.1135 83.3123 46.0754 83.5161 45.8845 83.4997C45.7199 83.4727 45.4549 83.2041 45.3323 82.9089C45.2098 82.6136 45.2741 82.3991 45.4387 82.4262C45.6296 82.4425 45.8683 82.7218 45.9909 83.0171ZM94.0731 63.4546C93.9674 63.7173 93.8473 63.7976 93.7805 63.6366C93.6244 63.2608 93.8056 62.8105 94.0673 62.9235C94.1532 62.9826 94.1636 63.2294 94.0731 63.4546ZM71.6952 75.8374C72.8861 76.8584 73.9459 77.9328 74.0462 78.1743C74.1576 78.4427 74.3366 78.6522 74.4901 78.6524C74.6062 78.6365 75.2141 79.3616 75.8777 80.2209C76.7276 81.3809 76.9655 81.8801 76.8114 82.0998C76.4465 82.6251 76.3455 82.6035 75.9627 81.7553C75.7469 81.3097 75.3292 80.821 74.9816 80.6488C74.0398 80.1539 68.4646 73.4509 69.3356 73.8491C69.4366 73.8707 70.4931 74.7896 71.6952 75.8374ZM44.8871 85.1614C46.1054 86.9872 46.1985 87.1375 45.7427 86.8525C45.5224 86.6913 45.1906 86.2616 45.0234 85.859C44.8674 85.4833 44.5579 85.1073 44.2962 84.9943C43.9597 84.849 43.9263 84.7685 44.1624 84.6722C44.3199 84.6081 44.6524 84.8178 44.8871 85.1614ZM75.8585 72.1952C75.8808 72.2488 75.6368 72.4738 75.2917 72.6772C74.9578 72.9074 74.6468 72.9714 74.6023 72.864C74.5465 72.7298 74.7906 72.5048 75.1579 72.3551C75.5253 72.2054 75.8362 72.1415 75.8585 72.1952ZM84.4907 68.8972C84.9425 69.2465 84.5508 70.0024 84.0274 69.7763C83.5788 69.5826 83.5546 68.9334 83.9482 68.773C84.0794 68.7196 84.3188 68.7789 84.4907 68.8972ZM39.9573 87.3273C39.9343 87.4935 39.7801 87.7133 39.6489 87.7667C39.4915 87.8309 39.4095 87.7074 39.4325 87.5411C39.4444 87.348 39.6097 87.1551 39.7409 87.1016C39.8983 87.0375 39.9692 87.1342 39.9573 87.3273ZM42.0479 86.8205C42.1036 86.9547 42.0432 87.1049 41.8858 87.169C41.7546 87.2225 41.5454 87.0881 41.4451 86.8465C41.3559 86.6318 41.4425 86.471 41.6072 86.498C41.798 86.5144 41.981 86.6595 42.0479 86.8205ZM49.1707 83.7297C49.3386 83.9123 49.3641 84.1216 49.2329 84.175C49.0755 84.2392 48.8925 84.0941 48.8033 83.8794C48.7142 83.6646 48.6886 83.4554 48.7411 83.434C48.7936 83.4126 48.9766 83.5577 49.1707 83.7297ZM46.4016 85.7054C46.412 85.9522 46.2998 85.9037 46.1772 85.6085C46.0284 85.324 46.0403 85.1309 46.1636 85.2061C46.2757 85.2546 46.4023 85.4854 46.4016 85.7054ZM48.4457 84.4958C48.5014 84.63 48.5047 84.7856 48.4522 84.807C48.3735 84.8391 48.1866 84.7583 48.0521 84.6562C47.9065 84.5272 47.9144 84.3985 48.0456 84.345C48.2031 84.2809 48.3788 84.3348 48.4457 84.4958ZM46.1045 88.4625C46.1825 88.6503 46.4172 88.994 46.6074 89.2303C46.8723 89.4989 46.8795 89.5901 46.5916 89.4878C46.3935 89.3802 45.8859 88.8967 45.4833 88.3704C44.8459 87.5004 44.8236 87.4467 45.3542 87.764C45.6867 87.9737 46.0264 88.2746 46.1045 88.4625ZM49.6392 85.8923C49.6949 86.0265 49.6982 86.1821 49.6457 86.2035C49.567 86.2356 49.38 86.1548 49.2456 86.0527C49.1 85.9238 49.1079 85.795 49.2391 85.7415C49.3965 85.6774 49.5723 85.7313 49.6392 85.8923ZM51.1543 86.2163C51.2888 86.3184 51.292 86.474 51.1608 86.5275C51.0034 86.5916 50.8164 86.5109 50.7607 86.3767C50.6939 86.2157 50.7018 86.0869 50.7542 86.0655C50.833 86.0335 51.0087 86.0874 51.1543 86.2163ZM49.2978 87.2867C49.3535 87.4209 49.3043 87.5978 49.1468 87.662C49.0156 87.7155 48.8287 87.6347 48.773 87.5005C48.7061 87.3395 48.7927 87.1787 48.9239 87.1252C49.0814 87.0611 49.2309 87.1256 49.2978 87.2867ZM54.3279 85.3624C54.3613 85.4429 54.3121 85.6199 54.1881 85.7646C54.0903 85.8985 53.9369 85.8983 53.8811 85.7641C53.8143 85.6031 53.8897 85.4154 54.0209 85.362C54.1784 85.2978 54.3056 85.3087 54.3279 85.3624ZM44.178 91.507C44.031 91.8179 43.8106 91.6567 43.2591 90.8458L42.7674 90.1048L43.4993 90.6852C43.9137 91.0184 44.2121 91.3675 44.178 91.507ZM47.6839 88.572C47.7396 88.7062 47.6904 88.8831 47.533 88.9473C47.4018 89.0008 47.2148 88.92 47.1591 88.7858C47.0923 88.6248 47.1789 88.464 47.3101 88.4105C47.4675 88.3463 47.617 88.4109 47.6839 88.572ZM51.0753 87.5038C51.2098 87.6059 51.213 87.7615 51.0818 87.8149C50.9244 87.8791 50.7374 87.7983 50.6817 87.6641C50.6149 87.5031 50.6228 87.3744 50.6752 87.353C50.754 87.3209 50.9297 87.3748 51.0753 87.5038ZM56.848 85.1513C56.9825 85.2534 56.9857 85.409 56.8545 85.4625C56.6971 85.5266 56.5102 85.4459 56.4544 85.3117C56.3876 85.1507 56.3955 85.0219 56.448 85.0006C56.5267 84.9685 56.7025 85.0224 56.848 85.1513ZM54.8603 86.2751C54.9948 86.3773 54.998 86.5328 54.8668 86.5863C54.7094 86.6505 54.5224 86.5697 54.4667 86.4355C54.3999 86.2745 54.4078 86.1458 54.4602 86.1244C54.539 86.0923 54.7147 86.1462 54.8603 86.2751ZM48.3357 89.6244C48.3461 89.8712 48.234 89.8227 48.1114 89.5275C47.9625 89.2429 47.9744 89.0498 48.0977 89.1251C48.2098 89.1736 48.3364 89.4044 48.3357 89.6244ZM86.8307 73.498C86.9755 73.847 86.761 74.2168 86.4317 74.1627C86.1024 74.1086 86.138 73.5293 86.5053 73.3796C86.6365 73.3261 86.7861 73.3907 86.8307 73.498ZM47.3425 89.9663C47.3982 90.1005 47.349 90.2775 47.1916 90.3416C47.0604 90.3951 46.8735 90.3144 46.8177 90.1802C46.7509 90.0191 46.8375 89.8583 46.9687 89.8049C47.1261 89.7407 47.2757 89.8053 47.3425 89.9663ZM55.7583 86.4427C55.6231 86.5605 55.5962 86.7912 55.7568 86.8826C55.8913 86.9847 55.8571 87.1242 55.7259 87.1776C55.4111 87.3059 55.2137 86.9784 55.3647 86.6031C55.3988 86.4637 55.5753 86.2976 55.7439 86.2603C55.9013 86.1961 55.9085 86.2873 55.7583 86.4427ZM107.169 65.5866C107.225 65.7208 107.149 65.9085 106.992 65.9726C106.861 66.0261 106.752 65.9133 106.775 65.747C106.787 65.5539 106.874 65.3931 106.953 65.361C107.005 65.3396 107.102 65.4256 107.169 65.5866ZM58.3348 86.1459C58.4017 86.3069 58.3079 86.3765 58.117 86.3602C57.9524 86.3331 57.732 86.1719 57.6763 86.0377C57.6094 85.8766 57.7295 85.7963 57.8941 85.8234C58.085 85.8397 58.2791 86.0117 58.3348 86.1459ZM48.9888 90.2369C49.0446 90.3711 48.9953 90.548 48.8379 90.6122C48.7067 90.6656 48.5198 90.5849 48.4641 90.4507C48.3972 90.2897 48.4838 90.1289 48.615 90.0754C48.7724 90.0112 48.922 90.0758 48.9888 90.2369ZM48.2462 90.665C48.2797 90.7455 48.2304 90.9225 48.1064 91.0672C48.0087 91.2012 47.8552 91.2009 47.7995 91.0667C47.7326 90.9057 47.8081 90.718 47.9393 90.6646C48.0967 90.6004 48.2239 90.6113 48.2462 90.665ZM32.156 97.724C32.2117 97.8582 32.0313 98.0886 31.7164 98.2169C31.4278 98.3346 31.2146 98.2645 31.2376 98.0983C31.2494 97.9051 31.4673 97.6909 31.6772 97.6053C31.8871 97.5198 32.0891 97.563 32.156 97.724ZM59.5383 86.7538C60.0879 86.9691 60.1325 87.0765 60.0812 87.9133C60.0482 88.8682 60.3498 89.3729 60.8746 89.1591C61.0058 89.1056 61.0176 88.9125 60.8497 88.7298C60.6819 88.5472 60.5816 88.3057 60.6268 88.1931C60.7889 87.8446 61.7674 88.5756 62.0834 89.2627C62.3398 89.88 62.3247 89.9175 61.6255 89.6376C61.2254 89.4868 60.8548 89.4809 60.7833 89.6042C60.7492 89.7436 60.4533 89.7701 60.1654 89.6677C59.8886 89.5922 59.4019 89.6023 59.1133 89.7199C58.8246 89.8375 58.4691 89.7941 58.3013 89.6115C58.1222 89.402 58.2049 89.3055 58.6805 89.2687C59.1823 89.2211 59.2538 89.0978 59.0643 88.6415C58.9194 88.2926 58.9575 88.0888 59.1969 88.1481C59.4626 88.1968 59.4259 87.9607 59.102 87.4023C58.5807 86.5164 58.626 86.4038 59.5383 86.7538ZM51.8803 89.8117C51.9137 89.8922 51.8645 90.0692 51.7405 90.2139C51.6427 90.3479 51.4892 90.3477 51.4335 90.2135C51.3666 90.0524 51.4421 89.8648 51.5733 89.8113C51.7308 89.7471 51.858 89.758 51.8803 89.8117ZM49.8282 91.15C49.9627 91.2522 49.9659 91.4077 49.8347 91.4612C49.6773 91.5254 49.4904 91.4446 49.4346 91.3104C49.3678 91.1494 49.3757 91.0207 49.4282 90.9993C49.5069 90.9672 49.6827 91.0211 49.8282 91.15ZM58.0175 88.1894C57.9119 88.4521 57.7918 88.5324 57.725 88.3714C57.5689 87.9957 57.7501 87.5453 58.0118 87.6583C58.0977 87.7174 58.1081 87.9642 58.0175 88.1894ZM40.7052 95.7778C40.8396 95.8799 40.8651 96.0892 40.7523 96.2607C40.6545 96.3947 40.4787 96.3408 40.3896 96.1261C40.189 95.643 40.313 95.4983 40.7052 95.7778ZM34.1367 98.7997C34.1924 98.9339 34.1169 99.1216 33.9595 99.1857C33.8283 99.2392 33.7201 99.1264 33.7431 98.9601C33.7549 98.767 33.8415 98.6062 33.9202 98.5741C33.9727 98.5527 34.0698 98.6387 34.1367 98.7997ZM40.032 96.7425C40.0988 96.9036 40.005 96.9732 39.8141 96.9568C39.6495 96.9298 39.4292 96.7685 39.3734 96.6343C39.3066 96.4733 39.4266 96.393 39.5913 96.42C39.7821 96.4364 39.9762 96.6083 40.032 96.7425ZM46.4693 93.7741C46.525 93.9083 46.4758 94.0852 46.3183 94.1494C46.1871 94.2029 46.0002 94.1221 45.9445 93.9879C45.8776 93.8269 45.9642 93.6661 46.0954 93.6126C46.2529 93.5485 46.4024 93.613 46.4693 93.7741ZM49.7295 92.7593C49.7852 92.8935 49.736 93.0705 49.5785 93.1347C49.4473 93.1881 49.2604 93.1074 49.2047 92.9732C49.1378 92.8122 49.2244 92.6513 49.3556 92.5979C49.5131 92.5337 49.6626 92.5983 49.7295 92.7593ZM53.2521 91.6377C53.3078 91.7719 53.2586 91.9488 53.1011 92.013C52.9699 92.0664 52.783 91.9857 52.7273 91.8515C52.6604 91.6905 52.747 91.5297 52.8782 91.4762C53.0357 91.412 53.1852 91.4766 53.2521 91.6377ZM54.1784 91.1347C54.1331 91.2473 53.9081 91.3703 53.691 91.3647C53.4476 91.3697 53.4929 91.2571 53.7815 91.1395C54.059 90.995 54.2499 91.0114 54.1784 91.1347ZM32.8966 100.246C32.9523 100.381 32.9556 100.536 32.9031 100.558C32.8244 100.59 32.6375 100.509 32.503 100.407C32.3574 100.278 32.3653 100.149 32.4965 100.096C32.654 100.032 32.8297 100.085 32.8966 100.246ZM42.9522 96.6822C42.8012 97.0576 42.3979 96.7512 42.4892 96.3061C42.524 95.9467 42.5765 95.9253 42.8041 96.1777C42.9346 96.3442 42.9975 96.5696 42.9522 96.6822ZM43.7099 96.2166C43.7203 96.4634 43.6082 96.4149 43.4856 96.1197C43.3368 95.8351 43.3486 95.642 43.4719 95.7173C43.5841 95.7657 43.7106 95.9966 43.7099 96.2166ZM48.1156 94.0446C48.1713 94.1788 48.1221 94.3558 47.9647 94.4199C47.8335 94.4734 47.6465 94.3927 47.5908 94.2585C47.524 94.0974 47.6106 93.9366 47.7418 93.8832C47.8992 93.819 48.0487 93.8836 48.1156 94.0446ZM40.7488 97.3605C40.8832 97.4626 40.8864 97.6182 40.7553 97.6716C40.5978 97.7358 40.4109 97.6551 40.3552 97.5209C40.2883 97.3598 40.2962 97.2311 40.3487 97.2097C40.4274 97.1776 40.6032 97.2315 40.7488 97.3605ZM41.9295 96.8793C41.9853 97.0135 41.936 97.1905 41.7786 97.2546C41.6474 97.3081 41.4605 97.2274 41.4048 97.0932C41.3379 96.9321 41.4245 96.7713 41.5557 96.7178C41.7131 96.6537 41.8627 96.7183 41.9295 96.8793ZM55.6968 91.6143C55.7636 91.7753 55.6698 91.8449 55.4789 91.8285C55.3143 91.8015 55.0939 91.6402 55.0382 91.506C54.9714 91.345 55.0914 91.2647 55.256 91.2918C55.4469 91.3081 55.641 91.4801 55.6968 91.6143ZM56.604 91.2132C56.7384 91.3153 56.7417 91.4709 56.6105 91.5243C56.4531 91.5885 56.2661 91.5078 56.2104 91.3736C56.1435 91.2125 56.1514 91.0838 56.2039 91.0624C56.2826 91.0303 56.4584 91.0842 56.604 91.2132ZM49.6951 94.1541C49.7285 94.2346 49.6793 94.4116 49.5553 94.5563C49.4575 94.6903 49.304 94.6901 49.2483 94.5559C49.1814 94.3948 49.2569 94.2072 49.3881 94.1537C49.5455 94.0895 49.6728 94.1004 49.6951 94.1541ZM44.6255 96.7221C44.6812 96.8563 44.6844 97.0119 44.6319 97.0333C44.5532 97.0654 44.3663 96.9846 44.2319 96.8825C44.0863 96.7536 44.0942 96.6248 44.2254 96.5714C44.3828 96.5072 44.5586 96.5611 44.6255 96.7221ZM59.7212 90.445C59.6759 90.5576 59.4509 90.6807 59.2337 90.675C58.9904 90.68 59.0357 90.5674 59.3243 90.4498C59.6018 90.3053 59.7927 90.3217 59.7212 90.445ZM38.9535 100.352C38.851 100.77 38.7454 101.033 38.7008 100.925C38.5782 100.63 38.8067 99.4071 38.9674 99.4985C39.0422 99.5308 39.0447 99.9064 38.9535 100.352ZM41.6327 98.381C41.6662 98.4615 41.6169 98.6385 41.4929 98.7832C41.3952 98.9172 41.2417 98.9169 41.186 98.7828C41.1191 98.6217 41.1946 98.4341 41.3258 98.3806C41.4832 98.3164 41.6104 98.3273 41.6327 98.381ZM56.3938 92.5541C56.4495 92.6883 56.3741 92.8759 56.2166 92.9401C56.0854 92.9935 55.9772 92.8807 56.0002 92.7145C56.0121 92.5213 56.0987 92.3605 56.1774 92.3284C56.2299 92.3071 56.3269 92.393 56.3938 92.5541ZM37.8442 100.709C37.8324 100.903 37.6447 101.042 37.4539 101.025C37.2518 100.982 37.2224 100.837 37.3654 100.591C37.6738 100.151 37.9243 100.237 37.8442 100.709ZM45.596 97.5818C45.6518 97.716 45.6025 97.893 45.4451 97.9572C45.3139 98.0106 45.127 97.9299 45.0713 97.7957C45.0044 97.6347 45.091 97.4738 45.2222 97.4204C45.3796 97.3562 45.5292 97.4208 45.596 97.5818ZM48.8516 96.8514C48.7715 97.3234 47.5494 97.8528 47.3933 97.4771C47.3265 97.316 47.518 97.1124 47.8067 96.9948C48.0953 96.8772 48.2757 96.6468 48.1977 96.4589C48.0974 96.2173 48.1761 96.1852 48.4752 96.3144C48.6995 96.4113 48.8634 96.6583 48.8516 96.8514ZM54.3863 93.9997C53.8116 94.6105 53.6017 94.6961 53.4679 94.374C53.4011 94.213 53.6714 93.9773 54.1023 93.833C54.7321 93.5764 54.7695 93.5926 54.3863 93.9997ZM52.9234 94.9097C53.0578 95.0118 53.0611 95.1674 52.9299 95.2209C52.7725 95.285 52.5855 95.2043 52.5298 95.0701C52.4629 94.9091 52.4708 94.7803 52.5233 94.7589C52.602 94.7269 52.7778 94.7807 52.9234 94.9097ZM40.3086 100.364C40.3643 100.498 40.3151 100.675 40.1577 100.739C40.0265 100.793 39.8396 100.712 39.7838 100.578C39.717 100.417 39.8036 100.256 39.9348 100.203C40.0922 100.139 40.2417 100.203 40.3086 100.364ZM51.3095 96.195C51.444 96.2971 51.4472 96.4527 51.316 96.5062C51.1586 96.5703 50.9717 96.4896 50.9159 96.3554C50.8491 96.1943 50.857 96.0656 50.9094 96.0442C50.9882 96.0121 51.1639 96.066 51.3095 96.195ZM60.5275 92.3131C61.4937 92.2017 61.4701 92.588 60.4959 92.828C60.0538 92.9454 59.6196 92.9341 59.5639 92.7999C59.4524 92.5315 59.6249 92.4298 60.5275 92.3131ZM46.173 98.602C46.3075 98.7041 46.3107 98.8597 46.1795 98.9131C46.0221 98.9773 45.8352 98.8965 45.7794 98.7623C45.7126 98.6013 45.7205 98.4726 45.773 98.4512C45.8517 98.4191 46.0275 98.473 46.173 98.602ZM50.6252 97.1329C50.6809 97.2671 50.6205 97.4172 50.4631 97.4814C50.3319 97.5348 50.1227 97.4004 50.0224 97.1588C49.9332 96.9441 50.0198 96.7833 50.1845 96.8104C50.3753 96.8267 50.5583 96.9718 50.6252 97.1329ZM39.2641 101.543C39.2975 101.623 39.2483 101.8 39.1243 101.945C39.0265 102.079 38.8731 102.079 38.8173 101.945C38.7505 101.784 38.8259 101.596 38.9571 101.542C39.1146 101.478 39.2418 101.489 39.2641 101.543ZM45.3661 99.2446C45.4218 99.3788 45.3726 99.5558 45.2152 99.6199C45.084 99.6734 44.897 99.5927 44.8413 99.4585C44.7744 99.2974 44.8611 99.1366 44.9923 99.0831C45.1497 99.019 45.2992 99.0836 45.3661 99.2446ZM49.792 97.7862C49.769 97.9525 49.6076 98.081 49.4318 98.0271C49.2672 98.0001 49.1367 97.8336 49.1859 97.6566C49.2089 97.4903 49.3703 97.3618 49.5461 97.4157C49.7107 97.4427 49.8412 97.6092 49.792 97.7862ZM44.428 99.9407C44.4837 100.075 44.4869 100.23 44.4345 100.252C44.3557 100.284 44.1688 100.203 44.0344 100.101C43.8888 99.9721 43.8967 99.8434 44.0279 99.7899C44.1853 99.7258 44.3611 99.7797 44.428 99.9407ZM48.7464 98.1495C48.8808 98.2517 48.9063 98.4609 48.7935 98.6324C48.6957 98.7664 48.5199 98.7125 48.4308 98.4978C48.2302 98.0147 48.3542 97.87 48.7464 98.1495ZM53.087 96.4121C53.1428 96.5463 53.0935 96.7232 52.9361 96.7874C52.8049 96.8409 52.618 96.7601 52.5623 96.6259C52.4954 96.4649 52.582 96.3041 52.7132 96.2506C52.8706 96.1864 53.0202 96.251 53.087 96.4121ZM60.9392 93.5261C61.0736 93.6282 61.1031 93.7731 60.9457 93.8372C60.8145 93.8907 60.5488 93.842 60.4144 93.7399C60.2688 93.611 60.2505 93.4929 60.4079 93.4288C60.5391 93.3753 60.7936 93.3971 60.9392 93.5261ZM42.6631 101.601C42.7857 101.897 42.7024 102.213 42.4924 102.298C42.1513 102.438 42.1179 102.357 42.1908 101.794C42.2519 101.424 42.3353 101.107 42.3615 101.097C42.414 101.075 42.5405 101.306 42.6631 101.601ZM40.6085 102.564C40.642 102.645 40.5927 102.822 40.4687 102.966C40.371 103.1 40.2175 103.1 40.1618 102.966C40.0949 102.805 40.1704 102.617 40.3016 102.564C40.459 102.5 40.5863 102.51 40.6085 102.564ZM41.725 102.297C41.7807 102.432 41.7315 102.609 41.5741 102.673C41.4429 102.726 41.2559 102.645 41.2002 102.511C41.1333 102.35 41.22 102.189 41.3512 102.136C41.5086 102.072 41.6581 102.136 41.725 102.297ZM44.5913 102.698C44.628 102.935 44.4961 103.208 44.2862 103.293C44.0763 103.379 43.8671 103.245 43.8304 103.009C43.7937 102.772 43.6416 102.332 43.519 102.037C43.2699 101.511 43.2699 101.511 43.8864 101.887C44.2189 102.097 44.5173 102.446 44.5913 102.698ZM57.3178 96.257C57.3736 96.3912 57.2456 96.6003 57.0357 96.6858C56.8258 96.7714 56.5864 96.712 56.5307 96.5778C56.4638 96.4168 56.6029 96.2346 56.8128 96.149C57.0227 96.0635 57.251 96.096 57.3178 96.257ZM58.6751 95.6098C58.5137 95.7383 58.1464 95.888 57.8879 95.9306C57.5921 95.957 57.7272 95.8392 58.1471 95.6681C58.5931 95.4863 58.7991 95.4651 58.6751 95.6098ZM62.161 94.252C62.3296 94.2147 62.3217 94.3434 62.1938 94.5525C61.8742 94.9651 60.5892 95.2691 60.4555 94.9471C60.3774 94.7592 60.7186 94.6202 62.161 94.252ZM51.974 99.1251C51.9844 99.3719 51.8723 99.3234 51.7497 99.0282C51.6008 98.7437 51.6127 98.5505 51.736 98.6258C51.8481 98.6743 51.9747 98.9051 51.974 99.1251ZM66.3113 93.5336C66.7369 93.8936 66.7441 93.9848 66.2718 94.1773C65.9831 94.2949 65.7916 94.4985 65.8584 94.6595C65.9142 94.7937 65.8649 94.9707 65.7075 95.0349C65.3401 95.1846 64.9986 94.2882 65.225 93.7252C65.4816 93.0871 65.7401 93.0446 66.3113 93.5336ZM43.3286 103.056C43.3843 103.19 43.32 103.405 43.1848 103.523C43.0497 103.64 42.8516 103.533 42.7513 103.291C42.651 103.05 42.7153 102.835 42.8951 102.825C43.0748 102.814 43.2729 102.922 43.3286 103.056ZM42.2154 103.478C42.2488 103.559 42.1996 103.736 42.0756 103.881C41.9778 104.015 41.8243 104.014 41.7686 103.88C41.7017 103.719 41.7772 103.531 41.9084 103.478C42.0658 103.414 42.1931 103.425 42.2154 103.478ZM59.8628 96.4752C59.9185 96.6094 59.9218 96.765 59.8693 96.7863C59.7906 96.8184 59.6037 96.7377 59.4692 96.6356C59.3236 96.5066 59.3315 96.3779 59.4627 96.3244C59.6202 96.2603 59.7959 96.3141 59.8628 96.4752ZM61.7665 95.8877C61.8556 96.1024 61.7952 96.2526 61.6044 96.2362C61.4397 96.2091 61.2305 96.0747 61.1636 95.9137C61.1079 95.7795 61.1945 95.6187 61.3257 95.5652C61.4832 95.5011 61.6661 95.6462 61.7665 95.8877ZM58.1375 97.4921C58.1932 97.6263 58.0653 97.8353 57.8553 97.9209C57.6454 98.0064 57.406 97.9471 57.3503 97.8129C57.2834 97.6518 57.4225 97.4696 57.6324 97.3841C57.8424 97.2985 58.0706 97.331 58.1375 97.4921ZM63.6478 95.2466C63.7035 95.3808 63.6543 95.5577 63.4969 95.6219C63.3657 95.6754 63.1787 95.5946 63.123 95.4604C63.0561 95.2994 63.1428 95.1386 63.274 95.0851C63.4314 95.021 63.5809 95.0855 63.6478 95.2466ZM57.1325 98.0271C57.1659 98.1077 57.1167 98.2846 56.9927 98.4293C56.8949 98.5633 56.7414 98.5631 56.6857 98.4289C56.6188 98.2678 56.6943 98.0802 56.8255 98.0267C56.9829 97.9626 57.1102 97.9735 57.1325 98.0271ZM46.664 103.109C46.7866 103.404 46.1108 103.993 45.7816 103.939C45.2241 103.853 45.44 103.043 46.0205 102.963C46.3164 102.937 46.6194 103.002 46.664 103.109ZM45.1374 104.014C45.3053 104.196 45.2449 104.346 45.0016 104.351C44.7956 104.373 44.4965 104.243 44.366 104.077C44.1982 103.894 44.2585 103.744 44.5019 103.739C44.7079 103.718 45.0069 103.847 45.1374 104.014ZM55.4543 99.5269C55.5887 99.6291 55.5395 99.806 55.3033 99.9023C55.0672 99.9985 54.9065 99.9071 54.9295 99.7408C54.9413 99.5477 55.0279 99.3869 55.0804 99.3655C55.1329 99.3441 55.3087 99.398 55.4543 99.5269ZM62.4189 96.7202C62.4746 96.8544 62.2306 97.0793 61.8632 97.229C61.4959 97.3787 61.1627 97.389 61.1069 97.2548C61.0512 97.1206 61.2953 96.8956 61.6626 96.7459C62.03 96.5962 62.3632 96.586 62.4189 96.7202ZM57.992 99.6539C57.8411 100.029 57.4378 99.7228 57.529 99.2777C57.5639 98.9183 57.6164 98.8969 57.8439 99.1494C57.9744 99.3159 58.0373 99.5413 57.992 99.6539ZM46.6964 104.665C46.7522 104.799 46.7554 104.955 46.7029 104.976C46.6242 105.008 46.4373 104.927 46.3028 104.825C46.1573 104.696 46.1652 104.568 46.2964 104.514C46.4538 104.45 46.6296 104.504 46.6964 104.665ZM53.2563 101.992C53.3121 102.126 53.2628 102.303 53.1054 102.367C52.9742 102.42 52.7873 102.34 52.7316 102.206C52.6647 102.044 52.7513 101.884 52.8825 101.83C53.0399 101.766 53.1895 101.831 53.2563 101.992ZM61.5218 98.6234C61.4988 98.7897 61.3709 98.9987 61.2135 99.0629C61.0823 99.1164 60.9216 99.0249 60.8658 98.8907C60.799 98.7297 60.9381 98.5475 61.1742 98.4512C61.3841 98.3657 61.5337 98.4303 61.5218 98.6234ZM51.3801 103.384C51.4358 103.518 51.3603 103.706 51.2029 103.77C51.0717 103.823 50.9635 103.711 50.9865 103.544C50.9983 103.351 51.0849 103.19 51.1637 103.158C51.2161 103.137 51.3132 103.223 51.3801 103.384ZM59.9723 99.6942C60.0949 99.9894 59.6409 100.3 59.3832 100.123C59.2487 100.02 59.298 99.8435 59.5079 99.7579C59.744 99.6617 59.95 99.6405 59.9723 99.6942ZM58.7718 100.497C58.8052 100.578 58.756 100.755 58.632 100.899C58.5342 101.033 58.3807 101.033 58.325 100.899C58.2581 100.738 58.3336 100.55 58.4648 100.497C58.6222 100.433 58.7495 100.444 58.7718 100.497ZM113.738 78.8199C113.241 79.6186 112.919 79.6557 113.236 78.8675C113.35 78.4761 113.598 78.1867 113.762 78.2138C113.927 78.2408 113.911 78.4983 113.738 78.8199ZM48.9528 105.001C49.2709 105.028 49.9471 105.474 50.4284 105.968C50.9097 106.463 51.4252 106.817 51.6089 106.743C51.8451 106.646 51.8523 106.738 51.6679 107.032C51.2164 107.718 51.0407 107.664 50.2839 106.655C49.8813 106.129 49.2465 105.634 48.9061 105.553C47.791 105.38 47.8489 104.854 48.9528 105.001ZM53.9645 102.958C54.0203 103.092 53.9448 103.28 53.7874 103.344C53.6562 103.398 53.548 103.285 53.5709 103.119C53.5828 102.926 53.6694 102.765 53.7481 102.733C53.8006 102.711 53.8977 102.797 53.9645 102.958ZM61.4119 100.206C61.4788 100.367 61.4519 100.598 61.3279 100.742C61.2301 100.876 61.0543 100.822 60.9652 100.608C60.8649 100.366 60.918 100.125 61.0492 100.071C61.2067 100.007 61.3562 100.072 61.4119 100.206ZM112.824 79.9453C112.891 80.1063 112.798 80.1759 112.607 80.1595C112.442 80.1325 112.222 79.9712 112.166 79.837C112.099 79.676 112.219 79.5957 112.384 79.6228C112.575 79.6391 112.769 79.8111 112.824 79.9453ZM58.7399 102.268C58.8743 102.37 58.8776 102.525 58.7464 102.579C58.5889 102.643 58.402 102.562 58.3463 102.428C58.2794 102.267 58.2873 102.138 58.3398 102.117C58.4185 102.085 58.5943 102.139 58.7399 102.268ZM63.9878 100.129C64.1222 100.231 64.073 100.408 63.8369 100.504C63.6007 100.601 63.44 100.509 63.463 100.343C63.4749 100.15 63.5615 99.9889 63.614 99.9675C63.6664 99.9461 63.8422 100 63.9878 100.129ZM65.1686 99.6478C65.2243 99.782 65.0964 99.9911 64.8864 100.077C64.6765 100.162 64.4371 100.103 64.3814 99.9686C64.3145 99.8076 64.4536 99.6253 64.6635 99.5398C64.8735 99.4543 65.1017 99.4868 65.1686 99.6478ZM66.2182 99.2201C66.2739 99.3543 66.1459 99.5633 65.936 99.6489C65.7261 99.7344 65.4867 99.6751 65.431 99.5409C65.3641 99.3798 65.5032 99.1976 65.7131 99.1121C65.923 99.0265 66.1513 99.0591 66.2182 99.2201ZM49.2739 106.439C49.3296 106.573 49.3328 106.729 49.2803 106.75C49.2016 106.782 49.0147 106.701 48.8803 106.599C48.7347 106.47 48.7426 106.342 48.8738 106.288C49.0312 106.224 49.207 106.278 49.2739 106.439ZM64.6849 101.069C64.8193 101.171 64.8448 101.38 64.732 101.552C64.6342 101.686 64.4584 101.632 64.3693 101.417C64.1687 100.934 64.2927 100.789 64.6849 101.069ZM65.8656 100.588C65.9325 100.749 65.9056 100.979 65.7816 101.124C65.6838 101.258 65.508 101.204 65.4189 100.989C65.3186 100.748 65.3717 100.506 65.5029 100.453C65.6604 100.389 65.8099 100.453 65.8656 100.588ZM66.7952 100.24C66.9296 100.342 66.9329 100.498 66.8017 100.551C66.6442 100.616 66.4573 100.535 66.4016 100.401C66.3347 100.24 66.3426 100.111 66.3951 100.089C66.4738 100.057 66.6496 100.111 66.7952 100.24ZM66.434 101.956C66.4897 102.091 66.4405 102.268 66.2831 102.332C66.1519 102.385 65.965 102.304 65.9092 102.17C65.8424 102.009 65.929 101.848 66.0602 101.795C66.2176 101.731 66.3672 101.795 66.434 101.956ZM53.1633 107.678C53.219 107.812 52.9598 108.075 52.5662 108.235C51.989 108.471 51.888 108.449 52.1137 108.106C52.4936 107.543 53.0184 107.329 53.1633 107.678ZM54.3326 108.426C54.6881 108.469 54.6953 108.56 54.3463 108.828C53.8097 109.235 53.1544 109.282 53.2305 108.875C53.2916 108.505 53.7639 108.312 54.3326 108.426ZM55.0847 109.719C55.0617 109.886 54.9337 110.095 54.7763 110.159C54.6451 110.212 54.4844 110.121 54.4287 109.987C54.3618 109.826 54.5009 109.644 54.7371 109.547C54.947 109.462 55.0965 109.526 55.0847 109.719ZM57.2727 110.334C57.4518 110.544 57.3651 110.704 57.0168 110.752C56.7695 110.822 56.418 110.714 56.2612 110.558C56.0822 110.349 56.1688 110.188 56.5171 110.14C56.7644 110.071 57.116 110.178 57.2727 110.334ZM73.2027 104.219C73.2585 104.353 73.2617 104.509 73.2092 104.53C73.1305 104.562 72.9436 104.482 72.8091 104.379C72.6636 104.251 72.6715 104.122 72.8027 104.068C72.9601 104.004 73.1359 104.058 73.2027 104.219ZM58.831 111.205C58.6952 111.543 58.0295 111.344 58.0794 110.947C58.1175 110.743 58.2749 110.679 58.5366 110.792C58.7609 110.889 58.8914 111.055 58.831 111.205ZM74.6586 105.509C74.7143 105.643 74.6651 105.82 74.5077 105.884C74.3765 105.937 74.1895 105.857 74.1338 105.723C74.067 105.561 74.1536 105.401 74.2848 105.347C74.4422 105.283 74.5917 105.348 74.6586 105.509ZM75.2372 108.38C75.304 108.541 75.2771 108.771 75.1531 108.916C75.0553 109.05 74.8795 108.996 74.7904 108.781C74.6901 108.54 74.7433 108.298 74.8745 108.245C75.0319 108.181 75.1814 108.245 75.2372 108.38ZM77.1027 107.996C77.2483 108.125 77.3073 108.415 77.2167 108.64C77.1261 108.865 77.1398 109.267 77.2513 109.536C77.3627 109.804 77.3469 110.062 77.1895 110.126C77.0583 110.179 76.8609 109.852 76.7764 109.353C76.6139 108.666 76.4946 108.526 76.1534 108.665C75.891 108.772 75.7304 108.681 75.7534 108.514C75.8184 108.08 76.7105 107.716 77.1027 107.996ZM117.515 92.7199C117.571 92.8541 117.466 93.1169 117.263 93.2936C116.733 93.7918 116.606 93.7809 116.795 93.2018C116.973 92.5958 117.359 92.3442 117.515 92.7199ZM79.1266 109.619C79.1934 109.78 78.9907 109.957 78.6909 110.048C78.3912 110.138 78.1104 110.127 78.0658 110.02C78.0213 109.912 78.2128 109.709 78.5015 109.591C78.7901 109.474 79.0708 109.485 79.1266 109.619ZM54.0915 121.735C54.1473 121.869 54.0718 122.057 53.9144 122.121C53.7832 122.175 53.675 122.062 53.698 121.896C53.7098 121.702 53.7964 121.542 53.8751 121.51C53.9276 121.488 54.0247 121.574 54.0915 121.735ZM53.4158 122.324C53.4715 122.459 53.4223 122.635 53.2649 122.7C53.1337 122.753 52.9467 122.672 52.891 122.538C52.8241 122.377 52.9108 122.216 53.042 122.163C53.1994 122.099 53.3489 122.163 53.4158 122.324ZM60.1196 121.475C60.1753 121.61 60.0999 121.797 59.9424 121.861C59.8112 121.915 59.703 121.802 59.726 121.636C59.7379 121.443 59.8245 121.282 59.9032 121.25C59.9557 121.228 60.0527 121.314 60.1196 121.475ZM78.881 113.83C79.0154 113.932 79.0187 114.088 78.8875 114.141C78.73 114.205 78.5431 114.125 78.4874 113.99C78.4205 113.829 78.4284 113.701 78.4809 113.679C78.5596 113.647 78.7354 113.701 78.881 113.83ZM80.3171 115.441C80.3728 115.576 80.3236 115.753 80.1662 115.817C80.035 115.87 79.848 115.789 79.7923 115.655C79.7254 115.494 79.8121 115.333 79.9433 115.28C80.1007 115.216 80.2502 115.28 80.3171 115.441ZM81.467 115.255C81.5339 115.416 81.5069 115.647 81.3829 115.792C81.2851 115.926 81.1094 115.872 81.0202 115.657C80.9199 115.415 80.9731 115.174 81.1043 115.121C81.2617 115.056 81.4113 115.121 81.467 115.255ZM79.4063 116.942C79.4955 117.157 79.4351 117.307 79.2442 117.291C79.0796 117.264 78.8704 117.129 78.8035 116.968C78.7478 116.834 78.8344 116.673 78.9656 116.62C79.1231 116.556 79.306 116.701 79.4063 116.942ZM80.305 116.89C80.3941 117.105 80.3075 117.265 80.1429 117.238C79.9409 117.195 79.8104 117.029 79.8334 116.862C79.9135 116.39 80.1044 116.407 80.305 116.89Z" fill="black"/>
<path d="M60.2251 40.7526C60.1981 40.9833 60.2611 41.2087 60.3732 41.2571C60.7097 41.4024 60.8272 40.9466 60.54 40.6243C60.3124 40.3718 60.2599 40.3932 60.2251 40.7526Z" fill="black"/>
<path d="M60.162 49.9102C60.2177 50.0444 60.4046 50.1251 60.5358 50.0717C60.6933 50.0075 60.7425 49.8305 60.6868 49.6963C60.6199 49.5353 60.4704 49.4707 60.3129 49.5349C60.1817 49.5883 60.0951 49.7492 60.162 49.9102Z" fill="black"/>
<path d="M62.2019 50.0202C62.3363 50.1224 62.5233 50.2031 62.602 50.171C62.6545 50.1496 62.6512 49.994 62.5955 49.8599C62.5286 49.6988 62.3528 49.6449 62.1954 49.7091C62.0642 49.7625 62.0563 49.8913 62.2019 50.0202Z" fill="black"/>
<path d="M79.4585 45.8438C79.4467 46.0369 79.7602 46.3485 80.1825 46.553C80.8181 46.8275 81.0129 46.7795 81.2163 46.3828C81.4198 45.986 81.3568 45.7606 80.9909 45.4704C80.4682 45.0244 79.5466 45.2431 79.4585 45.8438Z" fill="black"/>
<path d="M80.4965 47.8999C80.5522 48.0341 80.7391 48.1149 80.8703 48.0614C81.0277 47.9973 81.077 47.8203 81.0212 47.6861C80.9544 47.525 80.8048 47.4605 80.6474 47.5246C80.5162 47.5781 80.4296 47.7389 80.4965 47.8999Z" fill="black"/>
<path d="M92.1574 43.3991C92.1186 43.8228 92.1585 44.2145 92.2595 44.2361C92.5586 44.3653 92.7418 43.255 92.492 42.9489C92.3241 42.7663 92.2112 42.9378 92.1574 43.3991Z" fill="black"/>
<path d="M65.6117 54.9069C65.6674 55.0411 65.8543 55.1218 65.9855 55.0684C66.143 55.0042 66.1922 54.8272 66.1365 54.693C66.0696 54.532 65.9201 54.4674 65.7626 54.5316C65.6314 54.585 65.5448 54.7459 65.6117 54.9069Z" fill="black"/>
<path d="M66.6022 55.4449C66.5181 55.9812 67.5012 56.4279 67.6824 55.9775C67.8484 55.5646 67.2779 54.8557 66.9106 55.0054C66.7794 55.0589 66.6252 55.2786 66.6022 55.4449Z" fill="black"/>
<path d="M95.3838 49.396C95.2847 49.9699 95.6441 49.949 95.822 49.343C95.9316 49.0159 95.8647 48.8549 95.7073 48.919C95.5499 48.9832 95.3957 49.2029 95.3838 49.396Z" fill="black"/>
<path d="M66.2319 62.3112C66.321 62.5259 66.3872 62.9069 66.4088 63.1805C66.4264 63.5185 66.5609 63.6207 66.8495 63.503C67.1381 63.3854 67.169 63.0904 66.935 62.5268C66.7455 62.0705 66.4957 61.7644 66.3383 61.8285C66.2071 61.882 66.1427 62.0965 66.2319 62.3112Z" fill="black"/>
<path d="M93.5855 60.3591C93.7652 60.3487 94.0801 60.2203 94.2415 60.0918C94.3655 59.9471 94.212 59.9469 93.8446 60.0966C93.4773 60.2463 93.3684 60.3535 93.5855 60.3591Z" fill="black"/>
<path d="M141.755 43.9619C141.81 44.0961 141.997 44.1769 142.129 44.1234C142.286 44.0593 142.335 43.8823 142.28 43.7481C142.213 43.587 142.063 43.5225 141.906 43.5866C141.775 43.6401 141.688 43.8009 141.755 43.9619Z" fill="black"/>
<path d="M136.749 46.3155C136.884 46.4176 137.359 46.3807 137.806 46.1989C138.225 46.0278 138.511 45.7546 138.455 45.6204C138.388 45.4594 137.924 45.5231 137.399 45.737C136.848 45.9615 136.578 46.1972 136.749 46.3155Z" fill="black"/>
<path d="M23.3209 97.8732C23.3766 98.0074 23.5636 98.0881 23.6948 98.0347C23.8522 97.9705 23.9014 97.7935 23.8457 97.6594C23.7788 97.4983 23.6293 97.4337 23.4719 97.4979C23.3407 97.5513 23.2541 97.7122 23.3209 97.8732Z" fill="black"/>
<path d="M133.285 55.0391C133.326 56.2462 134.93 56.785 135.491 55.7718C135.808 55.2036 135.808 55.2036 135.193 55.4227L134.589 55.6686L134.981 54.9127C135.444 54.0335 135.109 53.6683 134.5 54.4185C134.237 54.7454 134.001 54.8416 133.702 54.7124C133.402 54.5833 133.282 54.6636 133.285 55.0391Z" fill="black"/>
<path d="M92.3115 72.3637C91.8154 72.9424 92.0963 75.2443 92.7815 76.3772C93.0123 76.7852 93.9459 78.6642 94.8271 80.5646C96.1803 83.5278 96.3881 84.1021 96.0732 84.2304C95.7583 84.3587 96.0639 84.7991 97.4626 86.3944L99.2306 88.4354L101.161 93.4542C102.442 96.7607 103.109 98.811 103.107 99.4708C103.116 100.377 103.291 100.651 104.592 102.161C105.618 103.375 106.27 104.427 106.812 105.806L107.625 107.766L109.62 106.953C110.853 106.45 111.689 105.953 111.81 105.652C111.987 105.266 112.066 105.234 112.282 105.46C112.439 105.616 112.9 105.616 113.319 105.445C114.422 104.996 113.913 104.733 112.303 104.918C110.861 105.066 110.158 104.851 111.024 104.498C111.68 104.231 111.79 103.684 111.176 103.683C110.573 103.709 110.388 103.188 110.913 102.974C111.28 102.824 111.247 102.744 110.851 102.529C110.567 102.362 110.196 102.356 110.046 102.512C109.651 102.892 109.14 102.473 109.351 101.947C109.472 101.647 109.629 101.583 109.966 101.728C110.489 101.954 111.141 101.751 110.985 101.376C110.93 101.241 110.563 101.171 110.151 101.213C108.937 101.394 109.089 100.799 110.322 100.516C111.022 100.356 111.394 100.142 111.327 99.9812C111.271 99.847 110.979 99.8091 110.717 99.916C110.428 100.034 110.057 100.028 109.923 99.9256C109.777 99.7967 109.392 99.8283 109.077 99.9566C108.762 100.085 108.174 100.073 107.796 99.9763C107.131 99.7769 107.172 99.7286 108.472 99.3871L109.862 99.0403L108.961 98.7172C108.46 98.5448 107.997 98.1686 107.938 97.8789C107.868 97.5622 107.674 97.3903 107.543 97.4438C107.385 97.5079 107.354 97.8029 107.477 98.0982C107.599 98.3934 107.595 98.6777 107.49 98.7205C107.359 98.774 107.15 98.4196 107.05 97.9581C106.873 97.3087 106.716 97.1529 106.401 97.2812C106.165 97.3775 105.926 97.3181 105.859 97.1571C105.792 96.996 105.98 96.8568 106.313 96.8466C107.11 96.7726 107.124 96.1395 106.323 96.058C105.485 95.9602 105.273 95.4503 106.044 95.387C106.467 95.3715 106.591 95.2268 106.469 94.9316C106.368 94.69 106.159 94.5556 106.002 94.6197C105.818 94.6946 105.654 94.4476 105.592 94.0022C105.5 93.412 105.392 93.2992 104.946 93.4809C104.369 93.7162 104.152 93.4906 104.409 92.8525C104.515 92.5898 104.399 92.3858 103.988 92.2082C103.203 91.8691 103.162 91.6974 103.818 91.43C104.107 91.3124 104.246 91.1302 104.085 91.0388C103.951 90.9367 103.925 90.7274 104.038 90.5559C104.403 90.0306 104.011 89.7511 102.85 89.6905C101.675 89.6674 101.675 89.6674 102.365 89.2606C103.081 88.8432 103.098 88.3657 102.368 88.3808C101.754 88.38 101.602 87.9398 102.127 87.726C102.468 87.587 102.461 87.4958 102.064 87.2806C101.792 87.1408 101.583 86.7864 101.562 86.5128C101.555 86.2016 101.29 85.933 100.939 85.8252C100.359 85.6849 100.374 85.6474 100.914 85.396C101.386 85.2035 101.435 85.0265 101.097 84.2857C100.87 83.8133 100.751 83.6737 100.784 83.9741C100.827 84.3014 100.699 84.5105 100.404 84.5369C100.16 84.5419 99.8119 84.5897 99.6434 84.627C99.4597 84.7019 99.5463 84.5411 99.7792 84.2893C100.147 83.9196 100.171 83.5334 99.8262 82.4814C99.5371 81.5636 99.2467 81.0857 98.9325 80.9941C98.293 80.784 98.2078 80.5049 98.7844 80.4896C99.0388 80.5114 99.1891 80.3561 99.1222 80.195C99.0442 80.0072 98.7825 79.8941 98.5392 79.8991C98.2322 79.8987 98.042 79.6624 97.9687 79.1902C97.8881 78.6268 97.7537 78.5247 97.3338 78.6958C97.019 78.8241 96.6484 78.8182 96.5139 78.7161C96.3683 78.5871 96.4287 78.437 96.6386 78.3514C97.1372 78.1483 97.0671 77.8317 96.4689 77.5733C96.1698 77.4441 96.1141 77.3099 96.2794 77.117C96.5878 76.6776 96.2193 76.0118 95.7733 76.1936C95.5109 76.3005 95.2682 76.0856 95.0788 75.6293C94.9227 75.2536 94.5424 74.7809 94.2433 74.6518C93.9593 74.4851 93.4891 74.0177 93.221 73.5935C92.8 72.9491 92.8007 72.7292 93.1497 72.4614C93.6601 72.0651 93.5724 71.4105 93.0699 71.6781C92.8973 71.7797 92.5332 72.085 92.3115 72.3637ZM94.3473 76.0843C94.4253 76.2722 94.3538 76.3955 94.1629 76.3791C93.9983 76.3521 93.7222 76.0566 93.5885 75.7345C93.3879 75.2514 93.4292 75.2032 93.7728 75.4397C93.9932 75.601 94.2693 75.8964 94.3473 76.0843ZM95.5828 77.2126C95.7173 77.3148 95.7467 77.4596 95.5893 77.5238C95.4581 77.5773 95.1925 77.5286 95.058 77.4265C94.9124 77.2975 94.8941 77.1795 95.0515 77.1153C95.1827 77.0619 95.4372 77.0837 95.5828 77.2126ZM95.8856 78.5328C95.8403 78.6454 95.6153 78.7685 95.3982 78.7628C95.1548 78.7678 95.2001 78.6552 95.4887 78.5376C95.7662 78.3931 95.9571 78.4095 95.8856 78.5328ZM98.6563 84.2448C98.6897 84.3253 98.6405 84.5023 98.5165 84.6469C98.4187 84.7809 98.2652 84.7807 98.2095 84.6465C98.1426 84.4855 98.2181 84.2978 98.3493 84.2443C98.5067 84.1802 98.634 84.1911 98.6563 84.2448ZM101.444 88.004C101.5 88.1382 101.451 88.3152 101.293 88.3793C101.162 88.4328 100.975 88.3521 100.92 88.2179C100.853 88.0568 100.939 87.896 101.071 87.8425C101.228 87.7784 101.378 87.843 101.444 88.004ZM108.676 101.281C108.525 101.656 108.121 101.35 108.213 100.905C108.248 100.546 108.3 100.524 108.528 100.777C108.658 100.943 108.721 101.169 108.676 101.281Z" fill="black"/>
<path d="M100.57 68.9042C100.626 69.0384 100.813 69.1191 100.944 69.0657C101.101 69.0015 101.15 68.8246 101.095 68.6904C101.028 68.5293 100.878 68.4647 100.721 68.5289C100.59 68.5823 100.503 68.7432 100.57 68.9042Z" fill="black"/>
<path d="M131.367 56.6995L130.96 57.4929L131.538 57.0377C131.86 56.7807 132.341 56.4595 132.607 56.2882C132.885 56.1437 133.151 55.9724 133.23 55.9403C133.443 55.7904 132.366 55.6333 132.051 55.7616C131.867 55.8365 131.574 56.2384 131.367 56.6995Z" fill="black"/>
<path d="M138.05 54.1015C137.745 54.4766 137.692 54.718 137.931 54.7773C138.388 54.8423 139.236 54.1515 139.102 53.8294C138.935 53.4268 138.546 53.5228 138.05 54.1015Z" fill="black"/>
<path d="M144.49 51.2887C144.557 51.4497 144.766 51.5842 144.931 51.6112C145.122 51.6276 145.182 51.4774 145.093 51.2627C144.993 51.0212 144.81 50.8761 144.652 50.9402C144.521 50.9937 144.435 51.1545 144.49 51.2887Z" fill="black"/>
<path d="M93.5374 73.0252C93.5144 73.1915 93.6226 73.3043 93.7538 73.2509C93.9112 73.1867 93.9867 72.9991 93.9309 72.8649C93.8641 72.7038 93.767 72.6178 93.7145 72.6392C93.6358 72.6713 93.5492 72.8321 93.5374 73.0252Z" fill="black"/>
<path d="M132.64 57.624C132.857 57.6297 133.082 57.5066 133.128 57.394C133.199 57.2707 133.008 57.2543 132.731 57.3988C132.442 57.5164 132.397 57.629 132.64 57.624Z" fill="black"/>
<path d="M144.241 53.2733C144.168 53.8365 144.79 53.7086 144.964 53.167C145.092 52.738 145.059 52.6575 144.718 52.7965C144.482 52.8927 144.29 53.0963 144.241 53.2733Z" fill="black"/>
<path d="M145.564 52.7655C145.698 52.8676 145.885 52.9483 145.964 52.9163C146.016 52.8949 146.013 52.7393 145.957 52.6051C145.89 52.4441 145.715 52.3902 145.557 52.4543C145.426 52.5078 145.418 52.6365 145.564 52.7655Z" fill="black"/>
<path d="M145.124 55.7691C145.179 55.9033 145.34 55.9947 145.471 55.9412C145.629 55.8771 145.757 55.668 145.78 55.5018C145.791 55.3087 145.642 55.2441 145.432 55.3296C145.196 55.4258 145.057 55.608 145.124 55.7691Z" fill="black"/>
<path d="M114.562 69.353C114.651 69.5677 114.961 69.9436 115.241 70.1747C115.849 70.6799 117.21 73.7343 117.512 75.2744C117.733 76.2511 117.804 76.3478 118.164 76.1069C118.431 75.9356 118.507 75.5279 118.347 74.9966C118.21 74.519 118.093 73.9394 118.108 73.6819C118.084 73.0327 117.251 71.3953 116.918 71.4056C116.764 71.4054 116.459 70.965 116.236 70.4282C115.831 69.5264 114.961 68.6883 114.541 68.8594C114.462 68.8914 114.462 69.1114 114.562 69.353Z" fill="black"/>
<path d="M69.4634 87.8251C69.5303 87.9861 69.7133 88.1312 69.9041 88.1476C70.095 88.164 70.0767 88.0459 69.9088 87.8633C69.5245 87.455 69.3074 87.4493 69.4634 87.8251Z" fill="black"/>
<path d="M75.4069 87.0663C75.7793 87.6677 76.1812 88.414 76.3149 88.736C76.4336 89.0956 76.6762 89.3106 76.8337 89.2464C76.9911 89.1823 76.9918 88.9623 76.8239 88.7797C76.6298 88.6077 76.582 88.3448 76.706 88.2001C76.7926 88.0393 76.7297 87.8139 76.5579 87.6956C76.2031 87.4323 76.1211 87.3087 75.6563 86.3371C75.4963 86.0257 75.2274 85.8215 75.07 85.8856C74.86 85.9712 74.9787 86.3308 75.4069 87.0663Z" fill="black"/>
<path d="M73.9677 87.59C74.0234 87.7242 74.2628 87.7835 74.4727 87.698C74.6826 87.6125 74.8106 87.4034 74.7548 87.2692C74.688 87.1082 74.4597 87.0757 74.2498 87.1612C74.0399 87.2468 73.9008 87.429 73.9677 87.59Z" fill="black"/>
<path d="M89.4843 81.9573C89.2428 82.5579 89.4808 83.0571 89.9937 83.0364C90.2371 83.0313 91.3593 83.2958 92.5038 83.6139C93.6484 83.932 94.6696 84.1749 94.7746 84.1321C94.8533 84.1 93.8446 83.4441 92.4955 82.7073C91.1464 81.9704 89.9541 81.3893 89.8491 81.4321C89.7442 81.4749 89.59 81.6946 89.4843 81.9573Z" fill="black"/>
<path d="M74.5643 88.2882C74.6201 88.4224 74.8595 88.4818 75.0694 88.3962C75.2793 88.3107 75.4072 88.1017 75.3515 87.9675C75.2846 87.8064 75.0564 87.7739 74.8465 87.8594C74.6366 87.945 74.4975 88.1272 74.5643 88.2882Z" fill="black"/>
<path d="M75.0101 89.3618C75.0659 89.496 75.3053 89.5554 75.5414 89.4592C75.7513 89.3736 75.8006 89.1966 75.6661 89.0945C75.5205 88.9656 75.2923 88.9331 75.1348 88.9972C75.0036 89.0507 74.9433 89.2008 75.0101 89.3618Z" fill="black"/>
<path d="M77.7258 88.8828C77.8603 88.9849 78.0472 89.0656 78.1259 89.0336C78.1784 89.0122 78.1752 88.8566 78.1194 88.7224C78.0526 88.5614 77.8768 88.5075 77.7193 88.5716C77.5881 88.6251 77.5802 88.7538 77.7258 88.8828Z" fill="black"/>
<path d="M75.7965 90.5164C75.9302 90.8385 76.2063 91.1339 76.3709 91.161C76.8012 91.2367 76.5449 90.6194 75.9809 90.2216C75.6372 89.985 75.5959 90.0333 75.7965 90.5164Z" fill="black"/>
<path d="M77.0105 90.1157C77.1449 90.2178 77.3319 90.2986 77.4106 90.2665C77.4631 90.2451 77.4598 90.0895 77.4041 89.9553C77.3372 89.7943 77.1614 89.7404 77.004 89.8045C76.8728 89.858 76.8649 89.9867 77.0105 90.1157Z" fill="black"/>
<path d="M75.0229 91.2396C75.1574 91.3417 75.3443 91.4225 75.423 91.3904C75.4755 91.369 75.4723 91.2134 75.4165 91.0792C75.3497 90.9182 75.1739 90.8643 75.0165 90.9284C74.8853 90.9819 74.8774 91.1106 75.0229 91.2396Z" fill="black"/>
<path d="M78.1716 89.9564C78.1486 90.1227 78.2568 90.2355 78.388 90.182C78.5455 90.1179 78.621 89.9302 78.5652 89.796C78.4984 89.635 78.4013 89.549 78.3488 89.5704C78.2701 89.6024 78.1835 89.7633 78.1716 89.9564Z" fill="black"/>
<path d="M83.026 87.9782C83.0817 88.1124 83.2686 88.1931 83.4261 88.129C83.5573 88.0755 83.554 87.9199 83.4196 87.8178C83.274 87.6888 83.0982 87.635 83.0195 87.667C82.967 87.6884 82.9591 87.8172 83.026 87.9782Z" fill="black"/>
<path d="M67.1305 94.9892C67.0963 95.1286 67.2103 95.7726 67.3505 96.4058C67.4908 97.039 67.6493 97.7903 67.6709 98.064C67.7371 98.445 67.8978 98.5364 68.2914 98.376C68.6587 98.2263 68.7342 98.0386 68.5178 97.813C68.2528 97.5444 68.3093 97.4586 68.7435 97.47C69.1928 97.4438 69.2341 97.3956 68.8643 97.1697C68.0982 96.7287 67.4616 95.6388 67.7732 95.3549C67.9759 95.1782 67.9202 95.044 67.61 94.8879C67.3594 94.8018 67.1534 94.8229 67.1305 94.9892Z" fill="black"/>
<path d="M135.882 67.1296C134.23 68.6187 134.023 68.8598 134.206 69.0049C134.512 69.2253 136.799 68.2307 136.676 67.9354C136.632 67.8281 136.745 67.6566 136.955 67.571C137.348 67.4106 137.422 66.6275 137.074 66.4553C136.813 66.3423 136.76 66.3637 135.882 67.1296Z" fill="black"/>
<path d="M76.4984 92.2073C76.5541 92.3415 76.7411 92.4222 76.8723 92.3688C77.0297 92.3046 77.0789 92.1277 77.0232 91.9935C76.9563 91.8324 76.8068 91.7678 76.6494 91.832C76.5182 91.8855 76.4315 92.0463 76.4984 92.2073Z" fill="black"/>
<path d="M120.212 74.8328C120.29 75.0207 120.705 75.1339 121.159 75.0434C123.189 74.6868 123.706 74.6017 124.342 74.6562C124.724 74.6889 125.184 74.9095 125.347 75.1565C125.549 75.4197 125.874 75.5382 126.11 75.4419C126.635 75.2281 126.45 74.7074 125.847 74.7334C125.169 74.7271 125.185 74.4696 125.805 73.7462C126.162 73.3497 126.492 73.1839 126.754 73.2969C126.978 73.3938 126.992 73.5762 126.737 73.7744C126.463 74.0744 126.496 74.1549 127.132 74.4294C127.73 74.6878 127.936 74.6666 128.139 74.2699C128.271 73.9965 128.429 73.9323 128.496 74.0933C128.64 74.4423 130.143 74.1439 130.324 73.6935C130.399 73.5059 130.171 73.4734 129.725 73.6552C129.095 73.9118 128.994 73.8902 129.138 73.4236C129.266 72.9946 129.196 72.898 128.735 72.8973C128.402 72.9076 127.875 72.7459 127.516 72.5469C126.911 72.1974 126.779 72.2508 125.942 72.9685C124.929 73.8523 123.535 74.2634 122.019 74.1594C120.773 74.0396 120.012 74.3497 120.212 74.8328Z" fill="black"/>
<path d="M78.7085 91.8402C78.5273 92.2905 78.77 92.5055 79.1079 92.2109C79.2732 92.018 79.39 91.7821 79.3343 91.6479C79.2117 91.3527 78.8332 91.4755 78.7085 91.8402Z" fill="black"/>
<path d="M80.0223 91.9011C79.8635 92.4052 79.912 92.4481 80.2984 92.1965C80.5648 92.0252 80.738 91.7036 80.7387 91.4836C80.6804 90.9739 80.2304 91.2201 80.0223 91.9011Z" fill="black"/>
<path d="M82.8632 90.8374C82.764 91.4112 84.0086 93.2263 84.4022 93.0659C84.6908 92.9483 84.6319 92.6585 84.1703 91.8424C83.5113 90.6988 82.9512 90.2366 82.8632 90.8374Z" fill="black"/>
<path d="M118.205 77.314C118.484 77.9849 118.521 78.0011 118.531 77.4324C118.545 76.5795 118.455 76.3647 118.141 76.4931C118.009 76.5465 118.012 76.9221 118.205 77.314Z" fill="black"/>
<path d="M129.94 72.03C129.856 72.5663 130.211 72.6098 131.437 72.2359C132.4 71.969 132.509 71.8619 132.252 71.4645C131.924 70.9705 130.017 71.4024 129.94 72.03Z" fill="black"/>
<path d="M106.166 81.9376C106.154 82.1307 106.296 82.324 106.487 82.3404C106.954 82.4323 107.034 82.1802 106.593 81.8577C106.346 81.7072 106.204 81.7338 106.166 81.9376Z" fill="black"/>
<path d="M121.198 75.6551C121.262 75.6606 121.613 75.7684 121.954 75.8493C122.455 76.0217 122.522 75.9628 122.366 75.587C122.255 75.3186 121.978 75.2431 121.611 75.3928C121.296 75.5212 121.123 75.6228 121.198 75.6551Z" fill="black"/>
<path d="M107.92 82.541C108.305 82.7293 108.645 82.8103 108.69 82.6977C108.747 82.6119 109.031 82.5587 109.387 82.6021C109.742 82.6455 110.053 82.5816 110.11 82.4958C110.185 82.3081 107.775 81.9722 107.408 82.1219C107.303 82.1646 107.535 82.3527 107.92 82.541Z" fill="black"/>
<path d="M133.224 71.8844C133.492 72.0887 134.822 71.892 136.411 71.4329C136.984 71.262 138.318 71.001 139.325 70.8415C140.359 70.6712 141.254 70.4632 141.352 70.3293C141.563 70.0238 140.424 68.9814 140.031 69.1418C139.847 69.2167 139.7 69.5276 139.643 69.8333C139.596 70.3858 139.544 70.4072 138.436 70.3252C137.212 70.2591 132.809 71.5512 133.224 71.8844Z" fill="black"/>
<path d="M120.919 77.2748C120.975 77.409 121.256 77.4201 121.545 77.3025C121.833 77.1849 122.047 77.035 122.025 76.9813C122.002 76.9276 121.722 76.9165 121.4 76.9536C121.078 76.9907 120.864 77.1406 120.919 77.2748Z" fill="black"/>
<path d="M124.057 75.9649C124.113 76.0991 124.3 76.1798 124.457 76.1157C124.589 76.0622 124.585 75.9066 124.451 75.8045C124.305 75.6755 124.129 75.6216 124.051 75.6537C123.998 75.6751 123.99 75.8038 124.057 75.9649Z" fill="black"/>
<path d="M101.865 85.3222C101.921 85.4564 102.108 85.5371 102.239 85.4837C102.396 85.4195 102.445 85.2425 102.39 85.1083C102.323 84.9473 102.173 84.8827 102.016 84.9469C101.885 85.0003 101.798 85.1612 101.865 85.3222Z" fill="black"/>
<path d="M106.326 83.5044C106.381 83.6386 106.621 83.698 106.831 83.6124C107.041 83.5269 107.168 83.3179 107.113 83.1837C107.046 83.0226 106.818 82.9901 106.608 83.0757C106.398 83.1612 106.259 83.3434 106.326 83.5044Z" fill="black"/>
<path d="M79.1099 95.0972C79.1347 95.5264 79.1721 95.5425 79.3906 95.1083C79.6807 94.5508 79.6663 94.3684 79.3252 94.5074C79.194 94.5608 79.0883 94.8236 79.1099 95.0972Z" fill="black"/>
<path d="M109.507 83.7771C109.563 83.9113 109.723 84.0027 109.855 83.9492C109.986 83.8957 110.36 83.8373 110.667 83.8377C111.154 83.8276 111.143 83.8008 110.661 83.5265C110.055 83.177 109.329 83.3476 109.507 83.7771Z" fill="black"/>
<path d="M83.4305 94.9369C83.2677 95.5053 83.305 95.5215 83.58 95.0015C83.7381 94.7174 83.8589 94.4171 83.8366 94.3634C83.7474 94.1487 83.5932 94.3684 83.4305 94.9369Z" fill="black"/>
<path d="M85.0842 94.0433C85.2187 94.1454 85.4056 94.2262 85.4843 94.1941C85.5368 94.1727 85.5335 94.0171 85.4778 93.8829C85.411 93.7219 85.2352 93.668 85.0777 93.7321C84.9465 93.7856 84.9386 93.9144 85.0842 94.0433Z" fill="black"/>
<path d="M106.392 86.1762C106.412 86.8898 106.726 86.9814 107.047 86.3488C107.194 86.0379 107.351 85.9737 107.418 86.1347C107.485 86.2958 107.443 86.5639 107.345 86.6979C107.067 87.0623 107.545 87.401 108.043 87.1978C108.253 87.1123 109.006 87.1509 109.739 87.2914C111.434 87.6049 112.048 87.3858 111.441 86.6607C110.572 85.6027 109.247 85.295 109.106 86.1371C109.014 86.8022 108.299 86.7797 108.021 86.1088C107.865 85.733 107.637 85.4805 107.506 85.534C107.375 85.5875 107.053 85.6246 106.809 85.6296C106.566 85.6346 106.385 85.8651 106.392 86.1762Z" fill="black"/>
<path d="M109.709 84.8558C109.873 85.1028 110.262 85.2267 110.626 85.1414C111.352 84.9707 111.293 84.6809 110.489 84.4438C109.633 84.228 109.381 84.3618 109.709 84.8558Z" fill="black"/>
<path d="M115.563 82.8467C115.753 83.303 116.27 83.2179 116.26 82.7511C116.238 82.4775 116.093 82.3485 115.857 82.4447C115.647 82.5303 115.508 82.7125 115.563 82.8467Z" fill="black"/>
<path d="M84.25 96.1719C84.0872 96.7403 84.1246 96.7564 84.3996 96.2364C84.6745 95.7164 84.7166 95.4483 84.5066 95.5338C84.4542 95.5552 84.3334 95.8555 84.25 96.1719Z" fill="black"/>
<path d="M85.784 95.3586C85.8397 95.4928 85.9932 95.493 86.0909 95.359C86.2149 95.2144 86.2642 95.0374 86.2307 94.9569C86.2085 94.9032 86.0812 94.8923 85.9238 94.9564C85.7926 95.0099 85.7171 95.1976 85.784 95.3586Z" fill="black"/>
<path d="M72.2199 101.482C72.3543 101.585 72.6199 101.633 72.7511 101.58C72.9086 101.516 72.8791 101.371 72.7447 101.269C72.5991 101.14 72.3446 101.118 72.2134 101.171C72.0559 101.235 72.0743 101.353 72.2199 101.482Z" fill="black"/>
<path d="M103.314 88.8113C103.37 88.9455 103.556 89.0262 103.714 88.9621C103.845 88.9086 103.842 88.753 103.707 88.6509C103.562 88.522 103.386 88.4681 103.307 88.5001C103.255 88.5215 103.247 88.6503 103.314 88.8113Z" fill="black"/>
<path d="M79.5472 98.8102C79.603 98.9444 79.7899 99.0251 79.9211 98.9717C80.0785 98.9075 80.1278 98.7306 80.072 98.5964C80.0052 98.4353 79.8556 98.3707 79.6982 98.4349C79.567 98.4884 79.4804 98.6492 79.5472 98.8102Z" fill="black"/>
<path d="M85.1492 97.155C85.0094 97.5572 85.031 97.8308 85.1622 97.7773C85.5033 97.6383 85.8361 96.5927 85.5855 96.5065C85.4734 96.458 85.289 96.7528 85.1492 97.155Z" fill="black"/>
<path d="M83.706 97.743C83.5518 97.9628 83.5248 98.1934 83.637 98.2418C83.7754 98.2796 83.9407 98.0867 84.0241 97.7703C84.202 97.1643 84.101 97.1427 83.706 97.743Z" fill="black"/>
<path d="M72.6655 102.556C72.8 102.658 72.9869 102.739 73.0656 102.707C73.1181 102.685 73.1148 102.53 73.0591 102.395C72.9923 102.234 72.8165 102.181 72.659 102.245C72.5278 102.298 72.5199 102.427 72.6655 102.556Z" fill="black"/>
<path d="M116.427 85.6645C116.482 85.7987 116.669 85.8794 116.8 85.8259C116.958 85.7618 117.007 85.5848 116.951 85.4506C116.885 85.2896 116.735 85.225 116.578 85.2891C116.446 85.3426 116.36 85.5034 116.427 85.6645Z" fill="black"/>
<path d="M80.1764 101.064C80.2321 101.198 80.419 101.279 80.5502 101.226C80.7077 101.162 80.7569 100.985 80.7012 100.85C80.6343 100.689 80.4848 100.625 80.3273 100.689C80.1961 100.742 80.1095 100.903 80.1764 101.064Z" fill="black"/>
<path d="M107.315 90.319C107.37 90.4532 107.557 90.5339 107.715 90.4698C107.846 90.4163 107.843 90.2607 107.708 90.1586C107.563 90.0297 107.387 89.9758 107.308 90.0079C107.256 90.0292 107.248 90.158 107.315 90.319Z" fill="black"/>
<path d="M75.7206 103.633C75.9101 104.089 76.4112 104.262 76.5471 103.924C76.6678 103.624 76.0894 103.044 75.8008 103.161C75.6696 103.215 75.6315 103.418 75.7206 103.633Z" fill="black"/>
<path d="M81.3352 101.565C81.2584 102.192 81.2806 102.246 81.6074 101.925C81.8101 101.748 82.0391 101.56 82.0915 101.539C82.144 101.518 82.1185 101.308 82.0293 101.094C81.7953 100.53 81.4765 100.723 81.3352 101.565Z" fill="black"/>
<path d="M82.792 101.379C82.6824 101.706 82.7152 102.007 82.8647 102.071C83.2012 102.217 83.4808 101.412 83.1935 101.09C83.0519 100.897 82.9056 100.988 82.792 101.379Z" fill="black"/>
<path d="M110.93 91.6385C110.997 91.7995 111.207 91.9339 111.371 91.9609C111.562 91.9773 111.622 91.8272 111.533 91.6125C111.433 91.3709 111.25 91.2258 111.093 91.29C110.961 91.3434 110.875 91.5043 110.93 91.6385Z" fill="black"/>
<path d="M106.068 93.9653C106.123 94.0994 106.31 94.1802 106.468 94.116C106.599 94.0626 106.596 93.907 106.461 93.8049C106.316 93.6759 106.14 93.622 106.061 93.6541C106.009 93.6755 106.001 93.8042 106.068 93.9653Z" fill="black"/>
<path d="M108.56 92.9495C108.695 93.0516 108.934 93.1109 109.091 93.0468C109.223 92.9933 109.272 92.8163 109.216 92.6822C109.149 92.5211 108.921 92.4886 108.685 92.5848C108.475 92.6704 108.415 92.8205 108.56 92.9495Z" fill="black"/>
<path d="M91.6636 101.687C91.6366 101.917 91.6995 102.143 91.8117 102.191C92.1482 102.336 92.2657 101.881 91.9784 101.558C91.7509 101.306 91.6984 101.327 91.6636 101.687Z" fill="black"/>
<path d="M110.016 94.2391C110.151 94.3412 110.416 94.3899 110.548 94.3364C110.705 94.2723 110.675 94.1274 110.541 94.0253C110.395 93.8963 110.141 93.8745 110.01 93.9279C109.852 93.9921 109.871 94.1102 110.016 94.2391Z" fill="black"/>
<path d="M109.058 95.257C109.114 95.3912 109.301 95.4719 109.458 95.4078C109.59 95.3543 109.586 95.1987 109.452 95.0966C109.306 94.9676 109.13 94.9138 109.052 94.9458C108.999 94.9672 108.991 95.096 109.058 95.257Z" fill="black"/>
<path d="M88.6941 104.215C88.595 104.789 88.9544 104.768 89.1323 104.162C89.2419 103.835 89.1751 103.673 89.0176 103.738C88.8602 103.802 88.706 104.022 88.6941 104.215Z" fill="black"/>
<path d="M92.5991 102.906C92.7217 103.201 92.9532 103.389 93.0844 103.335C93.2419 103.271 93.2465 102.987 93.1239 102.692C93.0013 102.397 92.7961 102.198 92.6386 102.262C92.5074 102.315 92.4765 102.61 92.5991 102.906Z" fill="black"/>
<path d="M107.444 96.5423C107.5 96.6765 107.661 96.7679 107.792 96.7145C107.923 96.661 108.298 96.6025 108.605 96.603C109.091 96.5929 109.08 96.5661 108.598 96.2918C107.993 95.9422 107.266 96.1129 107.444 96.5423Z" fill="black"/>
<path d="M86.8179 105.607C86.7187 106.181 87.0782 106.16 87.2561 105.554C87.3657 105.227 87.2988 105.066 87.1414 105.13C86.984 105.194 86.8298 105.414 86.8179 105.607Z" fill="black"/>
<path d="M111.734 95.4217C111.869 95.5239 112.056 95.6046 112.134 95.5725C112.187 95.5511 112.184 95.3955 112.128 95.2613C112.061 95.1003 111.885 95.0464 111.728 95.1106C111.597 95.164 111.589 95.2928 111.734 95.4217Z" fill="black"/>
<path d="M108.778 97.5366C108.834 97.6708 109.054 97.8321 109.219 97.8591C109.409 97.8755 109.503 97.8059 109.436 97.6448C109.381 97.5106 109.186 97.3387 108.996 97.3223C108.831 97.2953 108.711 97.3756 108.778 97.5366Z" fill="black"/>
<path d="M89.3852 105.879C89.0865 106.785 89.1153 107.15 89.4564 107.011C89.6401 106.936 89.8061 106.523 89.8338 106.072C89.8589 105.246 89.5972 105.133 89.3852 105.879Z" fill="black"/>
<path d="M92.2512 105.244C92.16 105.689 92.1736 106.092 92.2596 106.151C92.5849 106.269 92.9669 105.047 92.6796 104.724C92.5118 104.542 92.3615 104.697 92.2512 105.244Z" fill="black"/>
<path d="M112.423 96.7102C113.093 96.8452 113.696 96.5993 113.341 96.3359C113.196 96.207 112.81 96.2386 112.495 96.3669C112.023 96.5594 112.019 96.6238 112.423 96.7102Z" fill="black"/>
<path d="M112.355 98.0245C112.411 98.1587 112.564 98.1589 112.662 98.0249C112.786 97.8802 112.835 97.7033 112.802 97.6228C112.779 97.5691 112.652 97.5582 112.495 97.6223C112.364 97.6758 112.288 97.8635 112.355 98.0245Z" fill="black"/>
<path d="M91.8819 107.089C91.96 107.277 91.8241 107.615 91.5689 107.813C91.3137 108.011 91.1779 108.349 91.2782 108.59C91.3673 108.805 91.5805 108.875 91.7307 108.72C92.1099 108.377 92.3557 106.457 92.0146 106.596C91.8571 106.66 91.7928 106.874 91.8819 107.089Z" fill="black"/>
<path d="M113.359 98.9647C113.459 99.2063 113.642 99.3514 113.773 99.2979C113.905 99.2444 114.227 99.2073 114.496 99.1916C114.83 99.1814 114.927 99.0474 114.805 98.7521C114.704 98.5106 114.521 98.3655 114.39 98.419C114.259 98.4724 113.937 98.5095 113.667 98.5252C113.334 98.5355 113.236 98.6695 113.359 98.9647Z" fill="black"/>
<path d="M120.268 96.0238C120.245 96.1901 120.353 96.3029 120.484 96.2494C120.642 96.1853 120.717 95.9976 120.661 95.8634C120.595 95.7024 120.497 95.6164 120.445 95.6378C120.366 95.6699 120.28 95.8307 120.268 96.0238Z" fill="black"/>
<path d="M92.6571 108.217C92.5029 108.437 92.5022 108.656 92.6518 108.721C92.8013 108.786 93.0152 108.636 93.1057 108.411C93.3321 107.848 93.0219 107.692 92.6571 108.217Z" fill="black"/>
<path d="M83.4534 112.281C83.4304 112.448 83.5386 112.56 83.6698 112.507C83.8272 112.443 83.9027 112.255 83.847 112.121C83.7801 111.96 83.683 111.874 83.6305 111.895C83.5518 111.927 83.4652 112.088 83.4534 112.281Z" fill="black"/>
<path d="M114.769 99.5515C114.242 100.205 114.514 100.565 115.275 100.255C115.748 100.063 115.876 99.8535 115.708 99.4509C115.463 98.8604 115.257 98.8816 114.769 99.5515Z" fill="black"/>
<path d="M93.894 108.905C93.7934 109.919 93.9986 110.118 94.1812 109.228C94.2725 108.782 94.2588 108.38 94.1466 108.332C94.0456 108.31 93.9288 108.546 93.894 108.905Z" fill="black"/>
<path d="M95.4087 108.194C95.299 108.521 95.3659 108.682 95.5234 108.618C95.8382 108.49 95.9938 107.83 95.7321 107.717C95.6574 107.685 95.492 107.877 95.4087 108.194Z" fill="black"/>
<path d="M112.509 101.351C112.565 101.485 112.785 101.646 112.95 101.673C113.141 101.69 113.234 101.62 113.168 101.459C113.112 101.325 112.918 101.153 112.727 101.137C112.562 101.109 112.442 101.19 112.509 101.351Z" fill="black"/>
<path d="M119.818 98.5607C119.645 98.8823 119.636 99.231 119.797 99.3225C119.991 99.4944 120.152 99.3659 120.303 98.9906C120.62 98.2024 120.232 97.8585 119.818 98.5607Z" fill="black"/>
<path d="M130.681 94.1339C130.893 94.6438 131.795 94.747 132.347 94.3025C132.748 94.0134 132.662 93.9542 131.775 93.8135C130.548 93.5918 130.47 93.6239 130.681 94.1339Z" fill="black"/>
<path d="M113.793 101.487C113.848 101.621 114.035 101.702 114.193 101.638C114.324 101.584 114.321 101.428 114.186 101.326C114.041 101.197 113.865 101.143 113.786 101.176C113.734 101.197 113.726 101.326 113.793 101.487Z" fill="black"/>
<path d="M84.5715 113.865C84.8443 114.005 85.2635 114.054 85.4996 113.958C85.8296 113.792 85.8073 113.738 85.2537 113.587C84.3597 113.355 83.9399 113.527 84.5715 113.865Z" fill="black"/>
<path d="M94.8996 109.406C94.8281 109.529 94.8608 109.829 94.9499 110.044C95.0837 110.366 95.1624 110.334 95.3658 109.937C95.4977 109.664 95.5811 109.348 95.5254 109.213C95.4028 108.918 95.0243 109.041 94.8996 109.406Z" fill="black"/>
<path d="M120.687 99.6188C120.518 99.8761 120.536 99.9941 120.72 99.9193C120.877 99.8551 121.058 99.6247 121.081 99.4584C121.157 99.0508 121.052 99.0936 120.687 99.6188Z" fill="black"/>
<path d="M132.584 95.0217C132.662 95.2096 133.062 95.3604 133.485 95.3449C133.908 95.3294 134.319 95.507 134.42 95.7486C134.687 96.3927 135.396 95.884 135.358 95.0524C135.333 94.6232 135.447 94.2318 135.604 94.1676C135.735 94.1141 135.822 93.9533 135.766 93.8191C135.71 93.6849 134.935 93.8126 134.047 94.1118C132.87 94.5286 132.472 94.7533 132.584 95.0217Z" fill="black"/>
<path d="M114.732 102.642C114.698 103.001 114.735 103.017 115.346 102.862C115.503 102.798 115.765 102.911 115.933 103.094C116.123 103.33 116.04 103.427 115.576 103.49C115.254 103.527 115.014 103.688 115.058 103.795C115.192 104.117 116.285 104.017 116.537 103.663C116.635 103.529 116.789 103.53 116.844 103.664C116.911 103.825 117.098 103.906 117.229 103.852C117.387 103.788 117.414 103.557 117.325 103.343C117.235 103.128 116.974 103.015 116.764 103.1C116.554 103.186 116.314 103.127 116.248 102.966C116.181 102.804 116.395 102.655 116.728 102.644C117.151 102.629 117.275 102.484 117.152 102.189C117.041 101.921 116.738 101.856 116.344 102.016C116.003 102.155 115.497 102.267 115.254 102.272C115.011 102.277 114.771 102.438 114.732 102.642Z" fill="black"/>
<path d="M130.808 96.6554C131.309 97.8632 131.934 98.1108 131.742 97.0591C131.57 96.1254 131.189 95.6527 130.743 95.8345C130.612 95.888 130.641 96.2528 130.808 96.6554Z" fill="black"/>
<path d="M97.2936 109.999C97.222 110.122 97.2325 110.369 97.2994 110.53C97.3662 110.691 97.4863 110.611 97.5919 110.348C97.6825 110.123 97.6721 109.876 97.5862 109.817C97.474 109.769 97.3277 109.86 97.2936 109.999Z" fill="black"/>
<path d="M112.231 104.006C112.366 104.108 112.631 104.157 112.762 104.103C112.92 104.039 112.89 103.894 112.756 103.792C112.61 103.663 112.356 103.641 112.225 103.695C112.067 103.759 112.086 103.877 112.231 104.006Z" fill="black"/>
<path d="M155.487 87.0065C155.621 87.1086 155.94 87.1359 156.149 87.0504C156.359 86.9648 156.595 87.0885 156.684 87.3033C156.873 87.7595 158.361 87.2788 158.445 86.7424C158.468 86.5762 158.308 86.4847 158.071 86.581C157.862 86.6665 157.521 86.5856 157.353 86.4029C157.148 86.2041 156.688 86.2035 156.11 86.4387C155.585 86.6526 155.315 86.8883 155.487 87.0065Z" fill="black"/>
<path d="M95.4237 111.702C95.112 111.986 95.3191 112.781 95.6602 112.642C95.9226 112.535 96.2547 111.709 96.1433 111.441C96.043 111.199 95.8331 111.285 95.4237 111.702Z" fill="black"/>
<path d="M96.8575 111.683C96.9466 111.898 97.1559 112.032 97.2871 111.979C97.4445 111.914 97.4714 111.684 97.3823 111.469C97.2931 111.254 97.1101 111.109 96.9527 111.173C96.8215 111.227 96.7683 111.468 96.8575 111.683Z" fill="black"/>
<path d="M98.26 110.923C98.2331 111.154 98.296 111.379 98.4081 111.428C98.7446 111.573 98.8621 111.117 98.5749 110.795C98.3473 110.543 98.2949 110.564 98.26 110.923Z" fill="black"/>
<path d="M155.185 87.7573C155.173 87.9504 155.356 88.0955 155.626 88.0798C156.213 88.0913 156.413 87.759 155.983 87.4633C155.617 87.1731 155.25 87.3228 155.185 87.7573Z" fill="black"/>
<path d="M158.99 86.2067C159.046 86.3409 159.285 86.4002 159.495 86.3147C159.705 86.2292 159.833 86.0201 159.777 85.8859C159.71 85.7249 159.482 85.6924 159.272 85.7779C159.062 85.8635 158.923 86.0457 158.99 86.2067Z" fill="black"/>
<path d="M43.581 110.448C57.1449 114.706 68.9467 122.533 67.9865 125.535C87.2405 139.184 68.0581 140.83 54.4942 136.572C40.9302 132.314 20.7681 144.272 21.7283 141.27C9.16925 141.904 30.017 106.19 43.581 110.448Z" fill="#F6F4F1"/>
</g>
<path d="M61.0219 8.594C72.9019 7.94815 84.4268 9.83366 84.538 11.8407C103.594 15.4396 89.0033 20.9062 77.1232 21.552C65.2432 22.1978 52.8555 34.0164 52.7443 32.0094C43.0637 35.325 49.1418 9.23985 61.0219 8.594Z" fill="#F6F4F1"/>
<defs>
<clipPath id="clip0">
<rect width="134.023" height="93.5775" fill="white" transform="matrix(0.92606 -0.377376 0.383495 0.923543 0 50.5771)"/>
</clipPath>
</defs>
</svg>
