<svg width="224" height="136" viewBox="0 0 224 136" fill="none" xmlns="http://www.w3.org/2000/svg">
<g clip-path="url(#clip0)">
<path d="M93.076 27.1218C88.1326 27.4345 87.8236 27.5126 89.5229 28.4506L91.3767 29.4666L88.3643 30.9517C86.7422 31.7333 83.7298 34 81.7988 35.954C76.7781 40.8781 75.465 45.646 75.5422 58.6207C75.6967 71.7517 75.8512 72.4552 77.705 73.5494C78.8636 74.1747 79.2498 74.9563 79.0181 76.1287C78.7091 77.4575 78.7864 77.5356 79.4815 76.5977C80.7946 74.7218 80.4857 71.908 79.0181 71.908C77.9367 71.908 77.8595 71.7517 78.6319 71.2046C79.4043 70.7356 79.7133 67.8437 79.8677 60.4965C80.0995 49.554 80.6402 47.5218 84.8112 43.5356C86.5877 41.8161 87.7464 41.3471 89.7546 41.5034C91.145 41.6598 92.6898 41.5816 93.076 41.3471C93.5395 41.1126 95.1615 40.9563 96.7836 41.0345C98.3284 41.1126 99.6415 40.8781 99.6415 40.5655C99.6415 39.7839 102.191 40.6437 102.808 41.6598C103.117 42.1287 104.199 42.1287 105.744 41.5816C107.134 41.1126 108.293 41.0345 108.524 41.4253C108.756 41.8942 109.76 41.8161 110.842 41.4253C112.077 40.9563 112.927 40.9563 113.236 41.5816C113.622 42.1287 114.008 42.0506 114.395 41.2689C115.167 39.8621 122.35 40.2529 124.822 41.8942C127.68 43.8483 129.766 48.9287 129.766 54.1655C129.766 57.3701 130.306 60.1839 131.388 62.5287C132.237 64.4827 133.319 68.3126 133.705 71.0483C134.555 76.9103 135.868 79.8804 135.945 76.2069C136.099 73.7839 138.108 67.6092 138.185 69.4069C138.262 69.954 138.571 70.2667 138.957 70.0322C140.502 69.0161 137.49 46.6621 135.018 40.4873C133.628 37.1264 132.16 35.2506 129.07 32.7494C126.135 30.3264 125.286 29.3103 126.058 28.8414C126.599 28.4506 126.83 28.1379 126.522 28.0598C123.123 27.4345 99.1009 26.731 93.076 27.1218ZM78.7864 69.6414C78.7864 70.0322 78.4774 70.3448 78.014 70.3448C77.6277 70.3448 77.2415 69.7977 77.2415 69.0942C77.2415 68.469 77.6277 68.1563 78.014 68.3908C78.4774 68.6253 78.7864 69.1724 78.7864 69.6414Z" fill="black"/>
<path d="M120.11 62.138C119.724 62.2943 118.025 62.6069 116.403 62.9196C113.622 63.3885 110.455 65.8897 110.455 67.6092C110.455 68.7035 114.317 68.469 116.48 67.2966C118.488 66.2023 122.582 66.2023 123.2 67.2184C123.509 67.7655 124.204 67.7655 125.208 67.2184C126.599 66.4368 126.522 66.2805 124.05 64.092C122.659 62.7632 121.346 61.7471 121.192 61.8253C121.037 61.8253 120.574 61.9816 120.11 62.138Z" fill="black"/>
<path d="M90.7587 65.4988C87.9007 66.5149 86.6649 67.6092 86.1242 69.7195L85.5835 71.8299L88.5187 70.2666C91.84 68.6253 95.0069 68.3126 95.0069 69.7195C95.0069 70.1885 94.7752 70.423 94.5435 70.1103C93.6166 69.1724 89.4456 71.3609 88.7504 73.2368C87.8235 75.7379 87.8235 77.3793 88.8276 77.3793C89.2911 77.3793 89.6 76.754 89.6 75.9724C89.6 75.2689 90.2952 74.1747 91.1449 73.6276C92.5352 72.7678 92.6897 72.8459 92.6897 74.2528C92.6897 76.285 94.7752 77.1448 96.7835 75.8942C97.8649 75.1126 98.4828 75.1126 99.178 75.8161C100.414 77.0666 97.7876 78.9425 95.5476 78.3172C93.9256 77.9264 93.9256 77.9264 95.2387 79.2551C95.9338 80.0368 96.3973 80.9747 96.1656 81.3655C95.4704 82.3816 97.4014 82.2253 99.7959 81.131C101.495 80.2712 101.804 79.7241 101.418 77.9264C101.032 76.2069 101.186 75.8942 102.268 76.285C102.963 76.5195 103.504 76.4413 103.504 76.0505C103.504 74.6436 101.572 72.8459 98.6373 71.5172C95.2387 69.954 95.4704 69.1724 99.2552 69.4069C101.418 69.5632 101.804 69.4069 101.495 68.3908C100.414 65.6551 94.8525 64.1701 90.7587 65.4988Z" fill="black"/>
<path d="M114.317 70.892C112.85 72.0644 111.923 72.6115 112.309 72.0644C112.618 71.5954 112.695 71.1265 112.463 71.1265C112.232 71.1265 111.459 72.2207 110.764 73.5494C109.837 75.5035 109.76 76.4414 110.455 78.0828C111.15 79.8805 111.768 80.1931 114.935 80.3495L118.565 80.4276L116.634 78.8644C114.781 77.3012 114.703 77.223 116.48 77.6138C117.407 77.8483 118.025 77.692 117.716 77.3012C117.484 76.9104 116.325 76.5977 115.012 76.5977C112.386 76.5977 112.309 76.2851 114.24 74.1747C115.476 72.846 115.708 72.7678 116.634 73.8621C117.948 75.5035 119.492 75.3472 120.651 73.4713C121.192 72.6115 121.887 71.9081 122.196 71.9081C122.505 71.9081 122.968 72.6115 123.2 73.4713C123.818 75.5035 125.903 75.5816 125.363 73.5494C124.822 71.2828 122.582 69.5632 119.57 69.0943C117.407 68.7035 116.403 69.0161 114.317 70.892Z" fill="black"/>
<path d="M137.721 83.8667C137.567 86.2115 137.644 86.2897 138.417 84.5702C138.957 83.4759 139.034 82.538 138.571 82.069C138.108 81.6 137.799 82.2253 137.721 83.8667Z" fill="black"/>
<path d="M101.959 96.1379C101.959 96.5288 102.654 96.9196 103.504 96.9196C104.353 96.9196 105.048 96.5288 105.048 96.1379C105.048 95.669 104.353 95.3563 103.504 95.3563C102.654 95.3563 101.959 95.669 101.959 96.1379Z" fill="black"/>
<path d="M122.273 97.154C124.127 98.7173 125.363 101.531 123.741 100.515C123.355 100.28 121.81 100.984 120.265 102C118.72 103.094 117.252 103.954 116.943 103.954C116.248 103.954 112.772 107.315 112.772 108.018C112.772 109.191 113.931 108.644 116.557 106.299C117.948 104.97 119.415 103.954 119.801 103.954C120.11 103.954 120.96 103.72 121.655 103.485C122.35 103.172 122.814 103.251 122.737 103.641C122.505 105.205 122.968 108.175 123.355 107.237C123.509 106.768 123.972 106.455 124.359 106.69C124.668 106.924 124.822 106.299 124.513 105.361C124.281 104.345 124.436 103.876 124.899 104.189C125.749 104.736 126.676 102.391 126.676 99.577C126.676 98.4046 125.826 97.4667 124.05 96.6069C120.419 94.8874 119.724 95.1218 122.273 97.154Z" fill="black"/>
<path d="M93.3077 98.7954C91.8402 99.8896 91.4539 103.641 92.6898 105.517C93.076 106.142 93.4622 106.299 93.4622 105.908C93.5395 105.439 93.8484 105.908 94.3119 106.924C94.6981 107.94 95.316 108.565 95.7022 108.253C96.1657 108.018 96.3202 107.315 96.0112 106.69C95.5477 105.361 96.3974 105.205 98.0195 106.221C98.6374 106.69 99.8733 106.69 100.955 106.221C101.882 105.908 104.199 105.83 105.975 106.221C108.215 106.611 110.069 106.455 111.846 105.752C114.858 104.501 115.09 103.563 112.232 104.345C109.142 105.126 98.9464 104.814 97.1698 103.876C96.0884 103.329 95.3933 103.329 94.5436 104.032C93.694 104.736 93.4622 104.657 93.4622 103.641C93.4622 102.938 94.0802 102.391 94.8526 102.391C96.0112 102.391 96.0112 102.234 95.0071 101.609C94.0029 100.906 94.0029 100.671 95.2388 99.9678C95.934 99.4988 96.3974 98.8735 96.1657 98.4046C95.5477 97.4666 94.9298 97.5448 93.3077 98.7954Z" fill="black"/>
<path d="M106.593 98.8735C105.048 99.7333 104.971 99.9677 106.052 100.046C106.825 100.046 107.211 100.359 106.979 100.828C106.67 101.296 107.597 101.609 109.142 101.609C111.459 101.609 111.845 101.375 111.691 99.8114C111.614 97.6229 109.451 97.2321 106.593 98.8735Z" fill="black"/>
<path d="M104.121 102.938C104.662 103.172 105.357 103.094 105.589 102.86C105.898 102.625 105.434 102.391 104.585 102.469C103.735 102.469 103.503 102.703 104.121 102.938Z" fill="black"/>
<path d="M104.276 108.644C105.357 109.347 112.695 109.816 111.923 109.113C111.768 108.956 109.683 108.644 107.366 108.409C104.508 108.096 103.504 108.175 104.276 108.644Z" fill="black"/>
<path d="M109.297 113.099C106.207 113.411 103.503 114.897 106.052 114.897C106.748 114.897 107.366 115.444 107.366 116.069C107.366 116.772 108.061 117.241 109.297 117.241C111.228 117.241 112.077 115.756 110.301 115.6C109.76 115.6 110.223 115.209 111.459 114.74C113.236 114.115 114.549 112.317 113.004 112.708C112.618 112.786 110.996 112.942 109.297 113.099Z" fill="black"/>
<path d="M134.4 113.724C134.4 113.959 135.25 115.913 136.331 118.023C137.799 120.915 138.417 123.729 138.803 128.966L139.266 136L159.426 135.922C170.549 135.844 178.891 135.687 178.042 135.453C155.642 130.216 150.775 127.949 139.575 117.32C136.563 114.428 134.4 112.943 134.4 113.724Z" fill="black"/>
<path d="M82.2621 121.149C75.8511 127.715 70.7531 131.076 63.2607 133.655L56.7725 135.922L71.2938 136H85.738V128.497C85.738 124.432 86.1242 120.368 86.5876 119.508C88.4414 115.991 86.5876 116.694 82.2621 121.149Z" fill="black"/>
<path d="M109.915 126.386C109.374 126.621 108.91 127.246 108.91 127.793C108.91 128.966 112.618 129.903 113.236 128.887C113.468 128.497 113.081 128.184 112.464 128.184C111.846 128.184 111.228 127.715 111.073 127.168C110.919 126.543 110.378 126.23 109.915 126.386Z" fill="black"/>
<path d="M122.814 129.591C118.565 132.874 116.248 135.453 117.407 135.844C118.334 136.156 126.521 128.497 125.903 127.871C125.672 127.715 124.281 128.497 122.814 129.591Z" fill="black"/>
<path d="M102.731 133.968C102.731 134.124 103.349 134.749 104.122 135.297C105.28 136.313 105.357 136.235 104.353 134.984C103.349 133.733 102.731 133.343 102.731 133.968Z" fill="black"/>
<path d="M119.528 13.8246C119.492 15.6315 119.16 17.4146 118.55 19.0723C117.94 20.73 117.064 22.2297 115.972 23.4859C114.88 24.742 113.594 25.73 112.187 26.3934C110.78 27.0567 109.279 27.3825 107.771 27.3522C106.262 27.3218 104.776 26.9358 103.396 26.2163C102.016 25.4968 100.769 24.4578 99.7279 23.1587C98.6865 21.8596 97.8702 20.3258 97.3258 18.6448C96.7814 16.9639 96.5195 15.1688 96.555 13.3619L108.041 13.5933L119.528 13.8246Z" fill="black"/>
<path d="M120.769 20.3219C120.769 22.2097 119.258 23.7299 117.407 23.7299C115.556 23.7299 114.045 22.2097 114.045 20.3219C114.045 18.4341 115.556 16.9138 117.407 16.9138C119.258 16.9138 120.769 18.4341 120.769 20.3219Z" stroke="black"/>
</g>
<defs>
<clipPath id="clip0">
<rect width="224" height="136" fill="white"/>
</clipPath>
</defs>
</svg>
