<svg width="120" height="170" viewBox="0 0 120 170" fill="none" xmlns="http://www.w3.org/2000/svg">
<path d="M0 85C0 141.556 0.05 170 0.166667 170C0.283333 170 0.333333 141.556 0.333333 85C0.333333 28.4435 0.283333 -3.27826e-06 0.166667 -3.27826e-06C0.05 -3.27826e-06 0 28.4435 0 85Z" fill="black"/>
<path d="M101.733 0.236133C101.683 0.362059 101.683 0.535207 101.75 0.629652C101.883 0.834281 102.617 0.834281 102.7 0.629652C102.767 0.440763 103.85 0.739837 104.017 0.975948C104.067 1.05465 104.6 1.11761 105.2 1.13336C106 1.1491 106.283 1.19632 106.233 1.33798C106.183 1.44817 106.267 1.5741 106.4 1.62132C106.567 1.68428 106.667 1.63706 106.667 1.49539C106.667 1.36947 106.783 1.25928 106.917 1.25928C107.083 1.25928 107.167 1.41669 107.167 1.7315C107.167 2.20373 107.4 2.37687 107.55 1.9991C107.617 1.85743 107.683 1.85743 107.8 2.03058C107.933 2.20373 107.983 2.18799 108.05 1.95187C108.117 1.70002 108.133 1.68428 108.15 1.92039C108.167 2.09354 108.3 2.20373 108.5 2.20373C108.7 2.20373 108.833 2.09354 108.833 1.92039C108.85 1.66854 108.85 1.66854 109.017 1.92039C109.1 2.0778 109.333 2.20373 109.5 2.20373C109.667 2.20373 109.867 2.26669 109.917 2.36113C109.967 2.43984 109.917 2.51854 109.8 2.51854C109.65 2.51854 109.65 2.56576 109.833 2.67595C110 2.77039 110.25 2.72317 110.617 2.51854C110.917 2.36113 111.2 2.28243 111.25 2.34539C111.283 2.4241 111.183 2.51854 111 2.56576C110.817 2.61299 110.667 2.77039 110.667 2.94354C110.683 3.21113 110.683 3.21113 110.85 2.94354C111.05 2.61299 111.65 2.5815 111.767 2.91206C111.833 3.03799 111.933 3.10095 112.017 3.05373C112.1 3.0065 112.417 3.02224 112.75 3.08521C113.167 3.14817 113.333 3.25836 113.333 3.47873C113.333 3.80928 113.6 3.88799 113.7 3.58891C113.75 3.44724 114.033 3.51021 114.633 3.82502C115.1 4.06113 115.667 4.25002 115.867 4.23428C116.6 4.17132 117.017 4.25002 116.917 4.42317C116.733 4.67502 117.317 5.17873 117.683 5.08428C117.867 5.03706 118 5.08428 118 5.19447C118 5.32039 118.2 5.35187 118.65 5.27317C119.183 5.19447 119.367 5.22595 119.65 5.49354L120 5.8241V2.91206V2.18041e-05H110.917C103.117 2.18041e-05 101.817 0.0315033 101.733 0.236133Z" fill="black"/>
<path d="M51.3333 49.4101C51.3333 49.4888 50.9833 49.5518 50.55 49.5518C50.1166 49.5518 49.7333 49.6305 49.7 49.7249C49.6666 49.8194 49.5833 49.8981 49.5 49.8981C49.4166 49.8981 49.15 49.9768 48.8833 50.0712C48.55 50.1814 48.4833 50.2601 48.65 50.3546C48.8 50.449 48.7333 50.512 48.4 50.5907C48.05 50.6851 47.9833 50.7324 48.1666 50.8425C48.3 50.9212 48.4833 50.9212 48.5833 50.8425C48.6666 50.7796 49.0333 50.6694 49.4 50.6222C49.75 50.5592 50.1 50.4805 50.1833 50.4333C50.2666 50.3861 50.3333 50.4648 50.3333 50.6064C50.3333 50.7324 50.1666 50.9212 49.9666 51.0157C49.75 51.0944 49.5 51.362 49.3833 51.5824C49.2 51.9601 49.2 51.9601 49.4666 51.7398C49.7833 51.4564 50.6666 51.0944 50.9 51.1416C50.9666 51.1574 51.1333 51.0472 51.25 50.8898C51.3666 50.7324 51.5333 50.6537 51.6 50.7324C51.6666 50.7953 51.6333 50.8425 51.5333 50.8425C51.4166 50.8425 51.3333 50.8898 51.3333 50.9527C51.3333 51.1416 52.2166 51.1574 52.45 50.9842C52.5666 50.874 52.6833 50.8898 52.7833 51.0314C52.85 51.1416 53.1333 51.3777 53.4 51.5351C53.75 51.7555 53.8166 51.8499 53.65 51.9444C53.5333 52.0231 53.35 52.0388 53.25 51.9759C53.1666 51.9287 53.1833 51.9916 53.3 52.1333C53.4666 52.3379 53.3833 52.4166 52.7166 52.6527C52.2666 52.8101 51.55 53.1092 51.0833 53.3138C50.4 53.6287 50.3166 53.6444 50.6166 53.3925L50.9833 53.0777H50.5833C50.35 53.0777 50.2166 53.1407 50.2666 53.2194C50.35 53.3453 50.1166 53.424 49.8 53.3925C49.75 53.3768 49.6 53.487 49.4666 53.6287C49.2833 53.849 49.2833 53.8805 49.5 53.7546C49.6333 53.6916 49.5333 53.8175 49.2833 54.0379C48.9166 54.3685 48.8333 54.5574 48.9333 54.825C49 55.0138 49.1333 55.2185 49.2333 55.2814C49.3666 55.3759 49.35 55.4074 49.2166 55.4074C49.1 55.4074 49 55.549 49 55.7222C49 55.9111 48.8833 56.037 48.7166 56.037C48.4833 56.037 48.4666 56.0685 48.6333 56.1787C48.8333 56.2888 48.8166 56.399 48.6 56.7925C48.45 57.0601 48.3333 57.4064 48.35 57.5638C48.35 57.8157 48.3666 57.8157 48.4833 57.5481C48.5666 57.3277 48.65 57.2962 48.7333 57.4222C48.8 57.5324 49.0166 57.5796 49.2666 57.5166C49.5 57.4537 49.6666 57.4851 49.6666 57.5796C49.6666 57.674 49.85 57.9416 50.0833 58.1777C50.4833 58.5712 50.5 58.587 50.5 58.2722C50.5 58.0361 50.5833 57.9574 50.75 58.0203C50.8833 58.0833 51 58.0361 51 57.9574C51 57.8629 51.2166 57.8157 51.5 57.8472C51.7666 57.8787 52.05 57.8314 52.1 57.737C52.1666 57.6268 52.1333 57.6111 52.0333 57.674C51.9166 57.737 51.8333 57.7055 51.8333 57.6111C51.8333 57.5166 52.1 57.3277 52.4166 57.2018C52.7333 57.0759 53.0166 56.887 53.0166 56.7768C53.0333 56.6824 53.0666 56.4305 53.0833 56.2416C53.1 56.0527 53 55.8481 52.85 55.8009C52.65 55.7222 52.6333 55.675 52.8166 55.5805C53.1166 55.3916 55.1833 55.5648 56.4666 55.8638C57.2666 56.0527 59 56.2259 59 56.1157C59 55.8953 57.65 55.5805 56.3333 55.4861C55.9166 55.4703 55.4 55.3916 55.1666 55.3444C54.9333 55.2814 54.1833 55.2027 53.5 55.1712C52.8166 55.124 52.2166 55.0925 52.1666 55.0768C52.1166 55.0611 52.0166 55.0768 51.9166 55.0925C51.8333 55.124 51.4666 55.1555 51.1166 55.1712C50.6 55.2185 50.5166 55.1712 50.6666 54.9981C50.7833 54.8879 50.8 54.699 50.7333 54.6046C50.65 54.4787 50.6833 54.4629 50.8333 54.5416C51 54.6361 51.0333 54.5888 50.9666 54.3527C50.8166 53.849 51.1 53.5657 52.1333 53.1879C53.3333 52.7472 55.1666 52.6999 55.5833 53.1092C55.8833 53.3768 56.0833 53.4555 55.9333 53.2194C55.8833 53.1407 55.95 53.0305 56.1 52.9833C56.5 52.8416 56.6166 52.8731 56.3333 53.062C56.1333 53.2037 56.15 53.2194 56.45 53.1564C57.0166 53.0462 58.5 53.3611 58.8666 53.6759C59.05 53.8333 59.5333 54.1324 59.9333 54.337C60.3833 54.5574 60.6666 54.8092 60.6666 54.9824C60.6666 55.1398 60.75 55.2185 60.8333 55.1712C60.9333 55.1083 60.9666 54.9981 60.9 54.9194C60.85 54.8407 60.8833 54.6675 60.9833 54.5574C61.1 54.4314 61.1666 54.274 61.15 54.2111C61.1333 54.1324 61.1333 53.8962 61.15 53.6916C61.1666 53.3138 61.1666 53.3138 61.5166 53.6129C61.7166 53.7703 61.9333 54.0537 62.0166 54.2268C62.1166 54.4629 62.15 54.3527 62.15 53.8333C62.1666 53.1564 62 52.6999 61.7666 52.7157C61.45 52.7472 61.2 52.5111 61.2833 52.2907C61.3666 52.0861 61.3333 52.0703 61.1833 52.1962C61.0166 52.3379 60.8666 52.3222 60.5333 52.1648C60.2833 52.0388 59.9666 51.9444 59.8333 51.9444C59.7 51.9444 59.5 51.787 59.4166 51.5824C59.3166 51.3777 59.1 51.2361 58.85 51.2203C58.4333 51.2046 58.1666 50.9212 58.1666 50.4962C58.1666 50.2287 57.6 49.9611 57.1833 50.0398C57.0666 50.0555 56.7333 49.9925 56.4666 49.8824C56.0833 49.7407 55.9333 49.7407 55.7833 49.8981C55.6166 50.0555 55.65 50.0712 55.9333 49.9925C56.1666 49.9296 56.4166 50.0083 56.6833 50.2129L57.0833 50.5435L56.5833 50.3231C56.3166 50.1972 56 50.1342 55.8833 50.1657C55.5333 50.2916 55 49.9138 55.1 49.6148C55.1666 49.4574 55.1333 49.4101 55.05 49.5046C54.8833 49.7092 53.5 49.7722 53.5 49.5675C53.5 49.4888 53.15 49.4574 52.7166 49.4888C52.2666 49.5203 51.7833 49.4888 51.6333 49.4101C51.45 49.3157 51.3333 49.3157 51.3333 49.4101Z" fill="black"/>
<path d="M71.0834 51.488C71.0167 51.5824 70.8667 51.6139 70.7334 51.5667C70.6001 51.5195 70.3667 51.5352 70.2001 51.6139C70.0501 51.6926 69.7834 51.8028 69.6167 51.85C69.4501 51.8972 69.3501 52.0074 69.4001 52.0704C69.4501 52.1491 69.3001 52.1806 69.0834 52.1333C68.8501 52.1019 68.6667 52.1333 68.6667 52.2435C68.6667 52.3222 68.8001 52.3695 68.9667 52.3222C69.2334 52.2435 69.2334 52.2435 68.9501 52.4167C68.8001 52.5111 68.5667 52.5426 68.4667 52.4796C68.3501 52.4167 67.7501 52.3537 67.1334 52.338C65.8334 52.338 65.7334 52.4639 66.5001 53.1722C66.7834 53.4398 67.0001 53.7074 67.0001 53.7861C67.0001 53.8491 67.3001 54.2269 67.6667 54.6204C68.1334 55.1084 68.3667 55.2658 68.4667 55.1398C68.5334 55.0296 68.7501 54.9824 68.9501 55.0296L69.3001 55.1241L68.9834 55.8167C68.8167 56.2102 68.7334 56.4935 68.8167 56.4463C68.9001 56.3991 69.0001 56.4463 69.0501 56.5722C69.1667 56.8556 70.1167 57.013 70.5167 56.8084C70.7501 56.6982 71.0167 56.6982 71.3834 56.8084C71.6834 56.8871 72.2167 56.9815 72.5834 57.013C73.1667 57.0602 73.2501 57.013 73.3334 56.6667C73.5001 56.0056 73.3501 55.7065 72.9001 55.8167C72.6334 55.8796 72.5001 55.8482 72.5001 55.7222C72.5001 55.4389 73.7834 55.6278 74.1667 55.9584C74.3334 56.1 74.5501 56.1787 74.6334 56.1315C74.8834 55.9898 75.6834 56.7769 75.5667 57.0445C75.5167 57.1861 75.5501 57.2963 75.6667 57.2963C75.7667 57.2963 75.8001 57.3593 75.7501 57.4537C75.7001 57.5482 75.7667 57.5639 75.9001 57.5167C76.0501 57.4695 76.1667 57.5009 76.1667 57.5954C76.1667 57.8787 77.1667 58.2093 77.7834 58.1463C78.1667 58.0991 78.3667 58.1621 78.4834 58.3509C78.5834 58.5084 78.6667 58.5556 78.6667 58.4296C78.6667 58.3037 78.8334 58.2565 79.1667 58.3195C79.6167 58.3982 79.7001 58.3509 79.9001 57.8945C80.1334 57.375 79.9501 56.5722 79.6501 56.7611C79.5667 56.8084 79.5501 56.7296 79.6001 56.6037C79.6501 56.4621 79.6167 56.3519 79.5167 56.3519C79.4167 56.3519 79.3334 56.2417 79.3334 56.1158C79.3334 55.9898 79.2334 55.8796 79.1001 55.8796C78.9834 55.8796 78.7834 55.7695 78.6667 55.6435C78.3501 55.2815 77.1001 54.8093 75.7667 54.5417C75.0834 54.4158 74.4001 54.2741 74.2334 54.2111C73.4167 53.9593 73.0001 53.7861 73.0001 53.6759C73.0001 53.5185 73.7834 53.2037 74.1667 53.2037C74.3501 53.2037 74.5001 53.1408 74.5001 53.0621C74.5001 52.9833 74.9334 52.9519 75.4667 52.9991C75.9834 53.0463 76.6001 53.0935 76.8167 53.1093C77.0334 53.1093 77.2501 53.2195 77.3001 53.3139C77.3334 53.4241 77.4667 53.5185 77.6001 53.5185C77.7334 53.5185 77.8334 53.5815 77.8334 53.6602C77.8334 53.8648 78.3667 54.0222 78.4834 53.8648C78.5334 53.7861 78.7001 53.6759 78.8334 53.6287C78.9834 53.5815 78.9167 53.5343 78.6501 53.5343C78.2001 53.5185 77.2501 52.8889 77.6834 52.8889C77.8667 52.8889 77.8667 52.8574 77.6667 52.7315C77.4501 52.6056 77.4501 52.5741 77.7001 52.5741C77.8501 52.5741 78.0334 52.4954 78.1001 52.3852C78.1834 52.2593 78.1001 52.2435 77.8334 52.3065C77.6334 52.3537 77.3001 52.3065 77.1001 52.1963C76.9167 52.0704 76.4334 52.0074 76.0501 52.0232C75.6501 52.0389 75.3834 52.0074 75.4167 51.9445C75.5501 51.7398 75.1167 51.6769 74.5001 51.8028C74.1834 51.8658 73.8834 51.8658 73.8334 51.8028C73.7834 51.7241 73.5667 51.6139 73.3334 51.5509C72.9501 51.4565 72.9501 51.4565 73.2167 51.6454C73.4834 51.85 73.4501 51.8658 72.9667 51.8815C72.6667 51.8972 72.5167 51.8658 72.6334 51.8343C72.7334 51.7871 72.8334 51.7083 72.8334 51.6454C72.8334 51.5037 71.8167 51.6611 71.2501 51.8658C70.9167 51.9917 70.9167 51.9917 71.2334 51.6611C71.4167 51.4722 71.4667 51.3148 71.3667 51.3148C71.2667 51.3148 71.1334 51.3935 71.0834 51.488Z" fill="black"/>
<path d="M37.8333 59.8935C37.8333 60.0194 38.0666 60.5861 38.3499 61.1528C38.9333 62.3176 39.6333 62.837 40.1333 62.4592C40.3499 62.3018 40.3666 62.3018 40.2666 62.4592C40.1833 62.5852 40.2999 62.7741 40.5666 62.9787C40.7999 63.1518 40.9999 63.4037 40.9999 63.5296C40.9999 63.6713 41.0833 63.9074 41.1833 64.0805C41.3166 64.3481 41.3999 64.3639 41.5999 64.2065C41.8166 64.0491 41.8333 64.0805 41.7666 64.4268C41.7166 64.6629 41.7499 64.8518 41.8333 64.8518C41.8999 64.8518 41.9499 65.1037 41.9333 65.4028C41.9166 65.7018 41.9666 65.9537 42.0333 65.9537C42.0833 65.9537 42.0833 66.1583 41.9999 66.4259C41.9166 66.6778 41.9166 66.8981 41.9833 66.8981C42.0499 66.8981 42.0999 67.0555 42.1166 67.2444C42.1333 67.5435 42.0833 67.4963 41.8166 67.0555C41.6333 66.7565 41.5166 66.6305 41.5666 66.7722C41.6166 66.9296 41.5833 67.0555 41.4833 67.0555C41.3833 67.0555 41.3666 67.1185 41.4166 67.2129C41.4666 67.2916 41.4499 67.3704 41.3666 67.3704C41.2666 67.3704 41.1666 67.6222 41.1333 67.937C41.0833 68.4092 41.1166 68.4879 41.3499 68.425C41.6999 68.3305 41.9333 68.787 41.6333 68.9602C41.4999 69.0389 41.5499 69.0861 41.7999 69.0546C42.0499 69.0389 42.1666 68.9287 42.1833 68.7083C42.1833 68.5352 42.2333 68.4879 42.2833 68.5981C42.3333 68.7083 42.3166 68.9129 42.2333 69.0704C42.0166 69.5583 42.0166 69.7629 42.2666 69.6685C42.5166 69.5741 42.5833 69.7629 42.3833 69.9518C42.1999 70.125 42.1666 70.5657 42.3499 70.7704C42.4333 70.8648 42.4833 71.337 42.4833 71.8092C42.4666 72.2815 42.5333 72.8009 42.6333 72.9741C42.7333 73.1472 42.8333 73.9185 42.8499 74.6898C42.8833 75.4768 42.9499 76.1694 43.0166 76.2639C43.0666 76.3426 43.1333 76.6259 43.1499 76.8935C43.1499 77.1454 43.1833 77.4759 43.2166 77.6018C43.2999 78.0268 43.8833 79.3963 44.0999 79.7111C44.2166 79.8685 44.2666 80.1046 44.2166 80.2463C44.1333 80.4194 44.1666 80.4509 44.3333 80.3565C44.4833 80.2778 44.5166 80.2935 44.4333 80.4194C44.2833 80.6398 44.4666 81.2537 44.6666 81.1435C44.7333 81.0963 44.7999 81.1592 44.7833 81.2694C44.7833 81.3639 44.7999 81.6 44.8166 81.7731C44.8333 82.0407 44.8666 82.0565 44.9999 81.8518C45.1333 81.6472 45.1666 81.6629 45.1666 81.9148C45.1666 82.0722 45.3166 82.4342 45.4833 82.7018C45.7166 83.0481 45.7666 83.2685 45.6666 83.4259C45.4333 83.7565 45.4666 83.9454 45.7166 83.788C45.8166 83.725 45.7666 83.8824 45.5999 84.1342L45.2833 84.6065L45.6166 84.3231C45.9499 84.0555 45.9499 84.0555 45.8666 84.4491C45.8333 84.6852 45.6999 84.8268 45.5833 84.7954C45.4833 84.7481 45.3999 84.8426 45.4166 85.0157C45.4333 85.3463 45.6666 85.6296 45.6666 85.3463C45.6666 85.2361 45.7833 85.1574 45.9166 85.1574C46.0499 85.1574 46.1666 85.2676 46.1666 85.4092C46.1666 85.5352 46.2499 85.5981 46.3499 85.5352C46.4833 85.4722 46.4833 85.5194 46.3666 85.7241C46.2833 85.8972 46.1666 86.1333 46.0999 86.2592C46.0499 86.3852 46.0333 86.3222 46.0833 86.1018C46.1166 85.8815 46.0833 85.6139 46.0166 85.488C45.9166 85.3463 45.8833 85.4092 45.8833 85.7083C45.8833 85.9444 45.7666 86.1963 45.6499 86.275C45.4666 86.4009 45.4833 86.4639 45.7333 86.6528C46.0166 86.8574 46.0166 86.8889 45.7999 86.8889C45.4833 86.8889 45.2833 86.4324 45.4333 86.0074C45.5166 85.7241 45.5166 85.7241 45.3333 86.0074C44.9999 86.4796 45.3833 87.0778 45.9666 87.0148C46.3166 86.9833 46.4333 86.8574 46.5166 86.4954C46.5833 86.2278 46.6333 86.0861 46.6499 86.1805C46.6666 86.2592 46.7833 86.1963 46.9166 86.0389C47.0499 85.8657 47.1666 85.8028 47.1666 85.8972C47.1666 85.9917 47.0499 86.1491 46.9166 86.2592C46.7833 86.3694 46.6666 86.5268 46.6666 86.6055C46.6666 86.7 46.7833 86.6685 46.9499 86.5583C47.1999 86.3537 47.1999 86.3694 46.9833 86.7157C46.7999 86.9991 46.7999 87.1092 46.9666 87.1565C47.0666 87.2037 47.1666 87.3611 47.1666 87.5342C47.1666 87.912 47.4333 87.9278 47.6499 87.55C47.7999 87.3139 47.8333 87.3296 47.8499 87.6759C47.8666 87.8963 47.8499 88.1796 47.8333 88.2898C47.8166 88.4787 47.8499 88.4787 48.0333 88.337C48.2166 88.2111 48.3166 88.2268 48.4666 88.4787C48.5833 88.6361 48.7833 88.7778 48.9166 88.7778C49.0499 88.7778 49.1666 88.8565 49.1666 88.9509C49.1666 89.0296 49.2333 89.0768 49.2999 89.0296C49.5166 88.9037 50.1833 89.4074 50.0666 89.5805C50.0166 89.675 50.2833 89.8481 50.6499 89.9898C51.0333 90.1315 51.3333 90.3046 51.3333 90.3833C51.3333 90.4463 51.4333 90.5092 51.5666 90.5092C51.6999 90.5092 51.8499 90.6352 51.8999 90.7768C51.9666 90.9342 52.3166 91.2648 52.7166 91.5324C53.0999 91.7842 53.5166 92.1148 53.6333 92.2722C53.7499 92.4296 53.9499 92.5555 54.0833 92.5555C54.2166 92.5555 54.6166 92.6972 54.9833 92.8861C55.4166 93.0907 55.7833 93.1694 56.0166 93.1065C56.2499 93.0278 56.3333 93.0592 56.2666 93.1537C56.0999 93.4055 56.4999 93.563 57.3999 93.5944C58.2166 93.6259 58.2166 93.6259 57.8333 93.3426C57.4499 93.075 57.4499 93.0592 58.2499 93.1222C58.6999 93.1694 59.1666 93.2796 59.2999 93.3741C59.4833 93.5315 59.5833 93.5 59.7666 93.2639C59.8999 93.1065 59.9999 93.0592 59.9999 93.1694C59.9999 93.2954 60.1666 93.3268 60.5833 93.2481C61.0666 93.1694 61.1666 93.2009 61.1666 93.4055C61.1666 93.563 61.2499 93.6259 61.3333 93.5787C61.4333 93.5157 61.4666 93.4055 61.4166 93.3268C61.3499 93.2481 61.3999 93.1852 61.4999 93.1852C61.5999 93.1852 61.6333 93.0907 61.5833 92.9805C61.5166 92.8861 61.5833 92.9176 61.7333 93.0907C61.9666 93.3741 62.1833 93.3741 62.8833 93.1065C63.0499 93.0435 63.1666 93.0592 63.1666 93.1852C63.1666 93.437 63.6499 93.8778 63.7999 93.7518C63.8499 93.6889 63.7999 93.5787 63.6833 93.5157C63.5666 93.437 63.5166 93.2954 63.5833 93.1852C63.6666 93.0592 63.7833 93.075 63.9999 93.2639C64.2999 93.5157 65.2499 93.4528 65.0833 93.1852C65.0333 93.1065 65.0666 92.9963 65.1666 92.9491C65.2666 92.8861 65.3166 92.9333 65.2999 93.0592C65.2666 93.1694 65.3666 93.2481 65.4999 93.2167C65.6999 93.1694 65.7166 93.2009 65.5499 93.3583C65.2833 93.6102 65.2666 93.8778 65.5333 93.7204C65.6666 93.6417 65.6833 93.6889 65.5999 93.8935C65.4999 94.1454 65.5333 94.1454 65.7833 93.9565C66.0333 93.7518 66.0499 93.7676 65.9333 94.0509C65.8333 94.3028 65.8499 94.3185 66.0166 94.1768C66.1833 94.0194 66.2666 94.0352 66.4499 94.2555C66.5833 94.3972 66.6499 94.4287 66.5833 94.3185C66.5166 94.2083 66.5666 94.0037 66.6833 93.8778C66.8499 93.6889 66.9166 93.6889 67.0333 93.8463C67.1499 93.988 67.1666 93.9092 67.0999 93.6259C67.0333 93.3741 67.0833 93.1537 67.1999 93.0907C67.2999 93.0278 67.3333 93.0435 67.2833 93.1537C67.2166 93.2324 67.2333 93.4685 67.2999 93.6574C67.4333 93.988 67.4333 93.988 67.6666 93.5944C67.8333 93.2954 67.9833 93.2009 68.1999 93.2796C68.3833 93.3268 68.6166 93.2954 68.7499 93.1852C68.8999 93.075 68.9999 93.0592 69.0833 93.1694C69.1499 93.2796 69.2833 93.2796 69.4999 93.138C69.8833 92.9176 69.9499 92.6342 69.5999 92.7602C69.4333 92.8231 69.3833 92.7759 69.4499 92.6185C69.5499 92.3509 69.7833 92.3352 69.8833 92.587C69.9333 92.713 70.1666 92.5713 70.5166 92.1935C70.8333 91.8787 71.1666 91.6111 71.2499 91.6111C71.3499 91.6111 71.2999 91.6898 71.1666 91.7685C71.0166 91.863 70.9999 91.9259 71.1166 91.9259C71.2166 91.9259 71.4333 91.7685 71.5666 91.5796C71.7166 91.3907 71.8333 91.2805 71.8333 91.3592C71.8333 91.438 71.9499 91.4065 72.0833 91.2963C72.2166 91.1861 72.3333 91.1546 72.3333 91.2333C72.3333 91.312 72.4499 91.2018 72.5999 91.013C72.7333 90.8241 72.9833 90.6667 73.1333 90.6667C73.2999 90.6667 73.5166 90.525 73.6333 90.3518C73.7499 90.1787 73.9166 90.037 74.0166 90.037C74.0999 90.037 74.1333 90.1 74.0833 90.1944C74.0333 90.2731 74.0499 90.3518 74.1166 90.3518C74.1999 90.3518 74.3499 90.2102 74.4666 90.0213C74.6333 89.7694 74.7999 89.7222 75.1333 89.7852C75.5333 89.8796 75.5499 89.8639 75.2833 89.6592C75.0499 89.4861 75.0333 89.4231 75.2166 89.2657C75.3499 89.1713 75.4999 89.1398 75.5499 89.187C75.6166 89.25 75.9833 88.9667 76.3833 88.5574C76.7833 88.1639 77.2166 87.8333 77.3499 87.8333C77.5333 87.8333 77.5333 87.8648 77.3333 87.9907C77.1999 88.0694 77.1666 88.1481 77.2666 88.1481C77.3666 88.1481 77.5499 88.038 77.6666 87.912C77.7833 87.7861 77.9333 87.7074 77.9999 87.7546C78.0833 87.8018 78.1833 87.7704 78.2499 87.6759C78.3166 87.5815 78.4333 87.55 78.5166 87.5972C78.5999 87.6602 78.5999 87.55 78.5166 87.3139C78.4166 87.0935 78.3999 86.8731 78.4666 86.8259C78.5166 86.763 78.3999 86.6842 78.1999 86.6213C77.8333 86.5426 77.7499 86.4009 77.9499 86.212C77.9999 86.1491 78.1499 86.2278 78.2666 86.3852C78.4666 86.6213 78.5166 86.6213 78.6666 86.4167C78.7499 86.2907 78.8166 86.0389 78.7833 85.8657C78.7666 85.6768 78.8499 85.5509 78.9999 85.5509C79.2666 85.5509 80.3833 84.5592 80.4333 84.2917C80.4333 84.1972 80.4666 83.9768 80.4666 83.7722C80.4833 83.5833 80.5999 83.4259 80.7333 83.4259C80.8666 83.4259 80.9499 83.3 80.9333 83.1426C80.9333 83.0009 80.9999 82.8907 81.0999 82.9065C81.2166 82.9222 81.3333 82.7963 81.3833 82.6389C81.4333 82.4657 81.3999 82.3241 81.3166 82.3241C81.2333 82.3241 81.1666 82.2454 81.1666 82.1667C81.1666 82.0722 81.2833 82.0092 81.4333 82.0092C81.6166 82.0092 81.6666 81.9148 81.5833 81.6944C81.5166 81.5055 81.5499 81.3796 81.6666 81.3796C81.7666 81.3796 81.8166 81.3167 81.7499 81.2379C81.6999 81.1592 81.7666 80.9861 81.8999 80.8602C82.0333 80.7342 82.0999 80.5768 82.0333 80.5296C81.9833 80.4667 82.0333 80.3565 82.1499 80.2778C82.2999 80.1991 82.3333 80.0417 82.2666 79.8685C82.1666 79.6167 82.1166 79.6167 81.9833 79.8055C81.8333 79.9944 81.8166 79.9944 81.8999 79.7583C81.9499 79.6167 81.9499 79.4907 81.8999 79.4907C81.7999 79.4907 80.8999 80.3407 80.7166 80.6241C80.5333 80.8917 79.7499 81.5055 79.8999 81.2537C79.9666 81.1592 79.9333 81.0648 79.8499 81.0648C79.7499 81.0648 79.6666 81.0018 79.6666 80.9074C79.6666 80.8287 79.7999 80.8129 79.9666 80.8602C80.1999 80.9546 80.2166 80.9231 80.0333 80.7185C79.7833 80.4352 79.9999 80.2305 80.3999 80.3722C80.6166 80.4509 80.6333 80.3879 80.4999 79.9629C80.3166 79.3648 80.0666 79.0815 80.2166 79.6167C80.2666 79.8213 80.2666 79.9472 80.2166 79.9C80.1666 79.8528 79.9833 79.8842 79.7999 79.9787C79.5833 80.0889 79.5166 80.2463 79.5833 80.4824C79.6666 80.75 79.6499 80.7815 79.5166 80.5926C79.4333 80.4667 79.2999 80.4194 79.2166 80.4824C79.1499 80.5611 79.1833 80.6713 79.2999 80.7342C79.5333 80.8602 79.3999 81.3796 79.1333 81.3796C79.0499 81.3796 79.0333 81.3009 79.0833 81.2222C79.1333 81.1278 79.0999 81.0648 78.9999 81.0648C78.8999 81.0648 78.8499 81.0018 78.8999 80.9231C78.9499 80.8444 78.8999 80.75 78.7666 80.7028C78.6333 80.6555 78.4833 80.7185 78.4333 80.8444C78.3833 80.9546 78.3999 81.0491 78.4666 81.0176C78.6833 80.9546 79.3499 81.6944 79.2333 81.8676C79.1666 81.9935 79.0833 81.9778 78.9833 81.8361C78.8833 81.6787 78.8333 81.7889 78.8166 82.1667L78.7999 82.7176L78.5666 82.2454C78.3833 81.8991 78.3333 81.8676 78.3999 82.1194C78.4833 82.5444 78.3666 82.5759 78.0999 82.2454C77.9499 82.0565 77.9166 82.2926 77.9499 83.2685C77.9833 84.4176 77.9499 84.5278 77.6666 84.5278C77.3833 84.5278 77.3333 84.4176 77.3333 83.8509C77.3333 83.3472 77.2666 83.1583 77.0833 83.1583C76.8333 83.1583 76.8166 83.5046 77.0666 83.8824C77.1666 84.0241 77.0833 84.1972 76.8166 84.4018C76.5999 84.5592 76.5333 84.6694 76.6666 84.638C76.7999 84.6065 76.8499 84.6065 76.7833 84.6537C76.7166 84.6852 76.7333 84.7954 76.8166 84.9055C76.9999 85.1102 76.9833 85.4407 76.7833 85.7555C76.6999 85.85 76.5333 86.1333 76.3999 86.3852C76.2833 86.6213 76.1666 86.7 76.1666 86.5741C76.1833 86.4481 76.2833 86.1648 76.4166 85.9444C76.5499 85.7241 76.6499 85.5037 76.6666 85.4407C76.6666 85.2676 76.1999 85.4722 76.1166 85.6768C76.0833 85.787 76.0666 85.7241 76.0999 85.5509C76.1499 85.2361 76.1499 85.2361 75.9166 85.5352C75.6666 85.8342 75.6666 85.8342 75.6666 85.488C75.6666 85.1889 75.7333 85.1417 76.0499 85.2046C76.2499 85.2676 76.5166 85.2361 76.6499 85.1731C76.8333 85.063 76.8166 85 76.5833 84.8898C76.3499 84.7639 76.3333 84.6694 76.4833 84.3861C76.5999 84.1972 76.7499 84.087 76.8333 84.1342C76.9333 84.1815 76.9499 84.1185 76.8999 83.9926C76.8499 83.8509 76.7499 83.7722 76.6833 83.8037C76.6166 83.8509 76.4666 83.8037 76.3333 83.7092C76.1333 83.5833 76.1499 83.5676 76.4166 83.6463C76.7499 83.7407 76.7499 83.7407 76.4333 83.5046C76.2499 83.3787 76.0166 83.2685 75.9333 83.2685C75.8333 83.2685 75.8666 83.2055 75.9999 83.1111C76.1499 83.0167 76.2833 83.0324 76.3833 83.1583C76.4666 83.2685 76.4666 83.1741 76.3999 82.9537C76.2999 82.5917 76.2999 82.5759 76.5999 82.7963C76.8999 83.0167 76.8999 83.0167 76.6833 82.7491C76.5499 82.5917 76.3333 82.5129 76.2166 82.5444C76.0499 82.6074 75.9999 82.5602 76.0666 82.3555C76.1333 82.1981 76.0499 81.9305 75.8999 81.7574C75.6499 81.4583 75.6499 81.4583 75.7166 81.8046C75.7999 82.1824 75.4999 82.3713 75.1499 82.1509C74.9666 82.025 74.9833 81.9463 75.3166 81.6944C75.5166 81.5213 75.7833 81.4268 75.8833 81.4898C75.9999 81.5528 76.0166 81.4898 75.9499 81.3167C75.8499 81.0963 75.8999 81.0491 76.1166 81.1278C76.3666 81.2222 76.3666 81.2065 76.1499 80.9546C75.9999 80.7972 75.7999 80.3722 75.6666 79.9944C75.4499 79.3491 75.2999 79.2546 75.2333 79.7268C75.2166 79.8528 75.2666 79.9629 75.3499 79.9629C75.4333 79.9629 75.4999 80.1361 75.4999 80.3565C75.4999 80.5768 75.5833 80.75 75.6666 80.75C75.7666 80.75 75.8333 80.8287 75.8333 80.9231C75.8333 81.0176 75.7166 81.0648 75.5833 81.0018C75.4499 80.9546 75.3166 80.9861 75.3166 81.0648C75.2999 81.1592 75.2833 81.2852 75.2666 81.3639C75.2333 81.6157 74.9999 81.7574 74.9999 81.537C74.9999 81.4111 74.8833 81.4583 74.6999 81.6629L74.3833 81.9935L74.0333 81.6787C73.8333 81.5055 73.6666 81.4268 73.6666 81.4898C73.6666 81.5528 73.5833 81.5055 73.4999 81.3796C73.4166 81.2537 73.3333 81.2222 73.3333 81.3167C73.3333 81.4111 73.3833 81.537 73.4499 81.6C73.5166 81.6472 73.5833 81.7889 73.5999 81.8991C73.6666 82.2926 74.1166 82.9379 74.2499 82.8278C74.3333 82.7648 74.3333 82.812 74.2666 82.9065C74.1999 83.0167 74.2333 83.1111 74.3166 83.1111C74.4166 83.1111 74.4999 83.2685 74.4833 83.4574C74.4833 83.8194 74.4833 83.8194 74.3333 83.4889C74.1333 83.0324 73.6666 82.875 73.6666 83.2685C73.6666 83.4574 73.7499 83.5361 73.8999 83.4889C74.0166 83.4417 74.1666 83.5361 74.2333 83.6935C74.2833 83.8509 74.3833 84.087 74.4333 84.213C74.4999 84.3389 74.3999 84.2917 74.2333 84.1028C73.9666 83.8037 73.8833 83.788 73.7166 83.9768C73.5499 84.1342 73.5833 84.2759 73.8499 84.5907C74.0333 84.8111 74.1166 85 74.0333 85C73.9333 85 73.8333 84.9213 73.7999 84.8111C73.6833 84.512 73.3333 84.8268 73.3333 85.2518C73.3333 85.4565 73.1833 85.7083 72.9999 85.8185C72.8166 85.9287 72.6666 86.1333 72.6666 86.275C72.6666 86.4009 72.5499 86.5268 72.4166 86.5268C72.2833 86.5268 72.1666 86.4639 72.1666 86.3852C72.1666 86.3222 72.2499 86.2592 72.3333 86.2592C72.4333 86.2592 72.4999 86.1805 72.4999 86.0861C72.4999 86.0074 72.4333 85.9602 72.3499 86.0231C72.2666 86.0704 72.1499 86.0389 72.0833 85.9444C71.9166 85.6926 71.6999 85.7555 71.7333 86.0546C71.7499 86.3065 71.6166 86.338 70.7666 86.275C70.6333 86.2592 70.4666 86.1018 70.4166 85.9287C70.2999 85.6139 70.2666 85.6296 69.9666 86.1333C69.6999 86.5741 69.5333 86.6842 69.0666 86.7C68.4833 86.7157 68.2499 86.3852 68.7333 86.212C68.8833 86.1648 68.9333 85.9759 68.8833 85.7241C68.7833 85.2676 68.5499 85.1574 68.5666 85.5824C68.5833 85.7398 68.5166 85.8657 68.4166 85.8657C68.3333 85.8657 68.2666 85.787 68.2999 85.7083C68.3333 85.6139 68.2833 85.6139 68.1666 85.7241C68.0499 85.8342 68.0666 86.0546 68.2499 86.5111C68.4666 86.9991 68.4666 87.062 68.2666 86.8417C68.0999 86.6213 68.0166 86.6055 67.9499 86.763C67.8999 86.8731 67.8499 86.7944 67.8333 86.5741C67.8166 86.3537 67.7666 86.275 67.7166 86.3852C67.6833 86.4796 67.5666 86.5268 67.4666 86.4796C67.3833 86.4167 67.3166 86.5426 67.3333 86.7472C67.3499 86.9518 67.3666 87.2667 67.3499 87.4398C67.3333 87.6917 67.2999 87.7074 67.1666 87.5185C67.0666 87.3768 67.0833 87.2509 67.2166 87.1722C67.3499 87.0935 67.3166 87.0463 67.0999 87.0463C66.8999 87.0463 66.8333 87.125 66.8999 87.2824C66.9499 87.4241 66.8499 87.5815 66.6666 87.6759C66.3333 87.8491 66.3333 87.8333 66.6666 87.2824C66.8499 86.9676 66.9333 86.7472 66.8333 86.8102C66.7499 86.8574 66.6666 86.8259 66.6666 86.7472C66.6666 86.6528 66.5666 86.5741 66.4333 86.5741C66.0833 86.5741 65.9166 86.2435 66.1833 86.0861C66.5666 85.8657 66.7166 85.9287 66.4833 86.212C66.2833 86.4639 66.2833 86.4796 66.5166 86.3065C66.6999 86.1648 66.8333 86.1648 66.9499 86.275C67.0833 86.4009 67.1666 86.4009 67.2333 86.275C67.2999 86.1805 67.2666 86.1018 67.1666 86.1018C67.0666 86.1018 67.0333 85.9287 67.0666 85.6926C67.1499 85.2833 67.1499 85.2833 66.8166 85.5667C66.5499 85.787 66.4499 85.8028 66.3499 85.6454C66.2333 85.4722 66.1499 85.4722 65.8666 85.6454C65.5999 85.8028 65.5666 85.913 65.6999 86.0546C65.8999 86.275 65.7666 86.7315 65.4999 86.7315C65.4166 86.7315 65.3333 86.5898 65.3333 86.4009C65.3333 86.1491 65.2666 86.1018 64.9666 86.1805C64.6666 86.275 64.6333 86.2435 64.7333 86.0074C64.8333 85.7555 64.8166 85.7398 64.6333 85.913C64.5166 86.0231 64.4166 86.3852 64.4166 86.7315C64.4166 87.4083 64.2833 87.5185 64.0166 87.0778C63.8999 86.9046 63.8499 86.8731 63.8333 87.0305C63.8333 87.2037 63.7833 87.2037 63.5833 87.0463C63.4499 86.9361 63.3833 86.7944 63.4333 86.7157C63.4833 86.637 63.3666 86.5741 63.1833 86.5741C62.9999 86.5741 62.7999 86.637 62.7499 86.7315C62.6999 86.8102 62.7666 86.8889 62.8999 86.8889C63.0333 86.8889 63.1999 86.9676 63.2666 87.062C63.3333 87.1722 63.2833 87.2194 63.1499 87.1722C63.0166 87.125 62.7833 87.1565 62.5999 87.2352C62.3833 87.3454 62.3333 87.3454 62.3999 87.2194C62.4666 87.125 62.4499 87.0463 62.3499 87.0463C62.2666 87.0463 62.1333 87.1092 62.0833 87.2037C62.0333 87.2824 61.8833 87.3611 61.7833 87.3454C61.6666 87.3454 61.7499 87.2352 61.9666 87.0935C62.1666 86.9676 62.3333 86.7315 62.3333 86.5898C62.3333 86.3694 62.2999 86.3694 62.1666 86.5741C62.0166 86.7787 61.9999 86.7787 61.9999 86.5741C61.9833 86.3852 61.9499 86.4009 61.8166 86.6213C61.7166 86.763 61.5833 86.8574 61.4999 86.8102C61.4166 86.763 61.1833 86.8731 60.9999 87.0463C60.6833 87.3454 60.6833 87.3926 60.9166 87.613C61.2999 87.975 61.2166 88.038 60.7499 87.7389C60.5166 87.5972 60.3833 87.4241 60.4333 87.3454C60.4833 87.2667 60.4333 87.2037 60.3166 87.2037C60.1999 87.2037 60.1666 87.1565 60.2166 87.0935C60.2833 87.0463 60.2666 86.9204 60.1833 86.8259C59.9999 86.5898 59.8333 85.9444 59.9833 85.9759C60.2666 86.0074 60.3499 85.9287 60.1999 85.7398C60.0333 85.5509 59.9999 85.4565 59.9999 85.1574C59.9999 85.063 59.9333 85 59.8333 85C59.7499 85 59.6666 85.0944 59.6666 85.2204C59.6666 85.3463 59.5499 85.488 59.3999 85.5352C59.2666 85.5824 59.1999 85.7083 59.2666 85.8028C59.3499 85.9287 59.3166 85.9444 59.1833 85.8815C59.0666 85.8028 59.0166 85.6611 59.0666 85.5352C59.1166 85.4092 59.0833 85.3148 58.9833 85.3148C58.7666 85.3148 58.8499 86.2907 59.0833 86.4481C59.1833 86.5268 59.1833 86.5741 59.0499 86.5741C58.9499 86.5741 58.7999 86.4954 58.7499 86.4167C58.6666 86.2907 58.5666 86.3065 58.3999 86.4324C58.1166 86.6528 58.1166 86.5741 58.3333 86.0231C58.4499 85.7241 58.4499 85.6454 58.2999 85.7241C58.1999 85.787 58.2499 85.6611 58.4166 85.4407C58.7333 85.063 59.1666 84.9055 59.1666 85.1889C59.1666 85.2518 59.2499 85.3148 59.3333 85.3148C59.4333 85.3148 59.4999 85.1731 59.4999 84.9842C59.4999 84.8111 59.4333 84.7167 59.3333 84.7639C59.2499 84.8111 59.1666 84.7639 59.1666 84.6537C59.1666 84.4805 59.1333 84.4805 59.0166 84.6537C58.9166 84.8268 58.8333 84.8111 58.5999 84.5907C58.4499 84.4491 58.3499 84.2444 58.3833 84.15C58.4166 84.0555 58.2999 83.8352 58.1166 83.6778C57.8166 83.4102 57.7833 83.4102 57.8833 83.6463C57.9499 83.8194 57.8999 83.9454 57.7333 84.0083C57.5833 84.0555 57.4999 84.213 57.5499 84.3861C57.5999 84.5592 57.5499 84.7324 57.4666 84.7954C57.3666 84.8426 57.3333 84.8111 57.3999 84.7167C57.5666 84.4491 57.1999 84.3389 56.8666 84.5592C56.6499 84.7167 56.5999 84.8741 56.6833 85.2361C56.7499 85.488 56.7999 85.6139 56.8166 85.5037C56.8333 85.362 56.9999 85.3148 57.3333 85.3778C57.7666 85.4407 57.8333 85.4092 57.7499 85.1574C57.6999 85 57.7333 84.8268 57.8333 84.7639C57.9333 84.7167 57.9499 84.5907 57.8999 84.4963C57.8333 84.4018 57.9166 84.4018 58.1333 84.512C58.4666 84.6852 58.4833 85.1574 58.1499 85.1574C58.0666 85.1574 57.9999 85.2676 57.9999 85.4092C57.9999 85.5509 57.8999 85.6296 57.7833 85.5824C57.6499 85.5352 57.5833 85.6768 57.5999 86.0546C57.6333 86.4954 57.5833 86.5741 57.3666 86.4796C57.1999 86.4324 56.9999 86.3694 56.8999 86.3694C56.7999 86.3694 56.7499 86.2435 56.7833 86.1018C56.8666 85.8185 56.4166 85.5509 56.1499 85.7241C56.0666 85.7713 55.9999 85.7398 55.9999 85.6454C55.9999 85.5509 55.8666 85.5194 55.7166 85.5824C55.4333 85.6768 55.4333 85.6611 55.7166 85.362C55.9499 85.1102 55.9666 85.0157 55.7833 84.8741C55.6166 84.7481 55.5166 84.7796 55.3833 84.9842C55.1833 85.2833 54.3333 85.3935 54.3333 85.1259C54.3333 85.0472 54.3999 85.0315 54.4999 85.0787C54.5999 85.1259 54.6166 85.063 54.5666 84.937C54.4666 84.6852 54.6499 84.6065 55.1499 84.6852C55.3166 84.7009 55.3333 84.6222 55.2499 84.4176C55.1833 84.2602 55.1333 84.0083 55.1333 83.8509C55.1333 83.7092 55.0666 83.6148 54.9833 83.6778C54.8833 83.725 54.8499 83.8667 54.8999 83.9926C54.9499 84.1028 54.8333 84.2759 54.6666 84.3704C54.4333 84.4805 54.3333 84.4805 54.3333 84.3704C54.3333 84.0713 53.8666 84.213 53.5999 84.6065C53.4499 84.8268 53.3999 85 53.4999 85C53.7999 85 53.6833 85.2676 53.2666 85.5194C52.9333 85.7398 52.8333 85.7398 52.6666 85.5667C52.5333 85.3935 52.5333 85.3148 52.6833 85.2204C52.8166 85.1417 52.8333 85.1731 52.7499 85.3148C52.6666 85.4565 52.6833 85.488 52.8166 85.4092C52.9166 85.3463 52.9499 85.2204 52.8999 85.1259C52.8333 85.0315 52.8833 84.9213 52.9833 84.8583C53.3333 84.6537 53.0166 84.2602 52.5666 84.3389C52.3499 84.3704 52.1166 84.4648 52.0666 84.5435C52.0166 84.6222 52.1166 84.638 52.2833 84.5907C52.4499 84.5435 52.3999 84.6065 52.1666 84.7324L51.7666 84.9685L52.1666 85.0315C52.5499 85.0787 52.5499 85.0944 52.0666 85.1731C51.5833 85.2518 51.5666 85.2361 51.5499 84.6537C51.5333 84.1657 51.5833 84.087 51.7499 84.213C51.9166 84.3546 51.9666 84.3231 51.9333 84.1028C51.8999 83.9454 51.9666 83.7722 52.0666 83.7092C52.1999 83.6148 52.1999 83.5833 52.0499 83.5833C51.9499 83.5833 51.7999 83.6463 51.7499 83.7407C51.6999 83.8194 51.5166 83.8981 51.3666 83.8981C51.1333 83.8981 51.1499 83.8667 51.4166 83.6935C51.7999 83.4102 51.5166 83.2213 50.6999 83.1898C50.2499 83.1583 50.0999 83.237 49.9666 83.5204C49.8666 83.725 49.6833 83.8981 49.5666 83.8981C49.4499 83.8981 49.2999 83.9611 49.2499 84.0555C49.0666 84.3389 49.4833 84.2287 49.8333 83.8981C50.0166 83.725 50.1999 83.662 50.2499 83.7565C50.3166 83.8352 50.5166 83.8667 50.7166 83.8037C50.9166 83.7565 51.0333 83.7565 50.9666 83.8194C50.8999 83.8981 50.9499 84.0241 51.0999 84.1185C51.3333 84.2759 51.3166 84.3074 51.0499 84.3231C50.5333 84.3546 50.2166 84.4491 49.9666 84.6537C49.8333 84.7481 49.6666 84.7954 49.5999 84.7324C49.5333 84.6694 49.5333 84.7324 49.5833 84.8741C49.6499 85.0315 49.7999 85.1102 49.9666 85.0472C50.1999 84.9842 50.1999 85 50.0166 85.1259C49.8666 85.2361 49.6499 85.2361 49.4166 85.1259C48.9333 84.9213 48.2666 85.2204 48.4166 85.5981C48.4999 85.8185 48.4666 85.8028 48.1999 85.5667C47.9999 85.4092 47.8999 85.1574 47.9333 84.9528C47.9666 84.7639 47.9666 84.7009 47.8999 84.7954C47.7666 85.0787 47.1166 84.7324 47.2333 84.4491C47.2833 84.3231 47.2499 84.1815 47.1499 84.1342C47.0666 84.0713 47.0333 83.9611 47.0833 83.8824C47.1333 83.8037 47.0833 83.788 46.9666 83.8194C46.8166 83.8824 46.7333 83.7722 46.7166 83.5518C46.6999 83.3472 46.5999 83.1741 46.4999 83.1426C46.3833 83.0954 46.3833 83.0167 46.5166 82.8435C46.6333 82.7176 46.6499 82.6389 46.5666 82.6546C46.1333 82.7333 45.8499 82.6231 45.9333 82.4028C45.9999 82.2768 46.1166 82.2139 46.2166 82.2768C46.3166 82.3241 46.3333 82.2926 46.2666 82.1981C46.1999 82.0879 46.0333 82.0092 45.8999 82.0092C45.7666 82.0092 45.6999 82.0722 45.7499 82.1667C45.7999 82.2454 45.8166 82.3241 45.7666 82.3241C45.6999 82.3241 45.1666 81.4111 45.1666 81.2694C45.1666 81.2537 45.2499 81.2222 45.3499 81.2222C45.4333 81.2222 45.4666 81.2852 45.4166 81.3796C45.3666 81.4583 45.3999 81.537 45.4999 81.537C45.5999 81.537 45.6666 81.4111 45.6333 81.2537C45.5999 81.112 45.4666 81.0018 45.3666 81.0176C45.2499 81.0491 45.1666 80.9546 45.1666 80.8287C45.1666 80.7028 45.0833 80.6083 44.9833 80.6398C44.8833 80.6555 44.7666 80.5926 44.7166 80.4824C44.6666 80.3565 44.7833 80.3407 45.0333 80.4037C45.3833 80.4824 45.3999 80.4667 45.1666 80.2148C44.9666 79.9629 44.9666 79.9 45.2999 79.6639C45.6666 79.412 45.6666 79.3963 45.3333 79.3963C45.1499 79.3963 44.9999 79.4592 44.9999 79.5379C44.9999 79.6009 44.9166 79.6167 44.8166 79.5694C44.7166 79.5065 44.6833 79.3648 44.7333 79.2389C44.7833 79.1129 44.7499 78.8454 44.6666 78.6407C44.5999 78.4361 44.5833 78.0111 44.6666 77.6963C44.7499 77.3342 44.7333 77.1296 44.6333 77.1296C44.5333 77.1296 44.5666 77.0037 44.6833 76.862C44.8166 76.7204 44.8333 76.6417 44.7166 76.7046C44.3999 76.8935 44.0333 76.6574 44.1166 76.3268C44.1666 76.1694 44.2666 76.075 44.3499 76.1222C44.4333 76.1694 44.4999 76.1537 44.4833 76.075C44.4666 76.012 44.4666 75.8389 44.4833 75.7129C44.4999 75.5083 44.5166 75.5083 44.6666 75.7129C44.7666 75.8546 44.8333 75.8704 44.8333 75.7602C44.8333 75.5083 44.5499 75.3509 44.4166 75.5555C44.2833 75.7602 43.7166 75.7602 43.5833 75.5555C43.5333 75.4611 43.5999 75.4454 43.7333 75.4926C43.8833 75.5398 43.9999 75.5083 43.9999 75.3981C43.9999 75.3037 44.0666 75.2722 44.1666 75.3194C44.2499 75.3667 44.4499 75.2722 44.6166 75.0991C44.9166 74.7528 45.0333 74.1389 44.7833 74.1861C44.6999 74.2018 44.5833 74.1231 44.5333 73.9972C44.4833 73.8713 44.5333 73.8241 44.6499 73.887C44.7499 73.95 44.8333 73.9028 44.8333 73.7611C44.8333 73.6037 44.7333 73.5565 44.5833 73.6037C44.3666 73.6824 44.3666 73.6194 44.6166 73.2259C44.7833 72.9583 44.9499 72.7852 44.9999 72.8481C45.0499 72.9111 45.1666 72.9741 45.2833 72.9898C45.4333 73.0213 45.4333 72.9111 45.2999 72.5648C45.2166 72.2972 45.0999 72.0926 45.0499 72.0926C44.9999 72.0926 45.0166 72.2028 45.0666 72.3444C45.1333 72.5333 45.0999 72.5805 44.9166 72.5018C44.7833 72.4546 44.6833 72.4704 44.7166 72.5333C44.7499 72.6435 44.6166 72.7222 44.3333 72.7222C44.1499 72.7222 44.3166 72.2185 44.5666 72.0611C44.6833 71.9824 44.6166 71.9352 44.4333 71.9352C44.2499 71.9352 44.1666 71.8879 44.2166 71.825C44.2833 71.7778 44.2666 71.6518 44.1833 71.5574C43.9833 71.3213 43.8999 70.487 44.0499 70.2352C44.1333 70.125 44.0999 70.0463 43.9499 70.0463C43.7666 70.0463 43.7166 69.9046 43.7833 69.4796C43.8333 69.0861 43.7999 68.9444 43.6833 69.0074C43.4499 69.1491 43.4499 69.0074 43.6833 68.5981C43.8166 68.362 43.8166 68.2991 43.6833 68.3778C43.4499 68.5194 43.4499 68.2991 43.6666 67.7639C43.7833 67.4963 43.7833 67.3861 43.6666 67.4491C43.4166 67.6065 42.9999 67.1342 42.9999 66.6778C42.9999 66.4574 42.9166 66.237 42.8166 66.1898C42.7166 66.1268 42.6833 65.9852 42.7333 65.8592C42.7833 65.7333 42.7499 65.6389 42.6499 65.6389C42.5499 65.6389 42.5166 65.5759 42.5666 65.5129C42.6166 65.4342 42.5499 65.1981 42.4166 64.962C42.2999 64.7416 42.2333 64.5213 42.2999 64.4741C42.3499 64.4268 42.2999 64.3796 42.1999 64.3796C42.0999 64.3796 42.0499 64.2694 42.0999 64.1435C42.1999 63.9231 41.7499 62.8055 41.5666 62.8055C41.5166 62.8055 41.5333 62.8685 41.5833 62.9629C41.6333 63.0416 41.6166 63.1204 41.5333 63.1204C41.4333 63.1204 40.9999 62.7268 40.5499 62.2389C38.2166 59.6889 37.8333 59.3583 37.8333 59.8935Z" fill="black"/>
<path d="M59.8667 64.899C59.75 65.025 59.6167 65.3398 59.5667 65.6074C59.4667 66.0639 59.5 66.1111 59.9 66.1111C60.15 66.1111 60.4167 66.237 60.5333 66.4259C60.65 66.599 60.8667 66.7407 61 66.7565C61.1667 66.7565 61.1833 66.7879 61.05 66.8509C60.9333 66.8824 60.8333 67.024 60.8333 67.15C60.8333 67.2916 60.9 67.3389 61 67.2916C61.1167 67.2287 61.1167 67.3389 61 67.6065C60.9 67.8426 60.9 67.9842 60.9833 67.9213C61.0833 67.874 61.2333 67.9685 61.3333 68.1102C61.5 68.362 61.5167 68.362 61.4333 68.1259C61.3333 67.8111 61.7833 66.8981 62.05 66.8824C62.4167 66.8509 63.25 66.8666 63.4167 66.9139C63.5167 66.9453 63.7667 66.8981 63.9833 66.8352C64.3 66.7407 64.45 66.7879 64.7833 67.1185C65.1333 67.4805 65.15 67.5592 64.95 67.7639C64.7667 67.937 64.6667 67.937 64.4833 67.7953C64.3 67.6379 64.3 67.6537 64.4833 67.874C64.6333 68.0629 64.65 68.1574 64.5333 68.1574C64.4167 68.1574 64.3833 68.2833 64.45 68.425C64.55 68.6768 64.5333 68.6768 64.2833 68.4879C64.0333 68.299 64 68.299 64.1 68.5352C64.15 68.6768 64.3833 68.8342 64.6167 68.8815C64.9167 68.9602 64.9667 69.0231 64.8167 69.1176C64.7 69.1805 64.55 69.212 64.4833 69.1648C64.4167 69.1333 64.3333 69.2277 64.3 69.3852C64.2333 69.574 64.3167 69.6685 64.5167 69.6685C64.6833 69.6685 64.7833 69.637 64.75 69.5898C64.7 69.5583 64.8 69.4324 64.9667 69.3065C65.2333 69.1176 65.2333 69.0861 64.9333 68.8657C64.6333 68.6453 64.6667 68.3935 65 68.3935C65.0833 68.3935 65.25 68.2518 65.3833 68.0944C65.6167 67.7953 65.6333 67.7953 65.8167 68.1416C66.0833 68.5824 65.9333 69.0546 65.6167 68.8185C65.45 68.6768 65.4 68.7398 65.4167 69.0703C65.4167 69.3694 65.5 69.4953 65.7 69.4796C65.85 69.4639 66.0167 69.5426 66.0667 69.6527C66.1167 69.8102 66.0333 69.8416 65.7333 69.7944C65.2833 69.7157 65.1833 69.9518 65.6 70.1092C65.7667 70.1722 65.8333 70.2981 65.7667 70.4555C65.7 70.6444 65.7333 70.6916 65.9167 70.6129C66.05 70.5657 66.1667 70.5972 66.1667 70.6916C66.1667 70.7861 66.25 70.8018 66.3333 70.7546C66.4333 70.6916 66.45 70.5657 66.4 70.4713C66.3167 70.3296 66.35 70.3296 66.5 70.4713C66.8167 70.7546 66.4333 71.1481 65.95 71.0222C65.6167 70.9435 65.6 70.9592 65.8167 71.2111C66.0167 71.4472 66.0833 71.4472 66.3333 71.2268C66.6667 70.9435 67 70.8963 66.7 71.1796C66.4167 71.4472 66.45 71.699 66.75 71.4629C66.95 71.3055 66.9667 71.3528 66.8333 71.8092C66.6167 72.4703 66.6333 72.549 66.8833 72.2342C67 72.0926 67.2333 71.9981 67.4167 72.0139C67.8667 72.0453 68.4333 72.3602 68.3 72.5018C68.2167 72.5648 68.25 72.7065 68.35 72.8324C68.5167 73.0055 68.5833 72.9898 68.7667 72.7694C69.1167 72.3287 69.0333 72.1713 68.65 72.5018C68.2833 72.8009 68.2833 72.8009 68.5167 72.4389C68.65 72.25 68.8 72.0926 68.8667 72.0926C68.95 72.0926 69 71.9824 69 71.8565C69 71.7305 69.0833 71.6203 69.1667 71.6203C69.2833 71.6203 69.2833 71.7148 69.1667 71.9194C69.05 72.1555 69.0667 72.2815 69.25 72.4703C69.4667 72.6592 69.4833 72.7852 69.3333 73.037C69.15 73.3676 69.2333 73.6666 69.5167 73.6666C69.6 73.6666 69.6667 73.5722 69.6667 73.4463C69.6667 73.3203 69.7333 73.1629 69.8333 73.1157C70.1 72.9583 69.8167 73.5565 69.4667 73.8713C69.2 74.1231 69.1667 74.1231 69.1667 73.9028C69.1667 73.7611 69.1 73.6981 69 73.7453C68.9167 73.7926 68.8333 73.7611 68.8333 73.6666C68.8333 73.5722 68.75 73.5407 68.65 73.5879C68.5667 73.6509 68.25 73.5879 67.95 73.462C67.2167 73.1315 66.3 73.0055 66.3833 73.2416C66.4167 73.3518 66.6 73.399 66.7667 73.3833C66.9333 73.3518 67.0333 73.3676 66.9667 73.4463C66.9 73.5092 66.9167 73.6509 67.0167 73.7768C67.1667 73.9185 67.15 73.9815 67.0167 73.9815C66.9167 73.9815 66.8333 74.0916 66.8333 74.2176C66.8333 74.5009 67.0167 74.5166 67.3167 74.249C67.5 74.0916 67.5333 74.1074 67.4667 74.2963C67.4167 74.4379 67.1667 74.5481 66.85 74.5639C66.4167 74.5796 66.3333 74.5324 66.4167 74.3278C66.5 74.1231 66.45 74.1231 66.1833 74.3592C66 74.5166 65.7333 74.6111 65.5833 74.5481C65.4333 74.5009 65.3667 74.5166 65.4167 74.6111C65.4667 74.7055 65.45 74.7685 65.3667 74.7685C65.2833 74.7685 65.15 74.6111 65.0833 74.4065L64.95 74.0602L64.8833 74.4222C64.8167 74.7213 64.7333 74.7842 64.45 74.6898C63.8167 74.5166 63.6 74.4852 63.2167 74.4694C62.95 74.4537 62.8667 74.375 62.9333 74.2176C63 74.0759 62.9333 73.9815 62.7833 73.9815C62.6333 73.9815 62.4833 73.8555 62.45 73.6981C62.4 73.5407 62.3667 73.6352 62.35 73.9028C62.3167 74.3592 62.3167 74.3592 62.0833 74.0759C61.9 73.8555 61.8333 73.824 61.8333 73.9972C61.8333 74.1861 61.8 74.1861 61.6833 73.9972C61.6 73.887 61.4667 73.824 61.3667 73.887C61.2667 73.9342 61.15 73.8555 61.1167 73.7139C61.0667 73.5092 61.0333 73.525 61.0167 73.7926C61 74.1231 60.9667 74.1389 60.75 73.9185C60.4667 73.6666 60.4 73.2731 60.6667 73.4305C60.9333 73.5879 60.85 73.3046 60.5167 72.9111C60.2 72.5648 59.8833 72.4231 60.0833 72.7222C60.1667 72.8639 59.8333 72.9583 59.4667 72.8953C59.3833 72.8953 59.3333 72.9426 59.3333 73.0055C59.3333 73.0685 59.1333 73.1472 58.8833 73.1629C58.6333 73.1787 58.3833 73.2731 58.3167 73.3676C58.2667 73.462 58.0667 73.5092 57.9 73.4778C57.7333 73.4463 57.45 73.5565 57.2833 73.7139C57.0333 73.95 56.9333 73.9657 56.7333 73.8083C56.55 73.6666 56.5 73.6824 56.5 73.887C56.5 74.1389 56.3167 74.2176 56.1167 74.0444C55.9167 73.8555 57.2333 72.9583 57.4833 73.1C57.5667 73.1472 57.8333 73.037 58.0667 72.8639C58.4 72.612 58.4833 72.4546 58.4 72.187C58.3333 72.0139 58.2833 71.699 58.3 71.4944C58.3333 71.0065 58.05 71.0694 57.95 71.5731C57.8833 71.8565 57.9333 72.0768 58.0833 72.187C58.2833 72.3287 58.2833 72.4074 58.0667 72.6592C57.8167 72.9426 57.8167 72.9426 57.9 72.675C57.9667 72.5018 57.85 72.1713 57.6333 71.8879C57.4167 71.6046 57.2833 71.3528 57.3 71.3055C57.3333 71.274 57.2833 71.2111 57.2 71.1796C56.95 71.1009 56.8333 71.5889 57.05 71.825C57.1667 71.9352 57.3333 72.1713 57.45 72.3602C57.6167 72.6278 57.6 72.7065 57.4 72.7852C57.2333 72.8481 57.1833 72.8166 57.2667 72.6907C57.35 72.5648 57.3 72.549 57.1 72.612C56.8667 72.7065 56.8333 72.6592 56.9 72.3602C56.95 72.1713 56.95 72.1083 56.9 72.2185C56.85 72.3129 56.7167 72.3602 56.6167 72.2972C56.5 72.2342 56.4833 72.2972 56.55 72.4703C56.6167 72.6278 56.6667 72.7852 56.6667 72.8166C56.6667 72.8481 56.7833 72.8796 56.9333 72.8796C57.0667 72.8796 57.15 72.9426 57.0833 73.037C56.95 73.2416 56.5 73.0528 56.5 72.7852C56.5 72.6592 56.4333 72.5648 56.3333 72.5648C56.25 72.5648 56.1667 72.7065 56.1667 72.8639C56.1667 73.0213 56.0333 73.2102 55.8833 73.2574C55.6333 73.3518 55.6333 73.3833 55.8333 73.5092C56.05 73.6352 56.0333 73.6666 55.8 73.6666C55.6333 73.6666 55.5 73.5565 55.5 73.4148C55.5 73.2574 55.4 73.1944 55.25 73.2416C55.1167 73.3046 54.9667 73.2574 54.9 73.1629C54.8333 73.0528 54.85 73.037 54.9667 73.1C55.0833 73.1629 55.1667 73.1472 55.1667 73.0528C55.1667 72.974 55.1 72.8481 55 72.8009C54.75 72.6592 54.7833 72.5176 55.2333 71.8879C55.4833 71.5416 55.55 71.3528 55.4 71.4157C55.2333 71.4787 55.1667 71.3685 55.1667 71.0537C55.15 70.6287 55.15 70.6129 54.95 70.912C54.7333 71.2583 54.3333 71.4 54.3333 71.1481C54.3333 71.0537 54.4167 70.9907 54.5167 70.9907C54.6 70.9907 54.6333 70.912 54.5667 70.8018C54.5 70.7074 54.5167 70.6759 54.6167 70.7231C54.7167 70.7861 54.8333 70.7231 54.8833 70.5972C54.95 70.4555 54.9 70.4083 54.7667 70.4555C54.6 70.5185 54.5667 70.424 54.6333 70.0935C54.7667 69.4166 54.5667 69.7157 54.2667 70.6602C54.1167 71.1324 54.05 71.4629 54.1167 71.4157C54.1667 71.3528 54.3167 71.4315 54.4167 71.5731C54.6 71.8092 54.6667 71.8092 54.9 71.6361C55.0833 71.4944 55.1667 71.4787 55.1667 71.6046C55.1667 71.699 55.1 71.7778 55 71.7778C54.9167 71.7778 54.8333 71.9194 54.8333 72.1083C54.8333 72.2815 54.75 72.3759 54.6667 72.3287C54.5667 72.2657 54.55 72.1398 54.6 72.0453C54.6667 71.9352 54.65 71.9194 54.5833 71.9824C54.3667 72.1555 54.3333 72.5805 54.5333 72.4703C54.65 72.3916 54.6833 72.5333 54.6333 72.8639C54.5833 73.1472 54.6167 73.399 54.7 73.4463C54.7833 73.4935 54.7833 73.6037 54.7333 73.6981C54.6667 73.7926 54.7 73.824 54.8 73.7611C54.9 73.7139 55.0833 73.7611 55.2167 73.887C55.4 74.0602 55.5 74.0759 55.6833 73.9342C55.8667 73.7768 55.8667 73.7926 55.6833 74.0129C55.5 74.249 55.5 74.2963 55.6833 74.2963C55.8167 74.312 55.7333 74.4065 55.5 74.5324C55.25 74.674 55.1833 74.7685 55.3333 74.7685C55.5 74.7685 55.4667 74.8472 55.2333 74.9731C54.9167 75.1305 54.9 75.1935 55.1 75.3666C55.25 75.4926 55.4833 75.524 55.6833 75.4768C55.8833 75.4139 56.0833 75.4453 56.15 75.5398C56.2333 75.65 56.45 75.65 56.9167 75.524C57.2833 75.4296 57.65 75.3509 57.7333 75.3824C57.8167 75.3981 57.95 75.3194 58.0167 75.2092C58.1333 75.0518 58.1667 75.0518 58.1667 75.2407C58.1667 75.4296 58.2 75.4453 58.3167 75.2565C58.5 74.9889 61.5167 74.8629 62.75 75.0833C63.2167 75.162 64.3167 75.2565 65.2333 75.2879C66.3833 75.3352 66.9167 75.4139 67.0167 75.5713C67.1333 75.7444 67.1667 75.7287 67.1667 75.4926C67.1667 75.2722 67.25 75.225 67.55 75.3037C67.75 75.3666 68.1 75.4453 68.3333 75.4926C68.5667 75.5398 68.8167 75.6342 68.8833 75.6972C68.9667 75.7759 69.2833 75.7916 69.6 75.7602C70.0167 75.7129 70.2833 75.7602 70.5167 75.949C70.7667 76.1694 70.8833 76.1852 71.0667 76.0435C71.25 75.8861 71.35 75.9176 71.55 76.1852C71.75 76.4685 71.8 76.4685 71.8833 76.2639C71.95 76.1379 72.05 76.0278 72.1167 76.0435C72.8 76.1537 72.9833 76.012 72.95 75.4296C72.9333 75.1148 72.85 74.8 72.7667 74.7528C72.7 74.6898 72.7 74.6111 72.7833 74.5639C72.8833 74.5009 73.1 74.674 73.3 74.9259C73.6333 75.3352 73.6333 75.3666 73.35 75.3194C73.1167 75.2722 73.0667 75.3509 73.1333 75.65C73.25 76.2166 73.45 76.2481 73.7 75.7129C73.85 75.3666 74 75.2407 74.2167 75.3037C74.4 75.3509 74.5 75.3037 74.45 75.1935C74.4167 75.0833 74.2167 75.0203 74.0333 75.0518C73.8333 75.0833 73.6667 75.0203 73.6667 74.9259C73.6667 74.8315 73.7333 74.7842 73.8 74.8315C73.8667 74.8629 74.0333 74.8472 74.1667 74.7528C74.3333 74.6583 74.35 74.6111 74.2167 74.6111C74.1 74.6111 74.0167 74.5639 74.0167 74.4852C74.0667 74.2018 73.9833 73.9815 73.7333 73.7611C73.4667 73.5092 72.9833 73.4148 73.0167 73.6194C73.0333 73.6981 73.0333 73.8398 73.0167 73.9657C73 74.2805 72.7833 74.0444 72.75 73.6666C72.7167 73.3518 73.2 73.1 73.5 73.2731C73.5833 73.3203 73.6667 73.2889 73.6667 73.2102C73.6667 73.1157 73.6 73.037 73.5 73.037C73.4167 73.037 73.3333 72.9583 73.3333 72.8639C73.3333 72.7852 73.3833 72.7379 73.4667 72.7694C73.75 72.9426 73.5667 71.9824 73.25 71.7463C73.05 71.5731 73 71.4787 73.1333 71.4629C73.25 71.4629 73.3 71.3842 73.2333 71.2898C73.1667 71.1639 73.0833 71.1639 72.95 71.2898C72.8333 71.4 72.85 71.5416 73.05 71.7463C73.3667 72.0611 73.4333 72.3287 73.1667 72.1713C73.0833 72.124 73 72.187 73 72.3287C73 72.4703 72.9167 72.5333 72.8167 72.4703C72.7167 72.4231 72.6667 72.2342 72.7167 72.0768C72.7667 71.9037 72.75 71.8092 72.6667 71.8565C72.5 71.9509 72.0833 71.4787 72.2333 71.3528C72.3 71.2898 72.4333 71.337 72.5167 71.4629C72.6667 71.6518 72.6833 71.6518 72.6 71.4157C72.55 71.2583 72.5 71.0852 72.5 71.0379C72.5 70.9907 72.4 71.0379 72.2667 71.1324C72.0833 71.274 72 71.2268 71.8667 70.8333C71.6667 70.3139 71.4167 70.1722 71.55 70.6759C71.6 70.849 71.5667 70.9907 71.4833 70.9907C71.4 70.9907 71.4167 71.1324 71.5333 71.2898C71.65 71.4629 71.7833 71.5731 71.85 71.5259C71.9167 71.4944 72.0833 71.6046 72.2167 71.7778C72.45 72.0926 72.45 72.5648 72.2167 73.4935L72.0667 74.0444L71.8 73.399C71.55 72.7852 71.55 72.7379 71.8333 72.675C72.0167 72.6278 72.1167 72.4703 72.0833 72.2342C72.0167 71.6833 72.0167 71.6676 71.8333 71.9352C71.6833 72.1398 71.6667 72.1398 71.6667 71.9352C71.6667 71.6203 71.05 71.1166 70.9167 71.3055C70.8667 71.3842 70.9 71.6046 71 71.7778C71.25 72.2028 71.3833 72.1713 71.1667 71.7305C70.9833 71.4 71 71.4 71.2333 71.6833C71.5 71.9824 71.5833 72.4074 71.4 72.4074C71.35 72.4074 71.1 72.1713 70.8167 71.9037C70.5 71.5731 70.3333 71.4787 70.3167 71.6203C70.2667 72.2342 70.0333 72.8796 69.8667 72.8796C69.7 72.8796 69.35 71.9824 69.4667 71.8565C69.5167 71.8092 69.6667 71.9666 69.7833 72.2028L70 72.6435L69.9 72.124C69.85 71.8407 69.7 71.4315 69.6 71.2111L69.3833 70.8333L69.1833 71.1953C69.0167 71.5102 69.0167 71.4944 69.1 71.0222C69.2 70.4713 68.8667 69.574 68.55 69.574C68.45 69.574 68.3167 69.4796 68.2833 69.3694C68.2333 69.275 68.1833 69.3694 68.1833 69.5898C68.1667 70.0463 68.5833 70.5185 68.7 70.1879C68.7333 70.0935 68.75 70.3453 68.7333 70.7703C68.7167 71.1796 68.6167 71.5574 68.5333 71.5889C68.4333 71.6203 68.4 71.7463 68.45 71.8722C68.55 72.124 68.0833 72.187 67.9167 71.9352C67.8667 71.8565 67.7 71.8407 67.55 71.8879C67.35 71.9666 67.3167 71.9352 67.4167 71.7778C67.5 71.6676 67.4833 71.6046 67.4 71.6518C67.3167 71.7148 67.25 71.5416 67.25 71.3055C67.25 71.0694 67.3 70.8963 67.3833 70.9435C67.45 70.975 67.5 70.912 67.5 70.7703C67.5 70.6444 67.55 70.4083 67.6167 70.2509C67.6667 70.0935 67.6667 70.0148 67.5833 70.0778C67.5167 70.1407 67.3667 70.0935 67.25 69.999C66.9833 69.7315 66.7333 69.0231 66.9667 69.1648C67.05 69.212 67.1667 69.149 67.2333 69.0231C67.2833 68.8972 67.4 68.787 67.5 68.787C67.6 68.787 67.6333 68.8657 67.5667 68.9759C67.5 69.0861 67.5167 69.1018 67.65 69.0389C67.7833 68.9444 67.8 68.8657 67.6667 68.7083C67.5333 68.5666 67.5833 68.5352 67.9167 68.5981C68.15 68.6296 68.3333 68.5981 68.3333 68.4879C68.3333 68.4092 68.2167 68.362 68.0833 68.425C67.9167 68.4722 67.8333 68.4407 67.8667 68.299C67.9 68.1731 67.7167 68.0944 67.35 68.0629C66.9667 68.0472 66.65 67.874 66.3167 67.5435C66.05 67.2602 65.8333 66.9926 65.8333 66.9296C65.85 66.6463 66.1333 66.4416 66.6833 66.3472C67.2167 66.2527 67.3333 66.3 67.6333 66.662C68.0667 67.1815 68.6833 67.1185 68.9667 66.5046C69.25 65.9222 69.2167 65.9065 68.7 66.2685C68.1667 66.6463 67.7333 66.5676 67.6 66.0481C67.55 65.8592 67.3667 65.5444 67.2 65.3555C66.9167 65.0407 66.8333 65.0407 65.9833 65.2296C65.4833 65.3398 64.8167 65.5444 64.4833 65.7018C64.0167 65.9065 63.7833 65.9222 63.4333 65.7963C63.1833 65.7176 62.9 65.6703 62.8167 65.7333C62.7333 65.7805 62.3167 65.6074 61.8833 65.3398C61.45 65.0722 60.9833 64.8518 60.8167 64.8518C60.65 64.8518 60.4167 64.8203 60.2833 64.7731C60.1667 64.7259 59.9667 64.7731 59.8667 64.899Z" fill="black"/>
<path d="M83.5833 67.6852C83.5333 67.7639 83.5333 67.8426 83.6 67.8426C83.6667 67.8426 83.5833 67.9528 83.4 68.0944C83.2333 68.2204 83.1833 68.2991 83.3 68.2361C83.5667 68.1102 83.6167 68.6926 83.3833 69.2592C83.3333 69.3852 83.25 69.637 83.2167 69.8102C83.1833 69.9676 83.0667 70.1565 82.9667 70.2194C82.8167 70.3139 82.8167 70.3926 82.9833 70.5657C83.1 70.7074 83.1167 70.8491 83.0167 70.8963C82.9333 70.9435 82.8333 70.8963 82.7833 70.8018C82.75 70.6917 82.5833 71.0065 82.4167 71.4944C82.25 71.9824 82.05 72.3602 81.9667 72.313C81.8833 72.25 81.85 72.1083 81.9 71.9824C81.95 71.8565 81.9167 71.8092 81.8333 71.8565C81.7333 71.9037 81.6667 71.8722 81.6667 71.762C81.6667 71.6676 81.5167 71.7463 81.3333 71.9509C81.05 72.2815 80.9833 72.2972 80.8334 72.0926C80.7167 71.9194 80.6667 71.9037 80.6667 72.0611C80.6667 72.1713 80.55 72.3759 80.4167 72.5018C80.2667 72.6435 80.1667 72.675 80.1667 72.5648C80.1667 72.4704 80.1 72.4389 80 72.4861C79.9167 72.5333 79.8334 72.6907 79.8334 72.8167C79.8334 72.9583 79.9167 73.0055 80.0334 72.9426C80.1334 72.8796 80.1667 72.8954 80.1 73.0055C80.05 73.0842 80.05 73.1944 80.1167 73.2417C80.2 73.2731 80.15 73.2731 80.05 73.2574C79.9334 73.2259 79.8334 73.3518 79.8334 73.525C79.8334 73.6981 79.9167 73.7926 80 73.7454C80.1 73.6981 80.1667 73.7296 80.1667 73.8241C80.1667 73.9185 80.25 73.95 80.3334 73.9028C80.4334 73.8555 80.55 73.9185 80.6 74.0602C80.7 74.2805 80.7334 74.2805 80.9167 74.0287C81.0833 73.8083 81.1833 73.7926 81.3667 73.95C81.5 74.0444 81.65 74.1074 81.6833 74.0759C81.7167 74.0444 81.7667 74.2491 81.7667 74.5481C81.7833 74.9889 81.75 75.0518 81.5667 74.9102C81.3833 74.7685 81.3333 74.7685 81.3333 74.9102C81.3333 75.0518 81.25 75.0518 80.9833 74.9102C80.7167 74.7842 80.65 74.7842 80.75 74.9102C80.8 75.0046 80.8833 75.3194 80.9167 75.587C80.9833 76.0435 80.9833 76.0593 80.7334 75.7759C80.4834 75.4926 80.4834 75.4926 80.55 75.8389C80.6 76.0278 80.5667 76.138 80.4834 76.0907C80.4 76.0435 80.35 75.7602 80.3834 75.4768C80.4334 75.0361 80.3667 74.8787 80.0667 74.6898C79.7667 74.5167 79.6667 74.2963 79.65 73.8555C79.6334 73.5407 79.6 73.3991 79.55 73.5407C79.5167 73.6981 79.3667 73.8241 79.2334 73.8241C78.9167 73.8241 78.9334 73.9657 79.3 74.3592C79.5667 74.6741 79.5667 74.6741 79.3 74.4694C78.95 74.2333 78.9 74.438 79.2167 74.7528C79.3834 74.9259 79.3834 74.9574 79.2167 74.863C78.9167 74.7055 78.95 75.0046 79.2334 75.225C79.4167 75.3667 79.4834 75.3667 79.55 75.2092C79.6167 75.0361 79.65 75.0518 79.65 75.2092C79.6667 75.3194 79.75 75.3667 79.8667 75.3037C79.9834 75.2407 80 75.2565 79.9334 75.3667C79.75 75.65 80.1167 76.138 80.7 76.4213C81.1 76.5944 81.2667 76.6259 81.3167 76.4843C81.35 76.3741 81.4833 76.4528 81.6167 76.6731C81.85 77.0352 81.85 77.0352 81.7833 76.7046C81.7333 76.5157 81.7833 76.3268 81.8667 76.3111C81.9833 76.2639 82 76.1537 81.8833 75.9491C81.7667 75.713 81.8 75.5713 82.0333 75.3509C82.3167 75.0991 82.4167 75.1935 82.35 75.6028C82.3333 75.6657 82.4833 75.65 82.6833 75.5555C83.0167 75.3824 83.0333 75.3981 82.9167 75.9018C82.85 76.1852 82.7333 76.4843 82.6667 76.5787C82.4833 76.8148 82.3667 77.6018 82.5167 77.5074C82.6 77.4602 82.6667 77.5074 82.6667 77.5861C82.6667 77.6805 82.55 77.7593 82.4 77.7593C82.2333 77.7593 82.1667 77.8537 82.2333 77.9954C82.2833 78.1213 82.25 78.2315 82.15 78.2315C82.05 78.2315 82.0333 78.3102 82.1 78.4204C82.1833 78.5463 82.1333 78.562 81.9333 78.4991C81.7 78.4046 81.6833 78.4361 81.8667 78.7509C81.9833 78.9398 82.0667 79.1917 82.0833 79.3176C82.0833 79.4435 82.1833 79.5694 82.3 79.6009C82.55 79.6954 82.5667 79.1444 82.3167 78.9083C82.1833 78.7824 82.2333 78.6565 82.4833 78.4361C82.6667 78.2787 82.8667 77.8537 82.9 77.5231C82.95 77.1768 83.0667 76.6574 83.15 76.3741C83.25 76.0907 83.2667 75.7444 83.2167 75.6028C83.1333 75.4139 83.1667 75.3824 83.3333 75.4768C83.4667 75.5555 83.5167 75.5398 83.45 75.4296C83.3833 75.3509 83.15 75.288 82.9167 75.3194C82.6833 75.3352 82.5 75.2722 82.5 75.1778C82.5 75.0833 82.3833 74.8157 82.2667 74.5639C82.0667 74.2018 82.05 74.1389 82.25 74.1389C82.3667 74.1389 82.5333 74.2963 82.6 74.4852C82.75 74.9889 83.3333 75.3194 83.3333 74.9102C83.3333 74.8315 83.2667 74.7842 83.1833 74.8472C82.9667 74.9574 82.7 74.4537 82.7667 74.0917C82.8167 73.7454 83 73.525 83 73.7926C83 73.887 83.1167 73.9342 83.25 73.887C83.4333 73.8083 83.4 73.7139 83.0667 73.4148C82.85 73.1944 82.6 73.0528 82.5167 73.1C82.4333 73.163 82.45 73.0213 82.55 72.8009C82.8 72.313 82.9333 72.2972 83.0667 72.7694C83.1167 72.9741 83.2667 73.1472 83.4167 73.1472C83.7333 73.1472 83.7333 73.1157 83.3833 72.7852C83.1167 72.5491 83.1167 72.5176 83.3833 72.3287C83.55 72.2185 83.6333 72.0296 83.5667 71.888C83.5167 71.762 83.5667 71.6046 83.65 71.5417C83.8667 71.4315 83.7333 71.1481 83.4667 71.1481C83.3667 71.1481 83.3333 71.3528 83.3667 71.6204C83.45 72.1713 83.15 72.5333 82.8667 72.2185C82.6 71.9037 83.0667 70.9907 83.4833 70.9907C83.8333 70.9907 84.1 70.7231 83.9167 70.55C83.8667 70.5028 83.75 70.55 83.6833 70.6602C83.5667 70.8333 83.5 70.8176 83.3667 70.5657C83.2667 70.3926 83.25 70.1722 83.3333 70.062C83.4333 69.8889 83.4833 69.9046 83.55 70.1407C83.6167 70.3926 83.6333 70.3768 83.65 70.0778C83.65 69.8731 83.75 69.763 83.8333 69.8102C83.9333 69.8731 83.9167 69.7315 83.8 69.5111C83.6667 69.1963 83.6667 69.0074 83.8 68.6926C83.95 68.4092 83.95 68.3305 83.8167 68.4092C83.6833 68.4722 83.6667 68.362 83.75 68.0157C83.8667 67.5278 83.7833 67.3861 83.5833 67.6852Z" fill="black"/>
<path d="M75.9168 76.7833C75.8501 77.0667 75.9001 77.413 76.0168 77.6176C76.1334 77.8537 76.1501 77.9954 76.0501 78.0268C75.9501 78.0583 75.9001 78.2787 75.9334 78.5148C75.9668 78.7509 75.9501 78.8296 75.9001 78.6722C75.8501 78.5306 75.6834 78.3731 75.5334 78.3102C75.3001 78.2315 75.2834 78.2472 75.4668 78.4046C75.7001 78.6407 75.7334 79.0815 75.5001 78.9398C75.4001 78.8768 75.4168 79.0185 75.5334 79.2389C75.7501 79.7111 75.9501 79.7583 76.0334 79.3648C76.0834 79.1444 76.1168 79.1602 76.2001 79.4435C76.2501 79.6481 76.2168 79.8528 76.1334 79.9157C76.0168 79.9787 76.0001 79.9315 76.0834 79.8056C76.1668 79.6639 76.1501 79.6324 76.0334 79.7111C75.8834 79.7898 75.8834 79.9157 76.0001 80.1361C76.1001 80.2935 76.2168 80.4352 76.2668 80.4352C76.3168 80.4352 76.3001 80.3565 76.2501 80.2778C76.2001 80.1833 76.2668 80.1204 76.4001 80.1204C76.5501 80.1204 76.6668 80.2148 76.6668 80.3093C76.6668 80.4194 76.7501 80.388 76.8501 80.2306C76.9501 80.0574 77.0001 79.7268 76.9668 79.475C76.8834 78.9241 77.1001 79.0815 77.2168 79.6481C77.2668 79.8685 77.3001 79.7898 77.2668 79.4435C77.2501 79.0815 77.3001 78.8768 77.4001 78.9083C77.5001 78.9398 77.5668 79.0972 77.5668 79.2389C77.5334 79.538 77.7334 79.5694 77.9668 79.2861C78.1834 79.0343 78.0168 78.0426 77.7834 78.1843C77.7001 78.2315 77.6668 78.2 77.7334 78.1056C77.7834 78.0111 77.7668 77.9009 77.6668 77.838C77.4501 77.712 77.4501 78.1685 77.6668 78.5463C77.8001 78.7981 77.8001 78.8296 77.5834 78.7667C77.4501 78.7194 77.3668 78.6093 77.4168 78.5463C77.4668 78.4676 77.4334 78.3731 77.3334 78.3102C77.2501 78.263 77.1668 78.263 77.1668 78.3417C77.1668 78.4046 76.9668 78.4833 76.7334 78.4833C76.4168 78.5148 76.3334 78.4518 76.4001 78.2787C76.4501 78.1528 76.5001 78.0111 76.5001 77.9796C76.5001 77.9324 76.6001 77.9481 76.7168 77.9954C76.8168 78.0583 76.8001 78.0111 76.6668 77.8852C76.5334 77.775 76.3834 77.4287 76.3668 77.1296C76.2834 76.3898 76.0668 76.2009 75.9168 76.7833Z" fill="black"/>
<path d="M61.4999 77.9481C61.4999 78.0741 61.8833 78.137 62.3333 78.0741C62.7833 78.0111 62.3833 78.2472 61.8999 78.3259C61.6333 78.3574 61.3166 78.4361 61.1999 78.4676C61.0833 78.5148 61.0333 78.4676 61.0833 78.3889C61.1333 78.2944 61.1166 78.2315 61.0166 78.2315C60.9333 78.2315 60.7999 78.3102 60.7499 78.3889C60.6833 78.4833 60.5666 78.5148 60.4833 78.4676C60.3999 78.4046 60.2333 78.4204 60.1333 78.4833C59.9499 78.5935 59.6999 78.6565 59.0499 78.7352C58.8833 78.7509 58.8833 78.7981 59.0499 79.0028C59.1999 79.1916 59.1999 79.2074 59.0499 79.1129C58.9166 79.05 58.8333 79.0972 58.8333 79.2389C58.8333 79.5852 58.9833 79.5537 59.4666 79.1287C59.6999 78.9398 59.8166 78.8926 59.7333 79.0185C59.5333 79.3491 59.4999 79.6796 59.6166 80.0259C59.6999 80.325 59.7166 80.325 59.9333 80.0416C60.1499 79.7741 60.2499 79.8685 60.1999 80.2935C60.1833 80.3407 60.2833 80.3879 60.4166 80.3879C60.5499 80.3879 60.5999 80.3092 60.5499 80.2148C60.4833 80.1203 60.5666 80.1361 60.7166 80.262C60.8999 80.4037 60.9999 80.4194 60.9999 80.2935C60.9999 80.1991 61.0666 80.1203 61.1333 80.1203C61.3499 80.1203 61.2999 80.5926 61.0999 80.6083C60.9999 80.6083 61.0666 80.6713 61.2499 80.7342C61.4333 80.8129 61.7166 80.8129 61.8666 80.7342C62.0666 80.624 62.1666 80.6713 62.2166 80.8759C62.2833 81.1278 62.2999 81.1278 62.3166 80.8602C62.3166 80.7028 62.4166 80.624 62.5166 80.6713C62.6166 80.7342 62.8666 80.624 63.0999 80.4194C63.3166 80.2305 63.4999 80.1518 63.4999 80.2463C63.4999 80.3407 63.4333 80.4666 63.3333 80.5139C63.2499 80.5611 63.1666 80.7185 63.1666 80.8444C63.1666 81.0176 63.2833 81.0018 63.7833 80.75C64.2166 80.5296 64.4666 80.4981 64.6833 80.5926C64.8833 80.7028 65.0166 80.7028 65.0833 80.5926C65.1333 80.4981 65.3499 80.4666 65.5666 80.5296C65.8166 80.5768 66.0166 80.5139 66.1832 80.3407C66.3832 80.1046 66.3832 80.0889 66.1832 80.1991C66.0166 80.2935 65.9832 80.262 66.0832 80.1361C66.1499 80.0259 66.3666 79.9787 66.5666 80.0259C67.0499 80.1361 67.4666 79.8055 67.4666 79.2861C67.4666 79.0657 67.3999 78.9083 67.3332 78.9398C67.2499 78.987 67.1499 78.9241 67.1166 78.8296C67.0499 78.6879 67.0166 78.7194 67.0166 78.8768C66.9999 79.2231 66.5666 79.5537 66.4166 79.3333C66.3666 79.2546 66.4332 79.1759 66.5666 79.1759C66.7166 79.1759 66.8332 79.0815 66.8332 78.9555C66.8332 78.8139 66.6666 78.7666 66.3332 78.7981C66.0666 78.8296 65.7999 78.7666 65.7332 78.6722C65.6499 78.5463 65.5666 78.5935 65.4833 78.7981C65.3666 79.0815 65.3499 79.0815 65.3499 78.7981C65.3333 78.5935 65.2499 78.5463 65.0499 78.625C64.8166 78.7037 64.7999 78.6722 64.9499 78.5305C65.0499 78.4361 65.0999 78.2472 65.0499 78.137C64.9333 77.8379 63.8999 77.8537 63.7666 78.1528C63.7166 78.2787 63.5666 78.3416 63.4166 78.2944C63.2833 78.2472 63.2166 78.137 63.2666 78.0583C63.4333 77.8065 63.1166 77.9166 62.8999 78.1842C62.6999 78.4361 62.6833 78.4361 62.6666 78.2157C62.6666 78.0268 62.4833 77.9324 62.0833 77.8852C61.7666 77.8537 61.4999 77.8852 61.4999 77.9481Z" fill="black"/>
<path d="M44.9168 90.7453C45.0001 90.9972 44.9834 91.0129 44.8168 90.8713C44.6501 90.7139 44.5501 90.7453 44.3501 91.0444C43.6001 92.099 41.5501 93.8148 41.0334 93.8148C40.9501 93.8148 40.4168 94.0351 39.8668 94.3185C39.0501 94.712 38.8001 94.9166 38.6501 95.3416C38.5501 95.625 38.5168 95.9555 38.5501 96.0657C38.6001 96.1601 38.6501 96.0972 38.6501 95.8926C38.6668 95.7037 38.7501 95.5463 38.8501 95.5463C38.9501 95.5463 39.0001 95.6564 38.9334 95.7824C38.8168 96.0972 39.0001 96.0814 39.2668 95.7351C39.4668 95.499 39.4834 95.5463 39.4001 96.1287C39.3001 96.7426 39.3168 96.8055 39.6334 96.8055C39.8668 96.8055 39.9668 96.8842 39.9001 97.0259C39.8501 97.1518 39.8834 97.2935 39.9834 97.3564C40.0834 97.4037 40.1668 97.3879 40.1668 97.2935C40.1668 97.2148 40.2168 97.0416 40.2668 96.9C40.3334 96.7268 40.2668 96.6481 40.0334 96.6481C39.7834 96.6481 39.7001 96.5537 39.7334 96.2546C39.7334 96.0342 39.7834 95.8611 39.8334 95.8453C40.6001 95.7666 41.1668 95.7824 41.1668 95.8926C41.1668 95.9555 41.0501 96.0185 40.9168 96.0185C40.7168 96.0185 40.6668 96.1759 40.7001 96.6639C40.7168 97.0101 40.7834 97.325 40.8668 97.3722C40.9334 97.4194 40.7668 97.7342 40.5001 98.0963C40.2168 98.4583 40.0501 98.7889 40.1168 98.8361C40.2001 98.899 40.3168 99.0092 40.3834 99.0879C40.4668 99.1824 40.4834 99.0564 40.4168 98.8361C40.3501 98.5685 40.4001 98.3639 40.5668 98.2379C40.8001 98.0648 40.8334 98.0648 40.8668 98.3166C40.8668 98.4898 40.8668 98.7574 40.8668 98.9305C40.8334 99.1824 40.8668 99.1981 41.0001 99.0092C41.1001 98.8518 41.1668 98.8361 41.1668 98.962C41.1668 99.0722 41.2501 99.1666 41.3501 99.1666C41.4834 99.1666 41.4668 99.0879 41.3168 98.9148C41.1501 98.7101 41.1501 98.6472 41.3501 98.5213C41.5334 98.4111 41.5168 98.3796 41.2501 98.3796C41.0668 98.3796 41.0001 98.3166 41.0834 98.2537C41.1834 98.1907 41.2668 97.9074 41.2501 97.624C41.2501 97.325 41.3001 97.0574 41.3834 97.0101C41.4501 96.9787 41.5001 97.1046 41.5001 97.2777C41.5001 97.5296 41.5668 97.5926 41.7668 97.5296C41.9668 97.4509 42.0001 97.5139 41.9168 97.7657C41.8334 97.9861 41.9001 98.1592 42.0834 98.2851C42.3001 98.4268 42.3501 98.6314 42.3001 98.9777C42.2168 99.4814 42.3834 99.6546 42.5668 99.2768C42.6334 99.1824 42.6334 99.324 42.5834 99.6074C42.5168 100.032 42.5501 100.095 42.7168 99.9222C43.0168 99.6388 42.9834 98.9777 42.6834 98.7259C42.4668 98.5685 42.5168 98.5527 43.0501 98.6314L43.6834 98.7259L43.5668 98.049C43.5168 97.6713 43.4501 97.262 43.4001 97.1518C43.3668 97.0574 43.4168 96.9629 43.5001 96.9629C43.6001 96.9629 43.6834 97.0889 43.7001 97.2305C43.7001 97.3879 43.7334 97.687 43.7668 97.9074C43.7834 98.1277 43.8168 98.8203 43.8334 99.4342C43.8501 100.064 43.9334 100.583 44.0168 100.583C44.1001 100.583 44.1668 100.693 44.1668 100.819C44.1668 100.945 44.2501 101.056 44.3501 101.056C44.4501 101.056 44.4834 101.166 44.4334 101.307C44.3834 101.433 44.4834 101.685 44.6668 101.874L45.0001 102.205L44.8334 101.685C44.7501 101.386 44.7168 101.118 44.7501 101.071C44.8001 101.04 44.8334 101.087 44.8334 101.181C44.8334 101.292 44.9001 101.37 44.9668 101.37C45.0334 101.37 45.0834 101.103 45.0501 100.772C45.0001 100.284 45.0168 100.237 45.1668 100.536C45.2501 100.741 45.3668 100.898 45.4168 100.898C45.4834 100.898 45.4834 100.835 45.4334 100.756C45.3834 100.678 45.4334 100.536 45.5668 100.442C45.7001 100.331 45.7834 100.001 45.7668 99.6388C45.7501 99.2926 45.8168 98.9935 45.9001 98.962C46.0168 98.9305 46.0168 98.7574 45.8668 98.474C45.7168 98.175 45.7168 98.0805 45.8501 98.1592C45.9834 98.2379 46.0168 98.1435 45.9334 97.8601C45.8834 97.6398 45.9001 97.4351 45.9668 97.4037C46.0501 97.3722 46.0668 96.9314 46.0001 96.412C45.8501 95.2629 45.9001 93.8463 46.0834 93.437C46.1834 93.2009 46.1668 93.1694 46.0001 93.2639C45.8334 93.3583 45.8001 93.3268 45.8834 93.1379C46.0001 92.8546 45.7001 92.0833 45.4834 92.0833C45.4168 92.0833 45.3168 91.8157 45.2501 91.4851C45.2001 91.1703 45.0668 90.7926 44.9834 90.6666C44.8334 90.4777 44.8168 90.4935 44.9168 90.7453Z" fill="black"/>
<path d="M79.0834 94.3815C79.0834 94.6333 79.1834 94.7593 79.3501 94.7593C79.5001 94.7593 79.8001 94.9009 80.0167 95.0898C80.2334 95.263 80.3167 95.3731 80.2167 95.3102C79.9667 95.2 79.9334 95.4204 80.1667 95.6407C80.2667 95.7352 80.2667 95.9713 80.1834 96.2546L80.0334 96.7268L80.0167 96.2861C80.0001 96.0343 79.9334 95.8768 79.8334 95.9398C79.7334 95.987 79.7167 96.2231 79.7667 96.4278C79.8501 96.7268 79.7834 96.8843 79.5167 97.0574C79.3334 97.1833 79.1667 97.388 79.1667 97.4981C79.1667 97.6241 79.0334 97.813 78.8834 97.9231C78.5834 98.1593 78.5834 98.175 78.9334 97.3565C79.0001 97.1833 78.9667 97.1518 78.7834 97.2148C78.6334 97.262 78.4834 97.4194 78.4334 97.5611C78.3834 97.7185 78.3834 97.4981 78.4167 97.0731C78.4501 96.6639 78.4334 96.3333 78.3667 96.3333C78.1501 96.3333 77.8667 97.0889 78.0334 97.2463C78.2501 97.4509 78.0001 97.9074 77.5667 98.0805C77.3001 98.1593 77.1667 98.3324 77.1667 98.5685C77.1667 98.8676 77.2001 98.8833 77.3334 98.6944C77.4334 98.5528 77.5001 98.537 77.5001 98.6472C77.5001 98.7574 77.4001 98.9305 77.2834 99.0407C77.1501 99.1352 77.0834 99.4028 77.1334 99.6231C77.1667 99.9222 77.1501 99.9694 77.0334 99.812C76.9334 99.6861 76.8334 99.6704 76.7667 99.7648C76.7167 99.8593 76.7334 99.9694 76.8167 100.017C76.9001 100.064 76.9334 100.253 76.8834 100.426C76.8334 100.599 76.7334 100.709 76.6667 100.662C76.5834 100.615 76.4667 100.662 76.4001 100.756C76.3334 100.867 76.3501 100.898 76.4667 100.835C76.6834 100.709 76.9334 101.056 76.7167 101.197C76.5167 101.323 76.3167 102.031 76.5167 101.906C76.6001 101.858 76.6667 101.937 76.6667 102.063C76.6667 102.189 76.6001 102.331 76.5167 102.394C76.4334 102.441 76.3834 102.677 76.4167 102.913C76.4501 103.149 76.4834 103.401 76.4834 103.464C76.5001 103.543 76.5834 103.543 76.6667 103.495C76.7667 103.432 76.8001 103.322 76.7334 103.244C76.5834 103.007 77.0167 101.512 77.2001 101.622C77.3167 101.685 77.3167 101.591 77.2334 101.355C77.0667 100.851 77.1167 100.363 77.3334 100.3C77.4167 100.269 77.5001 100.064 77.5001 99.8593C77.5001 99.6546 77.5834 99.4815 77.6834 99.4815C77.7834 99.4815 77.8167 99.3555 77.7501 99.1824C77.7001 99.0093 77.7334 98.8204 77.8501 98.7574C77.9667 98.6944 78.0167 98.7259 77.9667 98.8676C77.8667 99.1352 78.2667 99.5444 78.5001 99.4028C78.5834 99.3555 78.6667 99.45 78.6667 99.6389C78.6667 99.8278 78.7334 99.9222 78.8501 99.875C79.1501 99.6861 79.4667 100.3 79.3834 100.851C79.3167 101.181 79.3667 101.37 79.4834 101.37C79.5834 101.37 79.6667 101.26 79.6667 101.134C79.6667 101.008 79.7501 100.898 79.8334 100.898C79.9334 100.898 80.0001 100.961 80.0001 101.024C80.0001 101.103 80.1834 101.26 80.4167 101.37C80.6334 101.481 80.7834 101.638 80.7334 101.717C80.6834 101.795 80.4501 101.748 80.2334 101.606C79.8667 101.386 79.8334 101.386 79.8334 101.622C79.8334 101.764 79.9834 101.906 80.1667 101.953C80.3834 102 80.5001 102.173 80.5001 102.394C80.5001 102.598 80.6334 102.881 80.8001 103.039C81.0667 103.306 81.0834 103.306 81.1334 102.976C81.1667 102.787 81.2667 102.677 81.3667 102.724C81.4667 102.787 81.5001 102.708 81.4167 102.472C81.3334 102.236 81.3501 102.157 81.4834 102.22C81.5834 102.283 81.6667 102.252 81.6667 102.142C81.6667 102.031 81.7834 102.079 81.9167 102.252C82.1667 102.535 82.1667 102.535 82.0501 102.252C81.9834 102.031 82.0001 101.984 82.1501 102.063C82.3001 102.157 82.3167 102.079 82.2334 101.78C82.1667 101.481 82.2001 101.37 82.3834 101.37C82.6667 101.37 82.9167 100.536 83.1001 99.0407C83.1834 98.3009 83.1501 97.8917 82.9334 97.3722C82.6834 96.7583 81.8334 95.7667 81.8334 96.0972C81.8334 96.1759 81.7167 96.0972 81.5667 95.9241C81.4334 95.7667 81.3501 95.7037 81.4001 95.8139C81.4667 95.9083 81.4334 96.0343 81.3334 96.0972C81.2501 96.1444 81.1667 96.05 81.1667 95.8611C81.1667 95.688 81.0501 95.4991 80.9167 95.4518C80.7834 95.3889 80.7167 95.2787 80.7834 95.1843C80.8334 95.1055 80.8001 95.0741 80.7167 95.1213C80.5001 95.2472 80.1167 94.8537 80.3001 94.6806C80.3667 94.6018 80.3334 94.6018 80.2167 94.6648C80.1001 94.7278 80.0001 94.6333 79.9667 94.413C79.9334 94.1611 79.8001 94.0509 79.5001 94.0194C79.1667 94.0037 79.0834 94.0667 79.0834 94.3815Z" fill="black"/>
<path d="M55.3498 133.702C55.1498 133.922 55.0332 134.882 54.9332 137.259C54.8832 138.078 54.7332 139.589 54.5998 140.612C54.4498 141.635 54.2998 142.863 54.2498 143.351C54.1998 143.823 54.1165 144.295 54.0665 144.374C54.0165 144.453 53.8998 145.492 53.8165 146.672C53.6332 149.458 53.0832 151.741 52.5332 152.166C52.1165 152.481 51.2332 152.402 50.7665 152.024C50.2832 151.615 50.2165 151.158 50.4165 149.427L50.5332 148.309L49.4165 148.246C48.4832 148.215 48.2499 148.246 48.0832 148.482C47.8165 148.844 47.8665 153.11 48.1499 153.598C48.4332 154.102 49.5832 154.432 51.1665 154.448C53.1165 154.48 53.8832 154.244 54.4998 153.441C54.7832 153.079 54.9998 152.701 54.9998 152.575C54.9998 152.449 55.1498 152.37 55.3832 152.386C55.5832 152.402 55.9665 152.402 56.2165 152.402C56.6165 152.37 56.6665 152.323 56.5832 152.056C56.4998 151.82 56.6165 151.599 57.0332 151.221C57.7165 150.592 58.5332 150.009 58.6998 150.009C58.7665 150.009 58.8332 149.899 58.8332 149.757C58.8332 149.632 59.0498 149.317 59.3165 149.065C59.8332 148.561 60.1998 147.916 59.7665 148.262C59.6332 148.372 59.4498 148.419 59.3498 148.372C59.2665 148.309 58.9832 148.514 58.7165 148.813C58.4665 149.096 57.9832 149.506 57.6498 149.726C57.3332 149.931 57.0832 150.182 57.0998 150.293C57.1165 150.403 57.0998 150.419 57.0498 150.324C56.9165 150.057 56.5332 150.151 56.4165 150.482C56.3498 150.686 56.1665 150.796 55.8832 150.796C55.4832 150.796 55.4665 150.765 55.5498 150.041C55.5832 149.632 55.6832 149.128 55.7498 148.907C55.9498 148.278 56.1998 146.216 56.1832 145.287C56.1832 144.815 56.2498 143.855 56.3332 143.162C56.5332 141.509 56.6498 139.967 56.7665 136.661C56.8665 134.111 56.8498 133.922 56.5665 133.718C56.1665 133.434 55.5998 133.419 55.3498 133.702Z" fill="black"/>
<path d="M100.067 138.015C99.9666 138.078 99.85 138.251 99.7833 138.393C99.65 138.755 99.3666 138.755 97.6833 138.345C96.4333 138.046 96.2666 138.046 95.7833 138.251C95.2166 138.503 94.5833 138.613 92.75 138.755C92.1166 138.818 91.1666 138.959 90.6666 139.069C90.1666 139.195 89.2333 139.337 88.5833 139.4C87.8 139.479 87.35 139.605 87.1666 139.793C86.9666 140.014 86.0833 140.329 84.3666 140.817C84.2333 140.848 84.1833 140.99 84.25 141.179C84.3333 141.462 84.1 149.553 83.9166 151.898C83.8833 152.465 83.8 153.944 83.7333 155.204C83.6666 156.463 83.6 157.738 83.5833 158.037C83.55 158.336 83.5333 158.698 83.5166 158.856C83.5 159.17 82.8333 159.06 82.8333 158.73C82.8333 158.415 82.5333 158.305 82.2666 158.541C82.0833 158.714 82.1333 158.793 82.6 159.107C83.2333 159.501 83.5 159.564 85.5333 159.753C86.5 159.847 87.2833 160.02 87.8666 160.272C90.3166 161.374 92.6666 162.507 93.3333 162.901C94.2333 163.452 94.2666 163.468 94.4 163.121C94.65 162.539 95.4833 158.037 95.5666 156.919C95.6166 156.258 95.7166 155.597 95.7666 155.44C95.85 155.235 95.8333 155.188 95.7 155.267C95.45 155.408 95.45 155.282 95.6833 153.236C95.8666 151.489 95.95 150.072 96.0833 146.782C96.1333 145.57 96.2333 144.122 96.3333 143.556C96.4166 142.989 96.5 141.682 96.5 140.628C96.5 139.589 96.5333 138.692 96.5833 138.644C96.6333 138.613 97.3166 138.723 98.1166 138.912C98.9333 139.101 99.6666 139.227 99.7666 139.195C99.8666 139.164 100.033 138.959 100.133 138.739C100.383 138.235 100.667 138.267 101.35 138.833C101.667 139.085 101.983 139.306 102.05 139.306C102.117 139.306 102.333 139.447 102.533 139.605C102.833 139.888 102.867 140.03 102.767 140.88C102.617 142.044 102.533 142.296 102.233 142.296C101.85 142.296 101.667 141.856 101.667 140.88C101.667 140.533 101.6 140.25 101.5 140.25C101.417 140.25 101.333 140.565 101.333 140.958C101.333 141.761 101.217 141.793 99.85 141.493C98.9333 141.305 98.8333 141.399 99.3833 141.887C99.6833 142.155 99.8333 142.438 99.8333 142.768C99.8333 143.02 99.9166 143.241 100 143.241C100.1 143.241 100.167 143.398 100.15 143.587C100.133 143.792 100.133 144.327 100.133 144.768C100.167 145.586 100.167 145.602 100.667 145.539C100.933 145.507 101.283 145.397 101.417 145.287C101.567 145.177 101.733 145.13 101.8 145.193C101.983 145.366 101.033 146.074 100.617 146.074C100.417 146.074 100.15 146.137 100.017 146.216C99.8166 146.342 99.8 146.405 99.9833 146.609C100.117 146.751 100.25 147.349 100.283 147.931C100.367 149.285 100.783 150.639 101.1 150.639C101.217 150.639 101.517 150.356 101.75 150.025C101.967 149.679 102.317 149.238 102.5 149.033C104.517 146.924 104.8 146.436 105.217 144.201C105.367 143.477 105.533 142.847 105.583 142.784C105.65 142.737 106.5 142.706 107.5 142.737C109.033 142.768 109.317 142.737 109.4 142.517C109.45 142.375 109.467 142.218 109.417 142.139C109.317 141.997 106.1 142.06 105.833 142.218C105.733 142.281 105.617 142.107 105.567 141.824C105.483 141.493 105.383 141.368 105.233 141.415C105.017 141.493 103.667 140.077 103.667 139.762C103.667 139.683 103.35 139.479 102.967 139.29C102.567 139.101 101.95 138.707 101.567 138.424C100.9 137.905 100.433 137.779 100.067 138.015ZM95.9833 141.226C95.9833 142.548 95.9 143.713 95.8166 143.807C95.75 143.886 95.6333 145.523 95.5833 147.428C95.5166 149.317 95.45 151.158 95.4166 151.505C95.2166 153.771 95.0833 155.676 95.1166 156.132C95.1166 156.431 95.0333 156.778 94.9 156.888C94.6333 157.14 94.5833 157.958 94.8333 157.801C94.9333 157.754 95 157.848 95 158.037C95 158.478 94.35 162.303 94.2333 162.46C94.1666 162.57 93.2166 162.145 92.6666 161.736C92.3166 161.468 87.9333 159.784 86.9166 159.517C86.4666 159.391 85.6666 159.296 85.15 159.296C84.65 159.296 84.1666 159.233 84.0666 159.139C83.9833 159.06 83.9666 158.525 84.0333 157.848C84.1666 156.573 84.2666 154.48 84.4166 150.167C84.4833 148.577 84.55 147.223 84.5833 147.176C84.7 146.987 84.8166 144.925 84.7166 144.768C84.6 144.579 84.6333 142.438 84.7666 141.714C84.85 141.352 84.9833 141.194 85.3 141.116C85.55 141.068 86.3333 140.769 87.0333 140.47C88.4166 139.888 89.3666 139.699 89.7833 139.919C89.95 139.998 90.2666 139.998 90.5666 139.904C90.85 139.825 91.6833 139.668 92.4166 139.526C93.15 139.4 94.2 139.211 94.75 139.085C95.3 138.959 95.8166 138.849 95.8833 138.849C95.95 138.833 96 139.919 95.9833 141.226ZM104.25 141.179C105.017 142.296 105.217 143.178 104.85 143.839C104.767 143.981 104.65 144.217 104.6 144.343C104.167 145.366 103.5 145.932 103.05 145.665C102.8 145.523 102.75 145.271 102.783 144.421C102.783 143.855 102.833 143.335 102.883 143.304C102.933 143.256 103.2 143.335 103.483 143.461C104.15 143.792 104.617 143.776 104.717 143.414C104.783 143.162 104.65 143.068 103.933 142.879C102.983 142.627 103.017 142.721 103.25 140.99C103.3 140.502 103.383 140.093 103.433 140.093C103.467 140.093 103.85 140.581 104.25 141.179Z" fill="black"/>
<path d="M72.6166 153C72.4666 153.189 72.3832 153.425 72.3999 153.535C72.4332 153.63 72.4166 153.661 72.3832 153.582C72.2332 153.346 72.0332 153.504 71.5999 154.244C71.2832 154.81 71.2166 155.046 71.3666 155.094C71.4999 155.141 71.4666 155.188 71.2832 155.188C71.1166 155.204 71.0166 155.267 71.0832 155.345C71.1332 155.424 71.0999 155.534 70.9999 155.597C70.7499 155.739 70.7999 156.18 71.0499 156.069C71.1499 156.007 71.0666 156.132 70.8332 156.337C70.3666 156.746 70.3332 156.794 70.3166 157.282C70.3166 157.628 70.2999 157.628 70.1666 157.329C70.0499 157.077 70.0166 157.061 70.0166 157.282C69.9999 157.423 69.7332 157.801 69.4166 158.132C68.9833 158.572 68.8833 158.761 69.0333 158.856C69.2499 158.982 69.2166 158.997 68.7999 159.044C68.6833 159.06 68.5999 159.233 68.6166 159.422C68.6499 159.674 68.5999 159.753 68.4499 159.674C68.3499 159.611 68.2999 159.611 68.3666 159.674C68.4166 159.737 68.3666 159.973 68.2333 160.209C68.0333 160.571 68.0333 160.634 68.2333 160.682C68.8499 160.807 69.4832 159.721 68.9166 159.517C68.7833 159.454 68.6666 159.344 68.6666 159.265C68.6666 159.17 68.7833 159.186 68.9166 159.296C69.1332 159.454 69.2332 159.454 69.4999 159.218C69.6832 159.06 69.8332 158.84 69.8332 158.73C69.8332 158.619 69.9832 158.446 70.1666 158.352C70.3499 158.257 70.4999 158.053 70.4999 157.88C70.4999 157.722 70.6332 157.549 70.7999 157.502C70.9499 157.455 71.2499 157.124 71.4666 156.762C71.8499 156.148 71.8499 156.117 71.5499 155.881C71.3832 155.755 71.3499 155.692 71.4666 155.755C71.5666 155.802 71.6666 155.786 71.6666 155.692C71.6666 155.613 71.5666 155.503 71.4666 155.471C71.3499 155.424 71.4499 155.377 71.7166 155.377C71.9666 155.361 72.1666 155.282 72.1666 155.188C72.1666 155.109 72.0999 155.078 71.9999 155.125C71.8999 155.172 71.8832 155.109 71.9332 154.983C71.9832 154.842 72.0999 154.779 72.1832 154.826C72.2666 154.873 72.3332 154.857 72.3332 154.779C72.3332 154.716 72.5166 154.448 72.7499 154.196C73.1832 153.724 73.2666 153.252 73.0166 152.858C72.8999 152.701 72.8166 152.732 72.6166 153Z" fill="black"/>
<path d="M104.617 156.856C104.45 157.502 104.217 158.226 104.083 158.478C103.65 159.265 102.5 161.815 102.5 161.988C102.5 162.098 102.183 162.145 101.633 162.098C101.1 162.067 100.75 162.114 100.717 162.224C100.65 162.413 101.167 162.602 101.8 162.602C102.033 162.602 102.167 162.696 102.167 162.885C102.167 163.09 101.9 163.231 101.133 163.436C99.3333 163.893 98.0833 163.94 96.5167 163.562C95.0667 163.216 94.9 163.216 95.05 163.594C95.3167 164.239 99.1 164.459 100.867 163.94C101.617 163.704 101.917 163.688 102.233 163.83C102.617 163.987 102.65 163.971 102.7 163.499C102.733 163.216 102.833 163.027 102.917 163.074C103.1 163.153 103.1 163.483 102.917 164.255C102.833 164.617 102.85 164.664 102.983 164.491C103.267 164.129 103.217 165.703 102.9 167.56C102.617 169.213 102.533 169.355 101.783 169.654C101.317 169.843 101.3 169.843 101.4 169.402C101.483 169.087 101.4 168.835 101.083 168.426C100.733 167.985 100.667 167.938 100.667 168.221C100.667 168.394 100.783 168.631 100.933 168.756C101.1 168.882 101.167 169.134 101.133 169.481L101.067 170L103.667 169.984C105.083 169.984 106.133 169.937 106 169.89C105.617 169.748 105.517 169.512 105.617 169.04C105.717 168.505 105.417 167.938 105.083 168.048C104.883 168.127 104.833 167.954 104.833 167.041C104.833 165.766 104.6 165.12 104.117 165.12C103.867 165.12 103.817 165.042 103.9 164.727C103.95 164.506 104.05 164.144 104.1 163.924C104.183 163.625 104.167 163.531 104.017 163.609C103.917 163.672 103.833 163.625 103.833 163.468C103.833 163.294 103.9 163.263 104.05 163.342C104.417 163.562 105.317 163.814 105.417 163.719C105.483 163.672 105.283 163.452 105 163.231L104.483 162.838L104.717 161.768C104.85 161.185 104.9 160.713 104.833 160.713C104.767 160.713 104.65 161.044 104.583 161.453C104.517 161.846 104.4 162.366 104.3 162.586L104.117 162.995L104 162.602C103.933 162.381 103.917 162.035 103.967 161.831C104.017 161.579 103.983 161.484 103.85 161.563C103.75 161.626 103.667 161.894 103.667 162.161C103.667 162.523 103.6 162.618 103.4 162.539C103.25 162.492 103.1 162.444 103.067 162.444C102.867 162.444 103.05 161.673 103.467 160.807C104.267 159.17 104.65 158.147 104.85 157.203C105.117 155.786 104.95 155.534 104.617 156.856Z" fill="black"/>
<path d="M71.6666 158.619C71.7499 158.934 71.7999 159.233 71.7999 159.281C71.7499 159.753 71.8666 160.241 71.9999 160.162C72.0999 160.115 72.1666 160.131 72.1666 160.225C72.1666 160.304 72.0999 160.414 71.9999 160.477C71.9166 160.524 71.8833 160.65 71.9333 160.776C71.9833 160.886 71.9499 161.374 71.8666 161.862C71.7499 162.539 71.7666 162.869 71.9499 163.184C72.0666 163.405 72.1166 163.656 72.0333 163.735C71.9499 163.814 71.4333 163.94 70.8666 164.034C70.2999 164.129 69.8333 164.27 69.8333 164.365C69.8333 164.443 69.9166 164.459 70.0333 164.396C70.1333 164.333 70.1666 164.349 70.1166 164.459C70.0499 164.538 69.8666 164.585 69.6999 164.538C69.4999 164.491 69.3999 164.569 69.3833 164.79C69.3666 165.057 69.4166 165.089 69.7333 164.979C69.9666 164.884 70.2333 164.916 70.4999 165.057C70.8999 165.262 70.8999 165.262 70.5499 165.278C70.0333 165.278 69.3166 165.608 69.4333 165.781C69.4833 165.86 69.3999 166.081 69.2166 166.254C69.0499 166.443 69.0166 166.537 69.1499 166.458C69.2999 166.38 69.3499 166.395 69.2666 166.506C69.2166 166.6 69.0333 166.663 68.8666 166.663C68.7166 166.663 68.4499 166.71 68.2833 166.773C68.1166 166.836 67.9999 166.836 68.0166 166.757C68.0333 166.679 68.0333 166.395 68.0166 166.143C67.9999 165.781 67.9666 165.718 67.8333 165.907C67.7333 166.065 67.7166 165.939 67.7833 165.53C67.8666 164.979 67.8499 164.916 67.5833 165.026C67.3499 165.105 67.3166 165.089 67.4833 164.9C67.5833 164.79 67.6333 164.569 67.5666 164.428C67.4166 164.05 67.1833 164.129 67.2666 164.522C67.3333 164.837 67.3166 164.837 67.1999 164.585C66.9833 164.129 67.2333 163.011 67.6166 162.618C67.8166 162.413 68.0166 162.035 68.0666 161.752C68.1333 161.437 68.3166 161.169 68.5499 161.059L68.9166 160.886L68.4999 160.87C68.2666 160.855 67.9499 160.823 67.7999 160.792C67.4833 160.729 66.9333 161.579 67.1166 161.862C67.1666 161.956 67.1333 161.972 67.0333 161.909C66.8999 161.846 66.7666 161.956 66.6666 162.193C66.5166 162.602 66.1666 162.759 66.1666 162.429C66.1666 162.35 66.0999 162.303 66.0166 162.35C65.9333 162.413 65.8999 162.303 65.9499 162.13C65.9999 161.956 65.9666 161.815 65.8833 161.815C65.7999 161.815 65.6166 161.531 65.4999 161.169C65.3666 160.807 65.1666 160.493 65.0333 160.445C64.9166 160.398 64.8499 160.256 64.8999 160.131C64.9499 160.005 64.9166 159.957 64.8333 160.005C64.7333 160.052 64.6666 160.005 64.6666 159.879C64.6666 159.753 64.5166 159.485 64.3166 159.281C64.1166 159.076 63.8666 158.761 63.7333 158.604C63.6166 158.431 63.45 158.336 63.4 158.399C63.3333 158.462 63.3833 158.619 63.5 158.745C63.6833 158.95 63.6666 159.029 63.45 159.186C63.2 159.359 63.2 159.422 63.45 159.879C63.5833 160.162 63.8 160.398 63.9 160.398C64.2 160.398 64.5833 160.918 64.5999 161.358C64.6333 161.815 65.4499 163.121 65.6333 163.011C65.6999 162.98 65.7666 163.168 65.7833 163.42C65.7999 163.688 65.9333 164.018 66.0833 164.176C66.2166 164.318 66.3333 164.522 66.3333 164.617C66.3333 164.727 66.4166 164.806 66.4999 164.806C66.5999 164.806 66.6499 164.853 66.6499 164.916C66.5999 165.231 66.6833 165.608 66.7999 165.545C66.8666 165.498 66.9166 165.656 66.9333 165.892C66.9499 166.49 67.4999 167.497 67.7333 167.371C67.8333 167.308 67.8166 167.371 67.6999 167.513C67.5499 167.686 67.5333 167.796 67.6666 167.875C67.9166 168.017 67.8666 168.536 67.5999 168.631C67.4833 168.678 67.1833 168.694 66.9333 168.678C66.6999 168.646 66.4999 168.678 66.4999 168.741C66.4999 169.04 65.0499 169.701 64.1166 169.827C63.1833 169.953 63.3 169.969 65.2499 169.969C66.4499 169.969 67.2833 169.921 67.1166 169.874C66.8666 169.78 66.8999 169.717 67.3333 169.465C67.6166 169.307 68.0166 169.213 68.1999 169.26C68.3833 169.307 68.6499 169.244 68.7833 169.119C68.9999 168.914 68.9999 168.819 68.7666 168.269C68.4499 167.497 68.4333 167.135 68.7333 167.529C68.8833 167.702 69.0666 167.765 69.2499 167.702C69.4333 167.623 69.6166 167.686 69.7499 167.844C69.9333 168.08 70.0333 168.064 71.0166 167.733C71.5999 167.529 72.2999 167.293 72.5499 167.198C72.7999 167.088 73.1999 166.962 73.4333 166.915C73.9166 166.805 74.0833 166.584 73.8833 166.332C73.7999 166.222 73.7333 165.907 73.7333 165.608C73.7499 165.12 73.8166 165.057 74.6666 164.743C75.2833 164.491 75.5833 164.302 75.5666 164.129C75.5499 163.971 75.6333 163.861 75.7666 163.861C76.0666 163.861 76.0666 163.609 75.7666 163.499C75.6333 163.452 75.0499 163.468 74.4666 163.546C72.8499 163.782 72.6166 163.751 72.8166 163.42C73.1333 162.854 72.9666 159.674 72.6333 159.879C72.5166 159.926 72.4999 159.894 72.5666 159.8C72.7333 159.548 72.4999 158.808 72.2833 158.934C72.1833 158.997 72.1499 158.934 72.2166 158.777C72.3666 158.399 72.1833 158.037 71.8333 158.037C71.5833 158.037 71.5499 158.116 71.6666 158.619Z" fill="black"/>
<path d="M79.7499 158.462C79.5666 158.509 79.2499 158.667 79.0333 158.824C78.8333 158.981 78.5333 159.076 78.3666 159.029C77.8999 158.919 77.6166 159.359 77.7333 159.957C77.9166 160.729 79.2499 161.516 80.5999 161.61C81.5833 161.689 81.6333 161.673 81.9666 161.217C82.4999 160.524 82.4499 159.831 81.8333 159.296C81.5666 159.06 81.3333 158.777 81.3333 158.682C81.3333 158.588 81.2166 158.556 81.0833 158.604C80.9499 158.667 80.8333 158.619 80.8333 158.525C80.8333 158.352 80.3499 158.32 79.7499 158.462Z" fill="black"/>
<path d="M83.2999 164.522C82.7666 164.884 82.3333 165.262 82.3333 165.388C82.3333 165.656 82.0666 165.656 81.9499 165.388C81.8999 165.262 81.5166 165.168 80.9333 165.152C79.5999 165.105 79.2333 165.451 78.9499 167.009L78.7499 168.19L77.6666 168.363C76.7499 168.52 75.6333 168.835 74.4999 169.276C74.3499 169.339 74.1499 169.512 74.0499 169.685C73.8499 169.984 73.9499 169.984 78.7333 170C83.2999 170 83.6499 169.984 83.7166 169.732C83.7833 169.465 83.7999 169.465 83.8166 169.717C83.8333 169.969 84.0166 170 85.3499 170C86.1666 170 86.8166 169.937 86.7666 169.858C86.6499 169.685 87.0999 169.103 87.2499 169.244C87.3166 169.292 87.2833 169.496 87.1666 169.669C87.0166 169.937 87.0333 170 87.2333 170C87.3833 170 87.5333 169.795 87.5999 169.465C87.7166 168.867 87.5833 168.52 87.2999 168.678C87.0333 168.835 84.5833 168.804 84.5999 168.646C84.5999 168.426 85.4499 168.3 87.0166 168.284C88.6499 168.269 88.8833 168.394 88.7999 169.244C88.7499 169.701 88.6833 169.78 88.1666 169.858C87.7666 169.921 88.0333 169.969 88.9666 169.984C90.4833 170 90.4499 170.063 89.4666 169.024C89.2166 168.756 88.9666 168.41 88.8999 168.237C88.8166 167.954 88.6666 167.938 86.7333 167.985C84.9166 168.032 84.6499 168.064 84.4333 168.347C83.9499 168.93 84.1666 169.134 85.3166 169.166C86.4333 169.197 86.6666 169.276 86.3833 169.544C86.1499 169.764 84.5999 169.921 84.7333 169.717C84.7833 169.622 84.7166 169.575 84.5833 169.591C84.4333 169.606 84.0499 169.386 83.7333 169.103C83.3999 168.819 82.9833 168.583 82.7833 168.583C81.8166 168.583 81.6666 168.442 81.6666 167.592C81.6666 166.773 81.9166 166.71 82.0333 167.481C82.0833 167.844 82.1499 167.875 83.0666 167.891C83.9166 167.891 84.0499 167.859 84.2166 167.529C84.2999 167.324 84.4833 167.167 84.6166 167.167C84.7333 167.167 84.8333 167.104 84.8333 167.025C84.8333 166.946 84.9499 166.899 85.0999 166.915C85.3666 166.931 85.4166 166.82 85.6166 165.892C85.7166 165.435 85.1999 164.869 84.4166 164.585C84.0999 164.475 84.0999 164.459 84.3833 164.318C84.7166 164.129 84.7666 163.861 84.4666 163.861C84.3499 163.877 83.8166 164.16 83.2999 164.522Z" fill="black"/>
<path d="M12.7834 168.646C12.7334 168.772 12.7501 168.93 12.8334 168.977C12.9167 169.024 12.9501 169.166 12.8834 169.292C12.8334 169.418 12.8834 169.528 12.9834 169.528C13.0834 169.528 13.1667 169.606 13.1667 169.717C13.1667 169.811 13.0167 169.764 12.8334 169.606C12.5001 169.323 12.4834 169.323 12.5834 169.622C12.7001 169.921 12.6834 169.921 12.4334 169.622C12.2334 169.386 12.2167 169.26 12.3667 169.103C12.5001 168.93 12.4834 168.914 12.2667 168.993C11.9667 169.103 11.9334 169.197 12.1667 169.528C12.2834 169.717 12.2167 169.78 11.8667 169.858C11.6167 169.921 12.4834 169.969 13.7834 169.984L16.1667 170L15.9834 169.638C15.7334 169.119 14.8001 168.599 14.3001 168.694C14.0667 168.741 13.7167 168.694 13.5167 168.599C13.2501 168.457 13.1667 168.457 13.1667 168.615C13.1667 168.772 13.1334 168.772 13.0167 168.615C12.9001 168.442 12.8667 168.442 12.7834 168.646Z" fill="black"/>
</svg>
